<svg width="194" height="40" viewBox="0 0 194 40" fill="none" xmlns="http://www.w3.org/2000/svg">
<g id="Certs365-white-logo 1" clip-path="url(#clip0_6571_18524)">
<g id="Group 3">
<g id="Certs365-logo">
<g id="Group 1">
<path id="Path 1" d="M65.1603 29.128C64.5261 29.6048 63.8503 30.0234 63.1411 30.3788C62.3728 30.7366 61.5663 31.0056 60.7372 31.1806C59.7877 31.37 58.8206 31.456 57.8526 31.4371C56.2895 31.4588 54.7392 31.1529 53.3013 30.5391C51.9505 29.9667 50.7294 29.1267 49.7116 28.0697C48.6764 27.0099 47.8597 25.7567 47.3077 24.3816C46.723 22.9352 46.4289 21.3877 46.4423 19.8276C46.4341 18.2813 46.7168 16.7473 47.2757 15.3056C47.8194 13.9262 48.6372 12.6715 49.6795 11.6175C50.7254 10.5563 51.966 9.70696 53.3334 9.116C54.813 8.48837 56.4058 8.1718 58.0128 8.18596C58.9602 8.1483 59.9084 8.23455 60.8334 8.44252C61.6241 8.60049 62.3971 8.83684 63.1411 9.14808C63.8234 9.45367 64.4776 9.81854 65.0962 10.2385C65.6983 10.6639 66.2662 11.1357 66.7949 11.6496L64.2628 14.568C63.4081 13.7681 62.4484 13.0883 61.4103 12.5476C60.3454 12.0193 59.1691 11.7553 57.9808 11.7779C56.963 11.7387 55.951 11.9478 55.0321 12.3872C54.1421 12.8003 53.3376 13.3768 52.6603 14.0869C51.9795 14.8049 51.4556 15.6568 51.1218 16.5884C50.7569 17.5848 50.5724 18.6382 50.577 19.6993C50.5752 20.7706 50.7596 21.8341 51.1218 22.8422C51.4624 23.7897 51.985 24.6613 52.6603 25.4079C53.3409 26.1403 54.1639 26.7258 55.0788 27.1284C55.9938 27.531 56.9813 27.7422 57.9808 27.749C59.2014 27.7513 60.4067 27.4772 61.5064 26.9472C62.5787 26.378 63.5615 25.654 64.4231 24.7985L66.9552 27.3642C66.3937 27.9701 65.7826 28.5279 65.1282 29.0318L65.1603 29.128Z" fill="white"/>
<path id="Path 2" d="M75.7693 27.1717C76.6698 27.9127 77.8092 28.3003 78.9744 28.2621C80.2244 28.2621 80.7693 28.1018 81.4744 27.749C82.246 27.3631 82.9497 26.854 83.5578 26.2417L85.8334 28.2621C85.0264 29.2204 84.0343 30.0057 82.9167 30.5712C81.6694 31.1754 80.2957 31.4723 78.9103 31.4371C76.618 31.4688 74.4061 30.5927 72.7565 28.9998C71.9683 28.1939 71.3378 27.2475 70.8975 26.2096C70.4381 25.0686 70.2093 23.8478 70.2244 22.6177C70.2011 21.445 70.408 20.2791 70.8334 19.1862C71.2394 18.1506 71.8253 17.1951 72.5642 16.364C73.291 15.5539 74.1741 14.8993 75.1603 14.4397C76.2035 13.9545 77.3434 13.7132 78.4937 13.7342C79.7081 13.7241 80.9106 13.9757 82.0193 14.4718C83.0049 14.9309 83.8714 15.6113 84.5513 16.4602C85.2445 17.3265 85.7666 18.3169 86.0898 19.3786C86.4392 20.5105 86.6122 21.6896 86.6026 22.8743V23.3874C86.6113 23.5714 86.5896 23.7556 86.5385 23.9326H74.1026C74.2629 25.1648 74.8532 26.3007 75.7693 27.1397V27.1717ZM82.7565 21.4311C82.7014 20.8264 82.5611 20.2326 82.3398 19.6672C82.1359 19.1499 81.843 18.6723 81.4744 18.2561C81.0965 17.8436 80.6354 17.5159 80.1216 17.2948C79.6078 17.0736 79.0529 16.9641 78.4937 16.9733C77.9412 16.9578 77.392 17.0615 76.8832 17.2774C76.3744 17.4932 75.918 17.8161 75.5449 18.224C74.7452 19.1187 74.2415 20.2389 74.1026 21.4311H82.7565Z" fill="white"/>
<path id="Path 3" d="M95.2242 31.0844H91.314V14.1511H95.2242V17.9675C95.702 16.7605 96.4864 15.6993 97.4999 14.8887C98.4935 14.119 99.7114 13.7663 101.218 13.8304V17.9354H100.993C100.194 17.9192 99.3987 18.0608 98.6537 18.3523C97.9615 18.6321 97.3382 19.0589 96.8268 19.6031C96.2889 20.2064 95.8847 20.9169 95.6409 21.6877C95.3409 22.6416 95.2002 23.6385 95.2242 24.6382V31.0844Z" fill="white"/>
<path id="Path 4" d="M110.064 25.7927C110.019 26.0796 110.041 26.3732 110.128 26.6501C110.216 26.927 110.367 27.1798 110.569 27.3883C110.771 27.5967 111.019 27.7553 111.293 27.8513C111.567 27.9473 111.859 27.9782 112.147 27.9414C112.981 27.9228 113.8 27.7259 114.551 27.3642V30.5391C114.057 30.8183 113.529 31.0338 112.981 31.1806C112.353 31.3456 111.706 31.4211 111.058 31.405C110.397 31.4071 109.74 31.3208 109.102 31.1485C108.522 30.995 107.984 30.7097 107.532 30.3146C107.069 29.8933 106.717 29.3647 106.506 28.7753C106.256 28.0098 106.136 27.2074 106.154 26.402V17.4544H104.006V14.1511H106.154V9.50085H110.064V14.1511H114.615V17.4544H110.064V25.7927Z" fill="white"/>
<path id="Path 5" d="M130.897 28.4225C130.589 29.0691 130.14 29.6388 129.583 30.0901C128.987 30.5406 128.314 30.8777 127.596 31.0843C126.793 31.3073 125.962 31.4152 125.128 31.405C123.876 31.3661 122.635 31.1501 121.442 30.7636C120.181 30.3321 119 29.6926 117.949 28.8714L119.679 26.2417C120.536 26.8947 121.487 27.4137 122.5 27.781C123.369 28.1221 124.291 28.3066 125.224 28.3262C125.9 28.3729 126.573 28.2045 127.147 27.8452C127.368 27.6976 127.548 27.497 127.672 27.2616C127.795 27.0263 127.857 26.7638 127.853 26.4982V26.4341C127.858 26.2806 127.833 26.1276 127.778 25.9843C127.723 25.841 127.639 25.7103 127.532 25.6003C127.294 25.339 127.012 25.1219 126.699 24.9588C126.311 24.7547 125.903 24.5934 125.481 24.4778C125.032 24.3495 124.551 24.1891 124.071 24.0609C123.462 23.8684 122.821 23.6439 122.18 23.4195C121.568 23.2001 120.995 22.8863 120.481 22.4894C119.985 22.1174 119.571 21.6482 119.263 21.1104C118.924 20.4923 118.758 19.7944 118.782 19.0899V19.0258C118.775 18.2856 118.929 17.5527 119.231 16.8771C119.537 16.2469 119.974 15.6893 120.513 15.2415C121.08 14.7754 121.733 14.4265 122.436 14.2152C123.205 13.9814 124.004 13.8625 124.808 13.8624C127.022 13.896 129.179 14.5638 131.026 15.7867L129.487 18.5447C128.707 18.0658 127.88 17.6682 127.019 17.3581C126.279 17.0912 125.499 16.9502 124.712 16.9412C124.088 16.9105 123.47 17.0789 122.949 17.4223C122.753 17.5598 122.592 17.7421 122.481 17.9541C122.37 18.166 122.31 18.4015 122.308 18.6409V18.7051C122.305 18.8533 122.332 19.0006 122.387 19.1383C122.442 19.276 122.524 19.4013 122.628 19.5068C122.88 19.7573 123.173 19.9633 123.494 20.1162C123.886 20.3179 124.293 20.4894 124.712 20.6293C125.16 20.7897 125.641 20.95 126.154 21.0783C126.763 21.2707 127.404 21.4952 128.013 21.7518C128.61 21.9951 129.17 22.3188 129.68 22.7139C130.167 23.0821 130.58 23.5391 130.897 24.0609C131.232 24.6572 131.399 25.3335 131.378 26.0172V26.0813C131.396 26.888 131.232 27.6883 130.897 28.4225Z" fill="white"/>
<path id="Path 6" d="M136.474 10.8799V8.63495H150.769V10.495L143.75 18.3203C144.707 18.3997 145.653 18.5825 146.57 18.8655C147.413 19.1234 148.204 19.5248 148.91 20.0521C149.577 20.5703 150.124 21.2267 150.513 21.9763C150.924 22.8141 151.132 23.7369 151.122 24.6702C151.135 25.6209 150.938 26.5629 150.545 27.4283C150.163 28.2464 149.617 28.9776 148.942 29.577C148.249 30.1943 147.444 30.6733 146.57 30.9881C145.622 31.3163 144.625 31.4791 143.622 31.4692C141.919 31.5081 140.234 31.1223 138.718 30.3467C137.374 29.6382 136.195 28.6548 135.256 27.4604L137.083 25.8248C137.884 26.8195 138.862 27.6569 139.968 28.2942C141.103 28.8915 142.372 29.1895 143.654 29.1601C145.064 29.1601 144.968 29.0639 145.577 28.8394C146.155 28.6702 146.683 28.3619 147.115 27.9414C147.563 27.5707 147.915 27.0977 148.141 26.5624C148.388 25.9844 148.519 25.3631 148.526 24.7344C148.553 24.0852 148.404 23.4408 148.093 22.8702C147.783 22.2995 147.323 21.8242 146.763 21.4952C145.609 20.7576 144.102 20.3728 142.244 20.3728H140.801L140.288 18.8655L147.372 10.8478H136.41L136.474 10.8799Z" fill="#CFA931"/>
<path id="Path 7" d="M170.577 12.772C169.821 12.1168 168.98 11.5666 168.077 11.1364C167.201 10.7426 166.249 10.5455 165.288 10.5592C164.319 10.5477 163.366 10.8029 162.532 11.2968C161.694 11.8186 160.983 12.5196 160.449 13.3493C159.839 14.3129 159.405 15.377 159.166 16.4922C158.861 17.8063 158.71 19.1518 158.718 20.501C159.014 20.0386 159.357 19.6087 159.743 19.2182C160.153 18.7955 160.616 18.4289 161.122 18.1278C161.668 17.7923 162.262 17.5435 162.884 17.3902C163.604 17.1872 164.349 17.09 165.096 17.1016C166.108 17.1121 167.113 17.2743 168.077 17.5826C168.974 17.8931 169.81 18.36 170.545 18.9617C171.257 19.5666 171.826 20.3225 172.211 21.1745C172.641 22.0641 172.861 23.0408 172.852 24.0288C172.853 25.0677 172.635 26.095 172.211 27.0434C171.807 27.9386 171.229 28.7451 170.513 29.4167C169.776 30.1057 168.902 30.6304 167.949 30.9561C166.936 31.3444 165.86 31.5402 164.775 31.5333C163.625 31.5423 162.484 31.3356 161.41 30.924C160.46 30.5485 159.598 29.9807 158.878 29.2563C158.417 28.8132 158.008 28.3182 157.66 27.7811C157.298 27.2049 156.997 26.5922 156.763 25.953C156.514 25.1897 156.332 24.4065 156.218 23.6119C156.083 22.6021 156.018 21.584 156.025 20.5652C156.021 18.94 156.236 17.3218 156.666 15.7546C157.039 14.3622 157.658 13.0479 158.493 11.8741C159.269 10.7973 160.276 9.90933 161.442 9.27635C162.651 8.62114 164.009 8.28972 165.384 8.31424C166.615 8.2804 167.839 8.51002 168.974 8.98772C170.072 9.47359 171.097 10.1105 172.019 10.8799L170.545 12.8362L170.577 12.772ZM169.84 22.1046C169.573 21.521 169.192 20.9974 168.718 20.5652C168.212 20.123 167.624 19.7852 166.987 19.571C166.269 19.3057 165.509 19.1752 164.743 19.1862C163.954 19.1727 163.17 19.3144 162.436 19.6031C161.778 19.8539 161.178 20.2358 160.673 20.7255C160.198 21.1694 159.817 21.7036 159.551 22.297C159.295 22.8835 159.164 23.517 159.166 24.1571C159.162 24.8524 159.304 25.5407 159.583 26.1775C159.863 26.7883 160.267 27.3343 160.769 27.7811C161.295 28.2442 161.904 28.6034 162.564 28.8394C163.304 29.1046 164.086 29.235 164.872 29.2242C165.637 29.2381 166.398 29.1075 167.115 28.8394C167.748 28.5914 168.325 28.2209 168.814 27.749C169.295 27.2921 169.667 26.7332 169.904 26.1134C170.16 25.4709 170.291 24.7849 170.288 24.0929C170.294 23.4215 170.163 22.7559 169.904 22.1366L169.84 22.1046Z" fill="#CFA931"/>
<path id="Path 8" d="M179.487 8.63495H192.372V10.9761H181.699L181.218 18.1599C181.861 17.8731 182.525 17.6372 183.205 17.4544C183.991 17.26 184.8 17.1737 185.609 17.1978C186.643 17.2007 187.67 17.363 188.654 17.6788C189.55 17.9782 190.385 18.4342 191.122 19.0258C191.831 19.6136 192.391 20.3609 192.757 21.2066C193.15 22.1172 193.347 23.1009 193.333 24.093C193.343 25.1262 193.147 26.1511 192.757 27.1076C192.386 27.9963 191.828 28.7948 191.122 29.4487C190.388 30.1162 189.526 30.6288 188.59 30.9561C187.55 31.3239 186.455 31.5083 185.353 31.5013C183.822 31.4811 182.313 31.1311 180.93 30.475C179.611 29.818 178.401 28.9637 177.34 27.9414L179.007 26.1134C179.905 27.0082 180.931 27.7648 182.051 28.3583C183.082 28.8904 184.225 29.1654 185.385 29.1601C186.128 29.1975 186.871 29.0773 187.564 28.8073C188.191 28.577 188.767 28.2286 189.263 27.7811C189.736 27.323 190.116 26.7787 190.385 26.1775C190.644 25.5471 190.775 24.871 190.769 24.1892C190.778 23.5278 190.647 22.872 190.385 22.2649C190.126 21.6862 189.743 21.1716 189.263 20.7576C188.743 20.3253 188.145 19.9985 187.5 19.7955C186.765 19.5567 185.997 19.4376 185.224 19.4427C184.347 19.4453 183.474 19.5639 182.628 19.7955C181.891 20.0272 181.182 20.339 180.513 20.7255L178.814 19.6031L179.455 8.66702L179.487 8.63495Z" fill="#CFA931"/>
</g>
<g id="Clip path group">
<mask id="mask0_6571_18524" style="mask-type:luminance" maskUnits="userSpaceOnUse" x="0" y="0" width="35" height="41">
<g id="clip-path">
<path id="Path 147" d="M34.4551 15.017C34.5525 14.9632 34.6336 14.8842 34.69 14.7883C34.7464 14.6924 34.7759 14.5831 34.7756 14.4718V10.3027C34.772 10.1922 34.7407 10.0845 34.6848 9.98923C34.6288 9.89399 34.5498 9.81431 34.4551 9.75746L30.8333 7.67287C30.7332 7.62537 30.6237 7.60072 30.5128 7.60072C30.402 7.60072 30.2925 7.62537 30.1923 7.67287L26.891 9.56503L21.5705 6.48626V2.66986C21.5669 2.55943 21.5356 2.45167 21.4796 2.35643C21.4236 2.2612 21.3447 2.18151 21.25 2.12467L17.6923 0.0721493C17.5921 0.0246434 17.4827 0 17.3718 0C17.2609 0 17.1515 0.0246434 17.0513 0.0721493L13.4295 2.15674C13.3321 2.21053 13.251 2.28952 13.1946 2.38543C13.1383 2.48135 13.1087 2.59066 13.109 2.70194V6.51833L7.78846 9.59711L4.48718 7.70494C4.387 7.65744 4.27753 7.63279 4.16667 7.63279C4.05581 7.63279 3.94633 7.65744 3.84616 7.70494L0.320515 9.75746C0.223167 9.81126 0.142057 9.89024 0.0856716 9.98616C0.0292863 10.0821 -0.000302029 10.1914 2.3245e-06 10.3027V14.4718C0.00365258 14.5823 0.0348995 14.69 0.0908885 14.7853C0.146877 14.8805 0.225824 14.9602 0.320515 15.017L3.6218 16.9092V23.0347L0.320515 24.9268C0.223167 24.9806 0.142057 25.0596 0.0856716 25.1555C0.0292863 25.2514 -0.000302029 25.3608 2.3245e-06 25.472V29.6412C0.00365258 29.7516 0.0348995 29.8594 0.0908885 29.9546C0.146877 30.0499 0.225824 30.1296 0.320515 30.1864L3.94231 32.271C4.03631 32.3361 4.14851 32.3698 4.26282 32.3672C4.32004 32.3761 4.37853 32.3722 4.43399 32.3555C4.48946 32.3389 4.54049 32.31 4.58334 32.271L7.88462 30.3788L13.2051 33.4576V37.274C13.2088 37.3844 13.24 37.4922 13.296 37.5874C13.352 37.6827 13.431 37.7624 13.5256 37.8192L17.1474 39.9038C17.2414 39.9689 17.3536 40.0026 17.468 40C17.5252 40.0089 17.5837 40.0049 17.6391 39.9883C17.6946 39.9716 17.7456 39.9428 17.7885 39.9038L21.4103 37.8192C21.5076 37.7654 21.5887 37.6864 21.6451 37.5905C21.7015 37.4946 21.7311 37.3853 21.7308 37.274V33.4576L27.0513 30.3788L30.3526 32.271C30.4466 32.3361 30.5588 32.3698 30.6731 32.3672C30.7303 32.3761 30.7888 32.3722 30.8442 32.3555C30.8997 32.3389 30.9507 32.31 30.9936 32.271L34.6154 30.1864C34.7127 30.1326 34.7938 30.0536 34.8502 29.9577C34.9066 29.8618 34.9362 29.7525 34.9359 29.6412V25.472C34.9322 25.3616 34.901 25.2538 34.845 25.1586C34.789 25.0634 34.7101 24.9837 34.6154 24.9268L31.3141 23.0347V16.9092L34.6154 15.017H34.4551ZM33.5256 14.087L31.1538 15.4339V12.7079L33.5256 11.361V14.087ZM26.3141 10.6554V14.087L23.8462 15.5302L18.0449 12.1627V9.30847L21.0256 7.57666L26.3462 10.6554H26.3141ZM12.2115 16.2357L17.4038 13.2531L22.5962 16.2357L17.4038 19.2183L12.2115 16.2357ZM18.0128 20.3407L23.2051 17.3582V23.3554L18.0128 26.3379V20.3407ZM20.3846 6.48626L18.0128 7.83322V5.10723L20.3846 3.76026V6.48626ZM17.4038 1.3229L19.7756 2.66986L17.4038 4.01683L15.0321 2.66986L17.4038 1.3229ZM8.46154 10.6554L13.7821 7.57666L16.7628 9.30847V12.1627L10.9615 15.5302L8.49359 14.087V10.6554H8.46154ZM4.23077 8.92362L6.60257 10.2706L4.23077 11.6175L1.85898 10.2706L4.23077 8.92362ZM7.21154 11.361V14.087L4.83975 15.4339V12.7079L7.21154 11.361ZM4.23077 26.8511L1.85898 25.5041L4.23077 24.1571L6.60257 25.5041L4.23077 26.8511ZM7.21154 29.2884L4.83975 30.6354V27.9094L7.21154 26.5624V29.2884ZM4.8718 23.0347V16.9092L7.85257 15.1774L10.3205 16.6206V23.3233L7.85257 24.7665L4.8718 23.0347ZM8.46154 29.2884V25.8569L10.9295 24.4137L16.7308 27.7811V30.6354L13.75 32.3672L8.42949 29.2884H8.46154ZM17.4038 34.4518L15.0321 33.1048L17.4038 31.7579L19.7756 33.1048L17.4038 34.4518ZM20.3846 36.8892L18.0128 38.2361V35.5101L20.3846 34.1632V36.8892ZM26.3141 29.2884L20.9936 32.3672L18.0128 30.6354V27.7811L23.8141 24.4137L26.2821 25.8569V29.2884H26.3141ZM26.9231 24.7665L24.4551 23.3233V16.6206L26.9231 15.1774L29.9038 16.9092V23.0347L26.9231 24.7665ZM33.5256 29.2884L31.1538 30.6354V27.9094L33.5256 26.5624V29.2884ZM32.8846 25.472L30.5128 26.819L28.141 25.472L30.5128 24.1251L32.8846 25.472ZM30.5449 11.6496L28.1731 10.3027L30.5449 8.95569L32.9167 10.3027L30.5449 11.6496Z" fill="white"/>
</g>
</mask>
<g mask="url(#mask0_6571_18524)">
<g id="Group 2">
<path id="Path 9" d="M28.1729 11.361L28.6857 11.6496H28.1729V11.361Z" fill="#B8932E"/>
<path id="Path 10" d="M28.1729 9.59705L31.7305 11.6496H28.6857L28.1729 11.3609V9.59705Z" fill="#B7922E"/>
<path id="Path 11" d="M28.1729 9.0198L28.237 8.92358H30.0318L32.8844 10.5913V11.5854L32.8523 11.6496H31.7305L28.1729 9.59707V9.0198Z" fill="#B6912E"/>
<path id="Path 12" d="M32.8848 10.5913L30.0322 8.92358H32.8848V10.5913Z" fill="#B5902E"/>
<path id="Path 13" d="M28.1729 25.3437L30.8011 26.851H28.1729V25.3437Z" fill="#C19C2E"/>
<path id="Path 14" d="M28.1729 24.1891L28.237 24.125H29.1023L32.8844 26.3058V26.7548L32.8523 26.851H30.8011L28.1729 25.3437V24.1891Z" fill="#C09A2E"/>
<path id="Path 15" d="M32.1474 24.125L32.8846 24.574V26.3058L29.1025 24.125H32.1474Z" fill="#BF992E"/>
<path id="Path 16" d="M32.8846 24.574L32.1475 24.125H32.8846V24.574Z" fill="#BE982E"/>
<path id="Path 17" d="M31.186 30.5391L31.3474 30.6674H31.186V30.5391Z" fill="#C49E2E"/>
<path id="Path 18" d="M31.186 28.8073L33.5258 30.1543V30.5712L33.4937 30.6674H31.3463L31.186 30.5391V28.8073Z" fill="#C29D2E"/>
<path id="Path 19" d="M31.186 27.0435L33.5258 28.4225V30.1543L31.186 28.8073V27.0435Z" fill="#C19C2E"/>
<path id="Path 20" d="M31.186 26.6586L31.2181 26.5624H33.3655L33.5258 26.6586V28.4225L31.186 27.0434V26.6586Z" fill="#C09A2E"/>
<path id="Path 21" d="M33.5266 26.6586L33.3652 26.5624H33.5266V26.6586Z" fill="#BF992E"/>
<path id="Path 22" d="M24.4551 23.1949L27.1794 24.7664H24.4551V23.1949Z" fill="#C19C2E"/>
<path id="Path 23" d="M24.4551 21.4311L29.8076 24.5099L29.6474 24.7664H27.1794L24.4551 23.195V21.4311Z" fill="#C09A2E"/>
<path id="Path 24" d="M24.4551 19.6993L29.9038 22.8422V24.3174L29.8076 24.5099L24.4551 21.4311V19.6993Z" fill="#BF992E"/>
<path id="Path 25" d="M24.4551 17.9354L29.9038 21.0783V22.8422L24.4551 19.6993V17.9354Z" fill="#BE982E"/>
<path id="Path 26" d="M24.4551 16.2036L29.9038 19.3465V21.0783L24.4551 17.9354V16.2036Z" fill="#BD972E"/>
<path id="Path 27" d="M24.4551 15.3377L24.5512 15.1773H25.7371L29.9038 17.5826V19.3465L24.4551 16.2036V15.3377Z" fill="#BC962E"/>
<path id="Path 28" d="M28.7501 15.1773L29.904 15.8508V17.5826L25.7373 15.1773H28.7501Z" fill="#BA952E"/>
<path id="Path 29" d="M29.9038 15.8508L28.75 15.1773H29.9038V15.8508Z" fill="#B9942E"/>
<path id="Path 30" d="M18.0127 31.6937L19.1665 32.3671H18.0127V31.6937Z" fill="#CAA42E"/>
<path id="Path 31" d="M18.0127 29.9298L22.2114 32.3672H19.1665L18.0127 31.6937V29.9298Z" fill="#C9A32E"/>
<path id="Path 32" d="M18.0127 28.198L25.2242 32.3672H22.2114L18.0127 29.9298V28.198Z" fill="#C7A12E"/>
<path id="Path 33" d="M18.0127 26.4983L18.0447 26.4662L26.0255 31.0843L25.2883 32.3672H25.2242L18.0127 28.198V26.4983Z" fill="#C6A02E"/>
<path id="Path 34" d="M18.0449 26.4661L18.7821 25.1512L26.3142 29.4808V30.5712L26.0257 31.0843L18.0449 26.4661Z" fill="#C59F2E"/>
<path id="Path 35" d="M18.7822 25.1513L19.2309 24.4136H20.545L26.3143 27.749V29.4808L18.7822 25.1513Z" fill="#C49E2E"/>
<path id="Path 36" d="M23.5577 24.4136L26.3142 25.9851V27.749L20.5449 24.4136H23.5577Z" fill="#C29D2E"/>
<path id="Path 37" d="M26.314 25.9851L23.5576 24.4136H26.314V25.9851Z" fill="#C19C2E"/>
<path id="Path 38" d="M18.0127 36.9212L20.3204 38.2681H18.0127V36.9212Z" fill="#CEA82E"/>
<path id="Path 39" d="M18.0127 35.1894L20.3845 36.5363V38.1719L20.3204 38.2681L18.0127 36.9212V35.1894Z" fill="#CDA62E"/>
<path id="Path 40" d="M18.0127 34.2593L18.0768 34.1631H19.2947L20.3845 34.8045V36.5363L18.0127 35.1894V34.2593Z" fill="#CBA52E"/>
<path id="Path 41" d="M20.3847 34.8045L19.2949 34.1631H20.3847V34.8045Z" fill="#CAA42E"/>
<path id="Path 42" d="M15.0322 33.4576L16.7309 34.4517H15.0322V33.4576Z" fill="#CDA62E"/>
<path id="Path 43" d="M15.0322 31.7899L15.0643 31.7258L19.7117 34.4197V34.4518H16.7309L15.0322 33.4576V31.7899Z" fill="#CBA52E"/>
<path id="Path 44" d="M15.064 31.7258H18.0768L19.7435 32.6879V34.3556L19.7114 34.4197L15.064 31.7258Z" fill="#CAA42E"/>
<path id="Path 45" d="M19.7438 32.6879L18.0771 31.7258H19.7438V32.6879Z" fill="#C9A32E"/>
<path id="Path 46" d="M8.46143 31.405L10.096 32.3671H8.46143V31.405Z" fill="#CEA82E"/>
<path id="Path 47" d="M8.46143 29.6732L13.1409 32.3671H10.096L8.46143 31.405V29.6732Z" fill="#CDA62E"/>
<path id="Path 48" d="M8.46143 27.9094L16.1537 32.3672H13.1409L8.46143 29.6732V27.9094Z" fill="#CBA52E"/>
<path id="Path 49" d="M8.46143 26.1776L16.7627 30.9561V31.9182L16.5063 32.3672H16.1537L8.46143 27.9094V26.1776Z" fill="#CAA42E"/>
<path id="Path 50" d="M8.46143 24.574L8.52553 24.4778L16.7627 29.2242V30.956L8.46143 26.1775V24.574Z" fill="#C9A32E"/>
<path id="Path 51" d="M8.52588 24.4778L8.55793 24.4136H11.4746L16.7631 27.4603V29.2242L8.52588 24.4778Z" fill="#C7A12E"/>
<path id="Path 52" d="M14.4869 24.4136L16.7626 25.7285V27.4603L11.4741 24.4136H14.4869Z" fill="#C6A02E"/>
<path id="Path 53" d="M16.7629 25.7285L14.4873 24.4136H16.7629V25.7285Z" fill="#C59F2E"/>
<path id="Path 54" d="M4.87158 24.093L6.02543 24.7664H4.87158V24.093Z" fill="#CAA42E"/>
<path id="Path 55" d="M4.87158 22.329L9.03825 24.7664H6.02543L4.87158 24.0929V22.329Z" fill="#C9A32E"/>
<path id="Path 56" d="M4.87158 20.5973L10.3203 23.7402V24.6061L10.2241 24.7665H9.03825L4.87158 22.3291V20.5973Z" fill="#C7A12E"/>
<path id="Path 57" d="M4.87158 18.8655L10.3203 22.0084V23.7402L4.87158 20.5973V18.8655Z" fill="#C6A02E"/>
<path id="Path 58" d="M4.87158 17.1016L10.3203 20.2445V22.0084L4.87158 18.8654V17.1016Z" fill="#C59F2E"/>
<path id="Path 59" d="M4.87158 15.6263L4.96774 15.4339L10.3203 18.5127V20.2445L4.87158 17.1016V15.6263Z" fill="#C49E2E"/>
<path id="Path 60" d="M4.96777 15.4339L5.12803 15.1773H7.59598L10.3203 16.7488V18.5126L4.96777 15.4339Z" fill="#C29D2E"/>
<path id="Path 61" d="M10.3206 16.7488L7.59619 15.1773H10.3206V16.7488Z" fill="#C19C2E"/>
<path id="Path 62" d="M4.87158 29.3204L7.14722 30.6674H4.87158V29.3204Z" fill="#CEA82E"/>
<path id="Path 63" d="M4.87158 27.5886L7.21133 28.9356V30.5712L7.17927 30.6674H7.14722L4.87158 29.3204V27.5886Z" fill="#CDA62E"/>
<path id="Path 64" d="M4.87158 26.6586L4.90363 26.5624H6.12158L7.21133 27.2038V28.9356L4.87158 27.5886V26.6586Z" fill="#CBA52E"/>
<path id="Path 65" d="M7.21133 27.2038L6.12158 26.5624H7.21133V27.2038Z" fill="#CAA42E"/>
<path id="Path 66" d="M1.89111 25.8568L3.58983 26.851H1.89111V25.8568Z" fill="#CDA62E"/>
<path id="Path 67" d="M1.89111 24.1891L1.92316 24.125L6.5706 26.8189L6.53855 26.851H3.58983L1.89111 25.8568V24.1891Z" fill="#CBA52E"/>
<path id="Path 68" d="M1.92285 24.125H4.90362L6.60234 25.0871V26.7548L6.57029 26.8189L1.92285 24.125Z" fill="#CAA42E"/>
<path id="Path 69" d="M6.60253 25.0871L4.90381 24.125H6.60253V25.0871Z" fill="#C9A32E"/>
<path id="Path 70" d="M4.87158 15.3698L5.03294 15.466H4.87158V15.3698Z" fill="#C49E2E"/>
<path id="Path 71" d="M4.87158 13.6059L7.21133 14.9849V15.3698L7.17927 15.466H5.03184L4.87158 15.3698V13.6059Z" fill="#C29D2E"/>
<path id="Path 72" d="M4.87158 11.8741L7.21133 13.221V14.9849L4.87158 13.6059V11.8741Z" fill="#C19C2E"/>
<path id="Path 73" d="M4.87158 11.4572L4.90363 11.361H7.05107L7.21133 11.4892V13.2211L4.87158 11.8741V11.4572Z" fill="#C09A2E"/>
<path id="Path 74" d="M7.21263 11.4892L7.05127 11.361H7.21263V11.4892Z" fill="#BF992E"/>
<path id="Path 75" d="M1.89111 10.1423L4.48727 11.6496H1.89111V10.1423Z" fill="#C19C2E"/>
<path id="Path 76" d="M1.89111 9.0198L1.92316 8.92358H2.8206L6.60265 11.1044V11.5854L6.53855 11.6496H4.48727L1.89111 10.1423V9.0198Z" fill="#C09A2E"/>
<path id="Path 77" d="M5.83313 8.92358L6.60236 9.37257V11.1044L2.82031 8.92358H5.83313Z" fill="#BF992E"/>
<path id="Path 78" d="M6.60273 9.37257L5.8335 8.92358H6.60273V9.37257Z" fill="#BE982E"/>
<path id="Path 79" d="M8.46143 13.9587L11.2178 15.5301H8.46143V13.9587Z" fill="#C19C2E"/>
<path id="Path 80" d="M8.46143 12.1948L14.2307 15.5301H11.2178L8.46143 13.9586V12.1948Z" fill="#C09A2E"/>
<path id="Path 81" d="M8.46143 10.463L15.9935 14.7925L15.5768 15.5301H14.2307L8.46143 12.1948V10.463Z" fill="#BF992E"/>
<path id="Path 82" d="M8.46143 9.37256L8.74989 8.85944L16.7307 13.4776L15.9935 14.7925L8.46143 10.463V9.37256Z" fill="#BE982E"/>
<path id="Path 83" d="M8.75 8.85942L9.48718 7.5766H9.55128L16.7628 11.7458V13.4455L16.7308 13.4776L8.75 8.85942Z" fill="#BD972E"/>
<path id="Path 84" d="M12.5961 7.5766L16.7628 10.014V11.7458L9.55127 7.5766H12.5961Z" fill="#BC962E"/>
<path id="Path 85" d="M15.609 7.5766L16.7629 8.25008V10.014L12.5962 7.5766H15.609Z" fill="#BA952E"/>
<path id="Path 86" d="M16.7627 8.25008L15.6089 7.5766H16.7627V8.25008Z" fill="#B9942E"/>
<path id="Path 87" d="M15.0322 3.76019L15.545 4.04883H15.0322V3.76019Z" fill="#B8932E"/>
<path id="Path 88" d="M15.0322 1.99634L18.5579 4.04885H15.545L15.0322 3.76022V1.99634Z" fill="#B7922E"/>
<path id="Path 89" d="M15.0322 1.41909L15.0643 1.32288H16.8591L19.7438 2.99055V3.98473L19.7117 4.04887H18.5579L15.0322 1.99636V1.41909Z" fill="#B6912E"/>
<path id="Path 90" d="M19.7435 2.99054L16.8589 1.32288H19.7435V2.99054Z" fill="#B5902E"/>
<path id="Path 91" d="M18.0127 7.22382L19.1024 7.86523H18.0127V7.22382Z" fill="#B9942E"/>
<path id="Path 92" d="M18.0127 5.492L20.3845 6.83897V7.76901L20.3204 7.86523H19.1024L18.0127 7.22381V5.492Z" fill="#B8932E"/>
<path id="Path 93" d="M18.0127 3.8564L18.0768 3.76019L20.3845 5.10716V6.83897L18.0127 5.492V3.8564Z" fill="#B7922E"/>
<path id="Path 94" d="M20.3848 5.10716L18.0771 3.76019H20.3848V5.10716Z" fill="#B6912E"/>
<path id="Path 95" d="M18.0127 24.7023L20.8332 26.3379H18.0127V24.7023Z" fill="#C59F2E"/>
<path id="Path 96" d="M18.0127 22.9705L22.6281 25.6002L22.2114 26.3379H20.8332L18.0127 24.7023V22.9705Z" fill="#C49E2E"/>
<path id="Path 97" d="M18.0127 21.2066L23.205 24.1892V24.6061L22.6281 25.6003L18.0127 22.9705V21.2066Z" fill="#C29D2E"/>
<path id="Path 98" d="M18.0127 19.4748L23.205 22.4574V24.1892L18.0127 21.2066V19.4748Z" fill="#C19C2E"/>
<path id="Path 99" d="M18.0127 19.0579L18.5896 18.0316L23.205 20.6935V22.4574L18.0127 19.4748V19.0579Z" fill="#C09A2E"/>
<path id="Path 100" d="M18.5898 18.0316L19.0065 17.326H20.3847L23.2052 18.9616V20.6935L18.5898 18.0316Z" fill="#BF992E"/>
<path id="Path 101" d="M23.2053 18.9616L20.3848 17.326H23.2053V18.9616Z" fill="#BE982E"/>
<path id="Path 102" d="M12.2114 17.8392L14.6153 19.2503H12.2114V17.8392Z" fill="#C29D2E"/>
<path id="Path 103" d="M12.2114 16.1074L17.6601 19.2503H14.6153L12.2114 17.8392V16.1074Z" fill="#C19C2E"/>
<path id="Path 104" d="M12.2114 14.9528L12.4678 14.5038L20.673 19.2503H17.6601L12.2114 16.1074V14.9528Z" fill="#C09A2E"/>
<path id="Path 105" d="M12.4678 14.5039L13.205 13.2531H13.3332L22.1152 18.3203L21.6024 19.2503H20.6729L12.4678 14.5039Z" fill="#BF992E"/>
<path id="Path 106" d="M16.3463 13.2531L22.5643 16.845V17.5185L22.1155 18.3203L13.3335 13.2531H16.3463Z" fill="#BE982E"/>
<path id="Path 107" d="M19.3911 13.2531L22.5641 15.1132V16.845L16.3462 13.2531H19.3911Z" fill="#BD972E"/>
<path id="Path 108" d="M22.4039 13.2531L22.5642 13.3493V15.1132L19.3911 13.2531H22.4039Z" fill="#BC962E"/>
<path id="Path 109" d="M22.5652 13.3493L22.4038 13.2531H22.5652V13.3493Z" fill="#BA952E"/>
<path id="Path 110" d="M18.0127 14.2152L20.2883 15.5301H18.0127V14.2152Z" fill="#BE982E"/>
<path id="Path 111" d="M18.0127 12.4834L23.3012 15.5301H20.2883L18.0127 14.2152V12.4834Z" fill="#BD972E"/>
<path id="Path 112" d="M18.0127 10.7195L26.2499 15.466L26.2178 15.5301H23.3012L18.0127 12.4834V10.7195Z" fill="#BC962E"/>
<path id="Path 113" d="M18.0127 8.98773L26.314 13.7662V15.3698L26.2499 15.466L18.0127 10.7195V8.98773Z" fill="#BA952E"/>
<path id="Path 114" d="M18.0127 8.02559L18.2691 7.5766H18.6217L26.314 12.0344V13.7662L18.0127 8.9877V8.02559Z" fill="#B9942E"/>
<path id="Path 115" d="M21.6665 7.5766L26.3139 10.2705V12.0344L18.6216 7.5766H21.6665Z" fill="#B8932E"/>
<path id="Path 116" d="M24.6793 7.5766L26.3139 8.53872V10.2705L21.6665 7.5766H24.6793Z" fill="#B7922E"/>
<path id="Path 117" d="M26.3143 8.53872L24.6797 7.5766H26.3143V8.53872Z" fill="#B6912E"/>
<path id="Path 118" d="M31.186 14.8246L32.2758 15.466H31.186V14.8246Z" fill="#B9942E"/>
<path id="Path 119" d="M31.186 13.0928L33.5258 14.4397V15.3698L33.4937 15.466H32.2758L31.186 14.8246V13.0928Z" fill="#B8932E"/>
<path id="Path 120" d="M31.186 11.4572L31.2181 11.361H31.2501L33.5258 12.7079V14.4397L31.186 13.0928V11.4572Z" fill="#B7922E"/>
<path id="Path 121" d="M33.5256 12.7079L31.25 11.361H33.5256V12.7079Z" fill="#B6912E"/>
<path id="Path 122" d="M0 30.026L17.2115 39.9679H0V30.026Z" fill="#CFA92E"/>
<path id="Path 123" d="M0 28.2621L20.2564 39.9679H17.2115L0 30.026V28.2621Z" fill="#CFA92E"/>
<path id="Path 124" d="M0 26.5303L23.2692 39.9679H20.2564L0 28.2621V26.5303Z" fill="#CEA82E"/>
<path id="Path 125" d="M0 24.7664L26.2821 39.9679H23.2692L0 26.5303V24.7664Z" fill="#CDA62E"/>
<path id="Path 126" d="M0 23.0346L29.3269 39.9679H26.282L0 24.7664V23.0346Z" fill="#CBA52E"/>
<path id="Path 127" d="M0 21.2708L30.3526 38.8133L29.7115 39.9679H29.3269L0 23.0346V21.2708Z" fill="#CAA42E"/>
<path id="Path 128" d="M0 19.5389L31.1218 37.4985L30.3526 38.8133L0 21.2708V19.5389Z" fill="#C9A32E"/>
<path id="Path 129" d="M0 17.775L31.859 36.2156L31.1218 37.4984L0 19.5389V17.775Z" fill="#C7A12E"/>
<path id="Path 130" d="M0 16.0432L32.6282 34.9007L31.859 36.2156L0 17.775V16.0432Z" fill="#C6A02E"/>
<path id="Path 131" d="M0 14.2794L33.3974 33.5858L32.6282 34.9007L0 16.0432V14.2794Z" fill="#C59F2E"/>
<path id="Path 132" d="M0 12.5475L34.1346 32.2709L33.3974 33.5858L0 14.2794V12.5475Z" fill="#C49E2E"/>
<path id="Path 133" d="M0 10.7837L34.7756 30.8919V31.1485L34.1346 32.271L0 12.5476V10.7837Z" fill="#C29D2E"/>
<path id="Path 134" d="M0 9.05188L34.7756 29.1601V30.8919L0 10.7837V9.05188Z" fill="#C19C2E"/>
<path id="Path 135" d="M0 8.79532L0.641026 7.67285L34.7756 27.3962V29.1601L0 9.05189V8.79532Z" fill="#C09A2E"/>
<path id="Path 136" d="M0.641113 7.6728L1.41034 6.35791L34.7757 25.6644V27.3962L0.641113 7.6728Z" fill="#BF992E"/>
<path id="Path 137" d="M1.41016 6.35792L2.14734 5.04303L34.7755 23.9005V25.6644L1.41016 6.35792Z" fill="#BE982E"/>
<path id="Path 138" d="M2.14746 5.04304L2.91669 3.72815L34.7757 22.1687V23.9005L2.14746 5.04304Z" fill="#BD972E"/>
<path id="Path 139" d="M2.9165 3.72813L3.65368 2.44531L34.7755 20.4048V22.1687L2.9165 3.72813Z" fill="#BC962E"/>
<path id="Path 140" d="M3.65381 2.44533L4.42304 1.13043L34.7756 18.673V20.4048L3.65381 2.44533Z" fill="#BA952E"/>
<path id="Path 141" d="M4.42285 1.13043L5.09593 -0.0241089H5.41644L34.7754 16.9091V18.673L4.42285 1.13043Z" fill="#B9942E"/>
<path id="Path 142" d="M8.42932 -0.0241089L34.7755 15.1773V16.9091L5.4165 -0.0241089H8.42932Z" fill="#B8932E"/>
<path id="Path 143" d="M11.4746 -0.0241089L34.7758 13.4135V15.1773L8.42969 -0.0241089H11.4746Z" fill="#B7922E"/>
<path id="Path 144" d="M14.4869 -0.0241089L34.7754 11.6816V13.4135L11.4741 -0.0241089H14.4869Z" fill="#B6912E"/>
<path id="Path 145" d="M17.5001 -0.0241089L34.7758 9.91776V11.6816L14.4873 -0.0241089H17.5001Z" fill="#B5902E"/>
<path id="Path 146" d="M34.7756 9.91776L17.5 -0.0241089H34.7756V9.91776Z" fill="#B5902E"/>
</g>
</g>
</g>
</g>
</g>
</g>
<defs>
<clipPath id="clip0_6571_18524">
<rect width="193.333" height="40" fill="white"/>
</clipPath>
</defs>
</svg>
