<svg width="18" height="18" viewBox="0 0 18 18" fill="none" xmlns="http://www.w3.org/2000/svg">
<g id="Arrow_Icon" clip-path="url(#clip0_7255_25387)">
<g id="Group">
<g id="Group_2">
<path id="Vector" d="M0.028532 8.03124L4.81605 3.26676C5.17465 2.9099 5.75467 2.91123 6.11162 3.26987C6.46852 3.62847 6.46715 4.20849 6.10855 4.56539L2.89476 7.76361H17.0839C17.5899 7.76361 18 8.17374 18 8.67969C18 9.18564 17.5899 9.59577 17.0839 9.59577H2.89481L6.1085 12.794C6.4671 13.1509 6.46848 13.7309 6.11157 14.0895C5.75462 14.4482 5.17456 14.4494 4.81601 14.0926L0.0293102 9.329C-0.329473 8.97091 -0.329151 8.38815 0.028532 8.03124Z" fill="#A9A7B0" fill-opacity="0.8"/>
</g>
</g>
</g>
<defs>
<clipPath id="clip0_7255_25387">
<rect width="18" height="18" fill="white" transform="matrix(-1 0 0 1 18 0)"/>
</clipPath>
</defs>
</svg>
