<svg width="156" height="50" viewBox="0 0 156 50" fill="none" xmlns="http://www.w3.org/2000/svg">
<g clip-path="url(#clip0_8239_34510)">
<path d="M23 40C31.2843 40 38 33.2843 38 25C38 16.7157 31.2843 10 23 10C14.7157 10 8 16.7157 8 25C8 33.2843 14.7157 40 23 40Z" fill="#FF0420"/>
<path d="M18.626 28.9839C17.732 28.9839 17 28.7739 16.43 28.3539C15.866 27.9279 15.584 27.3159 15.584 26.5299C15.584 26.3619 15.602 26.1639 15.638 25.9239C15.734 25.3839 15.872 24.7359 16.052 23.9739C16.562 21.9099 17.882 20.8779 20.006 20.8779C20.582 20.8779 21.104 20.9739 21.56 21.1719C22.016 21.3579 22.376 21.6459 22.64 22.0299C22.904 22.4079 23.036 22.8579 23.036 23.3799C23.036 23.5359 23.018 23.7339 22.982 23.9739C22.868 24.6399 22.736 25.2939 22.574 25.9239C22.31 26.9499 21.86 27.7239 21.212 28.2339C20.57 28.7379 19.706 28.9839 18.626 28.9839ZM18.788 27.3639C19.208 27.3639 19.562 27.2379 19.856 26.9919C20.156 26.7459 20.372 26.3679 20.498 25.8519C20.672 25.1439 20.804 24.5319 20.894 24.0039C20.924 23.8479 20.942 23.6859 20.942 23.5179C20.942 22.8339 20.588 22.4919 19.874 22.4919C19.454 22.4919 19.094 22.6179 18.794 22.8639C18.5 23.1099 18.29 23.4879 18.164 24.0039C18.026 24.5079 17.894 25.1199 17.756 25.8519C17.726 26.0019 17.708 26.1579 17.708 26.3259C17.702 27.0219 18.068 27.3639 18.788 27.3639Z" fill="white"/>
<path d="M23.5587 28.8762C23.4747 28.8762 23.4147 28.8522 23.3667 28.7982C23.3307 28.7382 23.3187 28.6722 23.3307 28.5942L24.8847 21.2742C24.8967 21.1902 24.9387 21.1242 25.0107 21.0702C25.0767 21.0162 25.1487 20.9922 25.2267 20.9922H28.2207C29.0547 20.9922 29.7207 21.1662 30.2247 21.5082C30.7347 21.8562 30.9927 22.3542 30.9927 23.0082C30.9927 23.1942 30.9687 23.3922 30.9267 23.5962C30.7407 24.4602 30.3627 25.0962 29.7867 25.5102C29.2227 25.9242 28.4487 26.1282 27.4647 26.1282H25.9467L25.4307 28.5942C25.4127 28.6782 25.3767 28.7442 25.3047 28.7982C25.2387 28.8522 25.1667 28.8762 25.0887 28.8762H23.5587ZM27.5427 24.5742C27.8607 24.5742 28.1307 24.4902 28.3647 24.3162C28.6047 24.1422 28.7607 23.8962 28.8387 23.5722C28.8627 23.4462 28.8747 23.3322 28.8747 23.2362C28.8747 23.0202 28.8087 22.8522 28.6827 22.7382C28.5567 22.6182 28.3347 22.5582 28.0287 22.5582H26.6787L26.2527 24.5742H27.5427Z" fill="white"/>
</g>
<g clip-path="url(#clip1_8239_34510)">
<path d="M48.3019 32C46.744 32 45.4677 31.6371 44.4727 30.9111C43.4909 30.1722 43 29.1222 43 27.7611C43 27.4759 43.0327 27.1259 43.0982 26.7111C43.2684 25.7778 43.5105 24.6565 43.8247 23.3472C44.7149 19.7824 47.0124 18 50.7171 18C51.7251 18 52.6284 18.1685 53.427 18.5056C54.2256 18.8296 54.8539 19.3222 55.3121 19.9833C55.7702 20.6315 55.9993 21.4093 55.9993 22.3167C55.9993 22.5889 55.9667 22.9324 55.9012 23.3472C55.7048 24.5009 55.4692 25.6222 55.1943 26.7111C54.7361 28.487 53.9441 29.8157 52.8183 30.6972C51.6924 31.5657 50.187 32 48.3019 32ZM48.5768 29.2C49.3099 29.2 49.9317 28.9861 50.4423 28.5583C50.9659 28.1305 51.339 27.4759 51.5615 26.5945C51.8626 25.3759 52.0917 24.313 52.2488 23.4056C52.3012 23.1333 52.3274 22.8546 52.3274 22.5694C52.3274 21.3898 51.7055 20.8 50.4619 20.8C49.7288 20.8 49.1004 21.0139 48.5768 21.4417C48.0662 21.8694 47.6997 22.5241 47.4771 23.4056C47.2415 24.2741 47.0058 25.337 46.7702 26.5945C46.7178 26.8537 46.6917 27.1259 46.6917 27.4111C46.6917 28.6037 47.32 29.2 48.5768 29.2Z" fill="black"/>
<path d="M57.9919 31.8054C57.8478 31.8054 57.7366 31.7601 57.658 31.6694C57.5926 31.5656 57.5729 31.449 57.5991 31.3194L60.3089 18.6804C60.3351 18.5379 60.4072 18.4212 60.525 18.3304C60.6428 18.2397 60.7672 18.1943 60.8981 18.1943H66.1213C67.5745 18.1943 68.7395 18.4925 69.6166 19.0888C70.5068 19.6851 70.952 20.5471 70.952 21.6749C70.952 21.999 70.9127 22.336 70.8341 22.686C70.5068 24.1767 69.8457 25.2786 68.8508 25.9916C67.869 26.7045 66.5206 27.061 64.8057 27.061H62.1548L61.2515 31.3194C61.2253 31.4619 61.1533 31.5786 61.0355 31.6694C60.9177 31.7601 60.7933 31.8054 60.6624 31.8054H57.9919ZM64.9432 24.3777C65.493 24.3777 65.9708 24.2286 66.3766 23.9304C66.7956 23.6323 67.0705 23.2045 67.2014 22.6471C67.2406 22.4267 67.2603 22.2323 67.2603 22.0638C67.2603 21.6879 67.149 21.4027 66.9265 21.2082C66.7039 21.0008 66.3243 20.8971 65.7876 20.8971H63.4312L62.685 24.3777H64.9432Z" fill="black"/>
<path d="M75.3761 31.8054C75.2321 31.8054 75.1208 31.7601 75.0423 31.6694C74.9637 31.5656 74.9375 31.449 74.9637 31.3194L77.1434 21.2471H73.6481C73.5041 21.2471 73.3928 21.2017 73.3142 21.111C73.2488 21.0073 73.2292 20.8906 73.2554 20.761L73.707 18.6804C73.7332 18.5379 73.8051 18.4212 73.923 18.3304C74.0408 18.2397 74.1652 18.1943 74.2961 18.1943H84.8605C85.0045 18.1943 85.1157 18.2397 85.1944 18.3304C85.2467 18.4082 85.2729 18.486 85.2729 18.5638C85.2729 18.6027 85.2663 18.6416 85.2532 18.6804L84.8016 20.761C84.7754 20.9036 84.7034 21.0203 84.5856 21.111C84.4808 21.2017 84.3565 21.2471 84.2125 21.2471H80.7368L78.5572 31.3194C78.531 31.4619 78.459 31.5786 78.3412 31.6694C78.2233 31.7601 78.099 31.8054 77.9681 31.8054H75.3761Z" fill="black"/>
<path d="M85.7737 31.8054C85.6298 31.8054 85.5185 31.7601 85.44 31.6694C85.3614 31.5656 85.3352 31.449 85.3614 31.3194L88.0909 18.6804C88.1171 18.5379 88.1891 18.4212 88.3069 18.3304C88.4247 18.2397 88.549 18.1943 88.68 18.1943H91.3309C91.4749 18.1943 91.5862 18.2397 91.6647 18.3304C91.7171 18.4082 91.7433 18.486 91.7433 18.5638C91.7433 18.6027 91.7367 18.6416 91.7236 18.6804L89.0138 31.3194C88.9876 31.4619 88.9156 31.5786 88.7978 31.6694C88.68 31.7601 88.5556 31.8054 88.4247 31.8054H85.7737Z" fill="black"/>
<path d="M93.2503 31.8054C93.1063 31.8054 92.995 31.7601 92.9165 31.6694C92.8379 31.5786 92.8118 31.4619 92.8379 31.3194L95.5478 18.6804C95.574 18.5379 95.6459 18.4212 95.7637 18.3304C95.8816 18.2397 96.0125 18.1943 96.1565 18.1943H98.2772C98.5915 18.1943 98.7943 18.3369 98.8859 18.6221L101.026 24.7471L105.798 18.6221C105.863 18.5184 105.955 18.4212 106.073 18.3304C106.204 18.2397 106.361 18.1943 106.544 18.1943H108.685C108.829 18.1943 108.94 18.2397 109.018 18.3304C109.071 18.4082 109.097 18.486 109.097 18.5638C109.097 18.6027 109.09 18.6416 109.077 18.6804L106.367 31.3194C106.341 31.4619 106.269 31.5786 106.151 31.6694C106.034 31.7601 105.909 31.8054 105.778 31.8054H103.402C103.258 31.8054 103.147 31.7601 103.069 31.6694C103.003 31.5656 102.983 31.449 103.01 31.3194L104.541 24.1443L101.537 28.0916C101.406 28.2342 101.282 28.3444 101.164 28.4221C101.046 28.4999 100.909 28.5388 100.751 28.5388H99.7304C99.4555 28.5388 99.2656 28.3897 99.1609 28.0916L97.7667 23.9693L96.1958 31.3194C96.1696 31.4619 96.0976 31.5786 95.9798 31.6694C95.8619 31.7601 95.7376 31.8054 95.6067 31.8054H93.2503Z" fill="black"/>
<path d="M110.584 31.8054C110.44 31.8054 110.329 31.7601 110.25 31.6694C110.172 31.5656 110.146 31.449 110.172 31.3194L112.901 18.6804C112.928 18.5379 113 18.4212 113.117 18.3304C113.235 18.2397 113.36 18.1943 113.49 18.1943H116.141C116.286 18.1943 116.397 18.2397 116.475 18.3304C116.528 18.4082 116.554 18.486 116.554 18.5638C116.554 18.6027 116.547 18.6416 116.534 18.6804L113.824 31.3194C113.798 31.4619 113.726 31.5786 113.608 31.6694C113.49 31.7601 113.366 31.8054 113.235 31.8054H110.584Z" fill="black"/>
<path d="M122.91 32C121.758 32 120.77 31.8445 119.945 31.5333C119.133 31.2222 118.518 30.8074 118.099 30.2889C117.693 29.7704 117.49 29.1935 117.49 28.5583C117.49 28.4546 117.504 28.2991 117.529 28.0917C117.556 27.975 117.609 27.8778 117.687 27.8C117.779 27.7222 117.883 27.6833 118.001 27.6833H120.514C120.672 27.6833 120.789 27.7093 120.868 27.7611C120.959 27.8129 121.051 27.9037 121.143 28.0333C121.235 28.3704 121.444 28.6491 121.771 28.8695C122.112 29.0898 122.576 29.2 123.165 29.2C123.911 29.2 124.514 29.0833 124.972 28.85C125.43 28.6167 125.705 28.2991 125.796 27.8972C125.81 27.8454 125.816 27.7676 125.816 27.6639C125.816 27.3398 125.614 27.0871 125.208 26.9055C124.802 26.7111 124.056 26.4843 122.969 26.225C121.699 25.9528 120.737 25.5445 120.082 25C119.428 24.4426 119.101 23.7167 119.101 22.8222C119.101 22.5111 119.14 22.1935 119.219 21.8694C119.48 20.6639 120.129 19.7176 121.162 19.0306C122.21 18.3435 123.558 18 125.208 18C126.202 18 127.087 18.175 127.859 18.525C128.631 18.875 129.226 19.3222 129.646 19.8667C130.078 20.3982 130.293 20.9296 130.293 21.4611C130.293 21.6167 130.287 21.7268 130.274 21.7917C130.248 21.9083 130.189 22.0056 130.097 22.0833C130.019 22.1611 129.92 22.2 129.803 22.2H127.171C126.884 22.2 126.687 22.0898 126.583 21.8694C126.569 21.5713 126.412 21.3185 126.111 21.1111C125.81 20.9037 125.417 20.8 124.933 20.8C124.357 20.8 123.879 20.9037 123.499 21.1111C123.133 21.3185 122.903 21.6232 122.812 22.025C122.799 22.0898 122.792 22.1741 122.792 22.2778C122.792 22.5889 122.975 22.8482 123.342 23.0556C123.722 23.25 124.383 23.4509 125.325 23.6583C126.792 23.9435 127.859 24.3518 128.526 24.8833C129.207 25.4148 129.547 26.1213 129.547 27.0028C129.547 27.3009 129.508 27.625 129.429 27.975C129.142 29.2972 128.441 30.3019 127.328 30.9889C126.229 31.6629 124.756 32 122.91 32Z" fill="black"/>
<path d="M132.153 31.8054C132.009 31.8054 131.897 31.7601 131.819 31.6694C131.74 31.5786 131.714 31.4619 131.74 31.3194L134.45 18.6804C134.476 18.5379 134.548 18.4212 134.666 18.3304C134.784 18.2397 134.915 18.1943 135.059 18.1943H137.179C137.494 18.1943 137.697 18.3369 137.788 18.6221L139.929 24.7471L144.7 18.6221C144.766 18.5184 144.858 18.4212 144.975 18.3304C145.106 18.2397 145.263 18.1943 145.446 18.1943H147.587C147.731 18.1943 147.843 18.2397 147.921 18.3304C147.973 18.4082 147.999 18.486 147.999 18.5638C147.999 18.6027 147.993 18.6416 147.98 18.6804L145.27 31.3194C145.243 31.4619 145.171 31.5786 145.054 31.6694C144.936 31.7601 144.812 31.8054 144.681 31.8054H142.305C142.161 31.8054 142.049 31.7601 141.971 31.6694C141.905 31.5656 141.886 31.449 141.912 31.3194L143.444 24.1443L140.439 28.0916C140.308 28.2342 140.184 28.3444 140.066 28.4221C139.949 28.4999 139.811 28.5388 139.654 28.5388H138.633C138.358 28.5388 138.168 28.3897 138.064 28.0916L136.669 23.9693L135.098 31.3194C135.072 31.4619 135 31.5786 134.882 31.6694C134.764 31.7601 134.64 31.8054 134.509 31.8054H132.153Z" fill="black"/>
</g>
<defs>
<clipPath id="clip0_8239_34510">
<rect width="30" height="30" fill="white" transform="translate(8 10)"/>
</clipPath>
<clipPath id="clip1_8239_34510">
<rect width="105" height="14" fill="white" transform="translate(43 18)"/>
</clipPath>
</defs>
</svg>
