<svg width="14" height="15" viewBox="0 0 14 15" fill="none" xmlns="http://www.w3.org/2000/svg">
<g clip-path="url(#clip0_9304_14216)">
<path d="M11.0833 1.66667H10.5V1.08333C10.5 0.761333 10.2387 0.5 9.91667 0.5C9.59467 0.5 9.33333 0.761333 9.33333 1.08333V1.66667H4.66667V1.08333C4.66667 0.761333 4.40533 0.5 4.08333 0.5C3.76133 0.5 3.5 0.761333 3.5 1.08333V1.66667H2.91667C1.30842 1.66667 0 2.97508 0 4.58333V11.5833C0 13.1916 1.30842 14.5 2.91667 14.5H11.0833C12.6916 14.5 14 13.1916 14 11.5833V4.58333C14 2.97508 12.6916 1.66667 11.0833 1.66667ZM2.91667 2.83333H11.0833C12.0482 2.83333 12.8333 3.6185 12.8333 4.58333V5.16667H1.16667V4.58333C1.16667 3.6185 1.95183 2.83333 2.91667 2.83333ZM11.0833 13.3333H2.91667C1.95183 13.3333 1.16667 12.5482 1.16667 11.5833V6.33333H12.8333V11.5833C12.8333 12.5482 12.0482 13.3333 11.0833 13.3333Z" fill="#5B5A5F"/>
</g>
<defs>
<clipPath id="clip0_9304_14216">
<rect width="14" height="14" fill="white" transform="translate(0 0.5)"/>
</clipPath>
</defs>
</svg>
