<svg width="16" height="16" viewBox="0 0 16 16" fill="none" xmlns="http://www.w3.org/2000/svg">
<g clip-path="url(#clip0_9062_11148)">
<path d="M11.41 5.36654C11.2188 5.41732 11.047 5.52364 10.9163 5.67205C10.7856 5.82046 10.7018 6.00429 10.6756 6.20031C10.6493 6.39633 10.6818 6.59573 10.7689 6.7733C10.856 6.95086 10.9937 7.09862 11.1648 7.1979C11.3358 7.29717 11.5325 7.34349 11.7298 7.33102C11.9272 7.31854 12.1165 7.24781 12.2736 7.12779C12.4308 7.00777 12.5489 6.84383 12.6129 6.65671C12.6769 6.46959 12.684 6.26769 12.6333 6.07654C12.5996 5.94958 12.5412 5.83051 12.4615 5.72611C12.3818 5.62172 12.2823 5.53405 12.1687 5.46812C12.0551 5.40219 11.9296 5.35928 11.7994 5.34185C11.6693 5.32442 11.5369 5.33281 11.41 5.36654Z" fill="white"/>
<path d="M8.07672 3.36654C7.88558 3.41732 7.71379 3.52364 7.58308 3.67205C7.45236 3.82046 7.36858 4.00429 7.34234 4.20031C7.3161 4.39633 7.34857 4.59573 7.43564 4.7733C7.52271 4.95086 7.66049 5.09862 7.83153 5.1979C8.00258 5.29717 8.19922 5.34349 8.39659 5.33102C8.59397 5.31854 8.78321 5.24781 8.94039 5.12779C9.09757 5.00777 9.21564 4.84383 9.27966 4.65671C9.34367 4.46959 9.35077 4.26769 9.30005 4.07654C9.26636 3.94958 9.20799 3.83051 9.12828 3.72611C9.04856 3.62172 8.94906 3.53405 8.83546 3.46812C8.72186 3.40219 8.59638 3.35928 8.46619 3.34185C8.33601 3.32442 8.20366 3.33281 8.07672 3.36654Z" fill="white"/>
<path d="M4.74334 5.36654C4.55221 5.41732 4.38042 5.52364 4.2497 5.67205C4.11899 5.82046 4.03521 6.00429 4.00897 6.20031C3.98272 6.39633 4.01519 6.59573 4.10227 6.7733C4.18934 6.95086 4.32711 7.09862 4.49816 7.1979C4.6692 7.29717 4.86585 7.34349 5.06322 7.33102C5.26059 7.31854 5.44984 7.24781 5.60702 7.12779C5.7642 7.00777 5.88226 6.84383 5.94628 6.65671C6.0103 6.46959 6.0174 6.26769 5.96667 6.07654C5.93299 5.94958 5.87462 5.83051 5.7949 5.72611C5.71519 5.62172 5.61569 5.53405 5.50209 5.46812C5.38849 5.40219 5.26301 5.35928 5.13282 5.34185C5.00263 5.32442 4.87029 5.33281 4.74334 5.36654Z" fill="white"/>
<path d="M4.74334 9.36654C4.55221 9.41732 4.38042 9.52364 4.2497 9.67205C4.11899 9.82046 4.03521 10.0043 4.00897 10.2003C3.98272 10.3963 4.01519 10.5957 4.10227 10.7733C4.18934 10.9509 4.32711 11.0986 4.49816 11.1979C4.6692 11.2972 4.86585 11.3435 5.06322 11.331C5.26059 11.3185 5.44984 11.2478 5.60702 11.1278C5.7642 11.0078 5.88226 10.8438 5.94628 10.6567C6.0103 10.4696 6.0174 10.2677 5.96667 10.0765C5.93299 9.94958 5.87462 9.83051 5.7949 9.72611C5.71519 9.62172 5.61569 9.53405 5.50209 9.46812C5.38849 9.40219 5.26301 9.35928 5.13282 9.34185C5.00263 9.32442 4.87029 9.33281 4.74334 9.36654Z" fill="white"/>
<path d="M8.3333 0.00483199C7.25996 -0.0324892 6.19009 0.146692 5.18748 0.531693C4.18487 0.916695 3.27004 1.49963 2.49754 2.24575C1.72504 2.99188 1.11068 3.88591 0.691094 4.87454C0.271505 5.86318 0.0552757 6.92618 0.0552979 8.00017C0.057768 10.1211 0.901416 12.1545 2.40117 13.6543C3.90093 15.154 5.93432 15.9977 8.0553 16.0002C8.28063 16.0002 8.50196 15.9855 8.72196 15.9668C8.8889 15.9528 9.04441 15.8764 9.15757 15.7528C9.27072 15.6293 9.33322 15.4677 9.33263 15.3002L9.3113 12.9082C9.3059 12.4355 9.4415 11.9719 9.70079 11.5767C9.96008 11.1814 10.3313 10.8724 10.767 10.6891C11.2027 10.5058 11.6832 10.4565 12.1471 10.5475C12.611 10.6386 13.0372 10.8658 13.3713 11.2002L13.438 11.2668C13.5893 11.4195 13.7768 11.5314 13.983 11.5921C14.1892 11.6528 14.4074 11.6604 14.6173 11.6142C14.8238 11.5708 15.0161 11.4762 15.1766 11.3391C15.337 11.202 15.4603 11.0268 15.5353 10.8295C15.9034 9.86303 16.0793 8.83402 16.0533 7.80017C15.9783 5.76951 15.143 3.84115 13.7132 2.39732C12.2833 0.953488 10.3631 0.0995736 8.3333 0.00483199ZM14.3213 10.2715L14.312 10.2622C13.7909 9.74193 13.1268 9.38846 12.4042 9.24673C11.6816 9.10499 10.9332 9.1814 10.2542 9.46623C9.57521 9.75106 8.99626 10.2314 8.59104 10.8463C8.18582 11.4611 7.97265 12.1825 7.97863 12.9188L7.99463 14.6668C6.22652 14.6589 4.53399 13.9489 3.28937 12.693C2.04476 11.4371 1.35001 9.73828 1.35796 7.97017C1.36592 6.20206 2.07593 4.50952 3.3318 3.26491C4.58767 2.02029 6.28652 1.32554 8.05463 1.3335C8.13263 1.3335 8.2113 1.3335 8.28996 1.3375C9.98089 1.41692 11.5803 2.12866 12.7712 3.33168C13.9621 4.53469 14.6576 6.14119 14.72 7.83283C14.742 8.66189 14.6074 9.48766 14.3233 10.2668L14.3213 10.2715Z" fill="white"/>
</g>
<defs>
<clipPath id="clip0_9062_11148">
<rect width="16" height="16" fill="white"/>
</clipPath>
</defs>
</svg>
