<svg width="40" height="40" viewBox="0 0 40 40" fill="none" xmlns="http://www.w3.org/2000/svg">
<rect x="0.5" y="0.5" width="39" height="39" rx="9.5" fill="white"/>
<rect x="0.5" y="0.5" width="39" height="39" rx="9.5" stroke="#BFC0C2"/>
<g clip-path="url(#clip0_9304_14240)">
<path d="M27.5 13.3333H24.9166C24.7232 12.3928 24.2115 11.5478 23.4677 10.9406C22.7239 10.3334 21.7935 10.0012 20.8333 10L19.1666 10C18.2065 10.0012 17.2761 10.3334 16.5323 10.9406C15.7884 11.5478 15.2767 12.3928 15.0833 13.3333H12.5C12.2789 13.3333 12.067 13.4211 11.9107 13.5774C11.7544 13.7337 11.6666 13.9457 11.6666 14.1667C11.6666 14.3877 11.7544 14.5996 11.9107 14.7559C12.067 14.9122 12.2789 15 12.5 15H13.3333V25.8333C13.3346 26.938 13.774 27.997 14.5551 28.7782C15.3363 29.5593 16.3953 29.9987 17.5 30H22.5C23.6046 29.9987 24.6637 29.5593 25.4448 28.7782C26.2259 27.997 26.6653 26.938 26.6666 25.8333V15H27.5C27.721 15 27.9329 14.9122 28.0892 14.7559C28.2455 14.5996 28.3333 14.3877 28.3333 14.1667C28.3333 13.9457 28.2455 13.7337 28.0892 13.5774C27.9329 13.4211 27.721 13.3333 27.5 13.3333ZM19.1666 11.6667H20.8333C21.3502 11.6673 21.8542 11.8278 22.2763 12.1262C22.6984 12.4246 23.0178 12.8462 23.1908 13.3333H16.8091C16.9821 12.8462 17.3015 12.4246 17.7236 12.1262C18.1457 11.8278 18.6497 11.6673 19.1666 11.6667ZM25 25.8333C25 26.4964 24.7366 27.1323 24.2677 27.6011C23.7989 28.0699 23.163 28.3333 22.5 28.3333H17.5C16.8369 28.3333 16.201 28.0699 15.7322 27.6011C15.2634 27.1323 15 26.4964 15 25.8333V15H25V25.8333Z" fill="#5B5A5F"/>
<path d="M18.3333 25.0002C18.5543 25.0002 18.7663 24.9124 18.9226 24.7561C19.0789 24.5998 19.1667 24.3878 19.1667 24.1668V19.1668C19.1667 18.9458 19.0789 18.7339 18.9226 18.5776C18.7663 18.4213 18.5543 18.3335 18.3333 18.3335C18.1123 18.3335 17.9004 18.4213 17.7441 18.5776C17.5878 18.7339 17.5 18.9458 17.5 19.1668V24.1668C17.5 24.3878 17.5878 24.5998 17.7441 24.7561C17.9004 24.9124 18.1123 25.0002 18.3333 25.0002Z" fill="#5B5A5F"/>
<path d="M21.6667 25.0002C21.8877 25.0002 22.0997 24.9124 22.256 24.7561C22.4122 24.5998 22.5 24.3878 22.5 24.1668V19.1668C22.5 18.9458 22.4122 18.7339 22.256 18.5776C22.0997 18.4213 21.8877 18.3335 21.6667 18.3335C21.4457 18.3335 21.2337 18.4213 21.0775 18.5776C20.9212 18.7339 20.8334 18.9458 20.8334 19.1668V24.1668C20.8334 24.3878 20.9212 24.5998 21.0775 24.7561C21.2337 24.9124 21.4457 25.0002 21.6667 25.0002Z" fill="#5B5A5F"/>
</g>
<defs>
<clipPath id="clip0_9304_14240">
<rect width="20" height="20" fill="white" transform="translate(10 10)"/>
</clipPath>
</defs>
</svg>
