<svg width="40" height="40" viewBox="0 0 40 40" fill="none" xmlns="http://www.w3.org/2000/svg">
<rect x="0.5" y="0.5" width="39" height="39" rx="9.5" fill="white"/>
<rect x="0.5" y="0.5" width="39" height="39" rx="9.5" stroke="#BFC0C2"/>
<g clip-path="url(#clip0_9304_14230)">
<path d="M29.0442 10.9566C28.4776 10.391 27.7098 10.0732 26.9092 10.0732C26.1086 10.0732 25.3407 10.391 24.7742 10.9566L11.2208 24.51C10.8327 24.8959 10.525 25.355 10.3154 25.8606C10.1059 26.3663 9.99867 26.9084 10 27.4558V29.1666C10 29.3876 10.0878 29.5996 10.2441 29.7559C10.4004 29.9122 10.6123 30 10.8333 30H12.5442C13.0915 30.0015 13.6337 29.8945 14.1393 29.6851C14.645 29.4756 15.1041 29.168 15.49 28.78L29.0442 15.2258C29.6096 14.6593 29.9271 13.8916 29.9271 13.0912C29.9271 12.2908 29.6096 11.5231 29.0442 10.9566ZM14.3117 27.6016C13.8417 28.0685 13.2066 28.3314 12.5442 28.3333H11.6667V27.4558C11.6658 27.1274 11.7301 26.8021 11.8559 26.4987C11.9816 26.1953 12.1663 25.9198 12.3992 25.6883L22.685 15.4025L24.6017 17.3191L14.3117 27.6016ZM27.865 14.0475L25.7767 16.1366L23.86 14.2241L25.9492 12.135C26.075 12.0094 26.2244 11.9098 26.3887 11.842C26.553 11.7741 26.7291 11.7393 26.9069 11.7395C27.0847 11.7397 27.2607 11.7749 27.4249 11.8431C27.5891 11.9113 27.7382 12.0112 27.8638 12.137C27.9893 12.2629 28.0889 12.4122 28.1568 12.5766C28.2246 12.7409 28.2594 12.917 28.2592 13.0948C28.2591 13.2726 28.2238 13.4486 28.1556 13.6127C28.0874 13.7769 27.9875 13.9261 27.8617 14.0516L27.865 14.0475Z" fill="#5B5A5F"/>
</g>
<defs>
<clipPath id="clip0_9304_14230">
<rect width="20" height="20" fill="white" transform="translate(10 10)"/>
</clipPath>
</defs>
</svg>
