<svg width="40" height="40" viewBox="0 0 40 40" fill="none" xmlns="http://www.w3.org/2000/svg">
<rect x="0.5" y="0.5" width="39" height="39" rx="9.5" fill="white"/>
<rect x="0.5" y="0.5" width="39" height="39" rx="9.5" stroke="#BFC0C2"/>
<g clip-path="url(#clip0_9304_14220)">
<path d="M29.3925 17.8491C28.1 15.7441 25.16 12.2124 20 12.2124C14.84 12.2124 11.9 15.7441 10.6075 17.8491C10.208 18.4953 9.99634 19.2401 9.99634 19.9999C9.99634 20.7597 10.208 21.5045 10.6075 22.1507C11.9 24.2557 14.84 27.7874 20 27.7874C25.16 27.7874 28.1 24.2557 29.3925 22.1507C29.7921 21.5045 30.0037 20.7597 30.0037 19.9999C30.0037 19.2401 29.7921 18.4953 29.3925 17.8491ZM27.9717 21.2782C26.8617 23.0832 24.3492 26.1207 20 26.1207C15.6509 26.1207 13.1384 23.0832 12.0284 21.2782C11.791 20.8941 11.6653 20.4515 11.6653 19.9999C11.6653 19.5483 11.791 19.1057 12.0284 18.7216C13.1384 16.9166 15.6509 13.8791 20 13.8791C24.3492 13.8791 26.8617 16.9132 27.9717 18.7216C28.2091 19.1057 28.3348 19.5483 28.3348 19.9999C28.3348 20.4515 28.2091 20.8941 27.9717 21.2782Z" fill="#5B5A5F"/>
<path d="M20 15.8335C19.176 15.8335 18.3704 16.0779 17.6852 16.5357C17 16.9935 16.4659 17.6443 16.1505 18.4056C15.8352 19.167 15.7527 20.0048 15.9134 20.813C16.0742 21.6213 16.471 22.3637 17.0538 22.9464C17.6365 23.5292 18.3789 23.926 19.1872 24.0868C19.9954 24.2475 20.8332 24.165 21.5946 23.8497C22.3559 23.5343 23.0067 23.0002 23.4645 22.315C23.9223 21.6298 24.1667 20.8243 24.1667 20.0002C24.1654 18.8955 23.726 17.8365 22.9449 17.0553C22.1637 16.2742 21.1047 15.8348 20 15.8335ZM20 22.5002C19.5056 22.5002 19.0222 22.3535 18.6111 22.0788C18.2 21.8041 17.8796 21.4137 17.6903 20.9569C17.5011 20.5001 17.4516 19.9974 17.5481 19.5124C17.6445 19.0275 17.8826 18.582 18.2323 18.2324C18.5819 17.8828 19.0274 17.6447 19.5123 17.5482C19.9973 17.4517 20.4999 17.5012 20.9568 17.6905C21.4136 17.8797 21.804 18.2001 22.0787 18.6112C22.3534 19.0224 22.5 19.5057 22.5 20.0002C22.5 20.6632 22.2367 21.2991 21.7678 21.7679C21.299 22.2368 20.6631 22.5002 20 22.5002Z" fill="#5B5A5F"/>
</g>
<defs>
<clipPath id="clip0_9304_14220">
<rect width="20" height="20" fill="white" transform="translate(10 10)"/>
</clipPath>
</defs>
</svg>
