<svg width="30" height="25" viewBox="0 0 30 25" fill="none" xmlns="http://www.w3.org/2000/svg">
<rect x="0.75" y="11.75" width="12.5" height="12.5" rx="1.25" stroke="white" stroke-width="1.5"/>
<rect x="16" y="11" width="14" height="14" rx="2" fill="white"/>
<path d="M6.28063 7.78784C6.16346 8.18513 6.39054 8.60219 6.78784 8.71937C7.18513 8.83654 7.60219 8.60946 7.71937 8.21216L6.28063 7.78784ZM22.6859 8.68038C23.062 8.85387 23.5076 8.68959 23.681 8.31346L26.5082 2.18405C26.6817 1.80791 26.5174 1.36236 26.1413 1.18887C25.7651 1.01538 25.3196 1.17966 25.1461 1.55579L22.6331 7.00416L17.1847 4.49114C16.8086 4.31766 16.363 4.48193 16.1895 4.85806C16.016 5.2342 16.1803 5.67975 16.5565 5.85324L22.6859 8.68038ZM7 8C7.71937 8.21216 7.7193 8.2124 7.71923 8.21261C7.71922 8.21264 7.71917 8.21283 7.71915 8.21289C7.71911 8.21303 7.7191 8.21307 7.71912 8.213C7.71916 8.21286 7.71933 8.2123 7.71962 8.21134C7.7202 8.20941 7.72128 8.20584 7.72287 8.20069C7.72604 8.19039 7.73123 8.17377 7.73848 8.15124C7.75299 8.10617 7.77573 8.03756 7.80706 7.94878C7.86976 7.77108 7.96657 7.51342 8.10027 7.20258C8.36859 6.57873 8.78067 5.75197 9.35623 4.93029C10.516 3.27457 12.2537 1.75 14.7419 1.75V0.25C11.5527 0.25 9.41949 2.22543 8.12764 4.06971C7.4774 4.99803 7.01851 5.92127 6.72232 6.60992C6.57375 6.95533 6.46491 7.24454 6.39254 7.44965C6.35633 7.55228 6.32917 7.63406 6.31066 7.69153C6.30141 7.72027 6.29431 7.74296 6.28933 7.75914C6.28683 7.76724 6.28487 7.77372 6.28342 7.77851C6.2827 7.78091 6.2821 7.7829 6.28164 7.78445C6.28141 7.78523 6.28121 7.7859 6.28104 7.78647C6.28096 7.78675 6.28085 7.78709 6.28081 7.78723C6.28072 7.78755 6.28063 7.78784 7 8ZM14.7419 1.75C17.2429 1.75 19.1136 3.28839 20.407 4.95883C21.0472 5.78571 21.5227 6.61688 21.8383 7.24318C21.9956 7.55539 22.112 7.81423 22.1882 7.99289C22.2263 8.08216 22.2543 8.15123 22.2723 8.19671C22.2813 8.21944 22.2877 8.23627 22.2918 8.24676C22.2938 8.25201 22.2951 8.25567 22.2959 8.25769C22.2963 8.2587 22.2965 8.2593 22.2966 8.25949C22.2966 8.25958 22.2966 8.25957 22.2966 8.25945C22.2965 8.25939 22.2965 8.25923 22.2965 8.2592C22.2964 8.25901 22.2963 8.25879 23 7.99934C23.7037 7.73988 23.7036 7.73961 23.7035 7.73931C23.7034 7.73918 23.7033 7.73885 23.7032 7.73858C23.703 7.73804 23.7028 7.73739 23.7025 7.73663C23.7019 7.73512 23.7012 7.73319 23.7003 7.73084C23.6986 7.72613 23.6961 7.71975 23.6931 7.71175C23.687 7.69576 23.6783 7.67328 23.667 7.64475C23.6444 7.58771 23.6114 7.50639 23.5679 7.40427C23.4808 7.20016 23.3512 6.91218 23.1778 6.5682C22.8321 5.88213 22.3076 4.96345 21.593 4.04051C20.1767 2.21128 17.9184 0.25 14.7419 0.25V1.75Z" fill="white"/>
</svg>
