<svg width="40" height="40" viewBox="0 0 40 40" fill="none" xmlns="http://www.w3.org/2000/svg">
<rect width="40" height="40" rx="10" fill="#CFA935"/>
<g clip-path="url(#clip0_9058_10634)">
<path d="M26.6108 17.818L14.6434 12.188C13.9674 11.8594 13.1708 11.9727 12.6114 12.4754C12.0508 12.98 11.8561 13.764 12.1148 14.472C12.1261 14.5007 15.0554 20.0027 15.0554 20.0027C15.0554 20.0027 12.1801 25.5034 12.1701 25.5314C11.9121 26.24 12.1088 27.0227 12.6694 27.5267C13.0168 27.838 13.4554 27.9987 13.8968 27.9987C14.1694 27.9987 14.4428 27.9374 14.6974 27.8127L26.6121 22.1874C27.4688 21.7854 28.0008 20.948 28.0001 20.002C28.0001 19.0554 27.4661 18.218 26.6108 17.818ZM13.3548 13.978C13.2734 13.7014 13.4468 13.518 13.5034 13.466C13.5628 13.4134 13.7794 13.25 14.0621 13.3887C14.0654 13.39 26.0448 19.0254 26.0448 19.0254C26.2041 19.1 26.3368 19.2054 26.4388 19.3334H16.2101L13.3548 13.978ZM26.0441 20.9807L14.1188 26.6114C13.8354 26.7507 13.6194 26.588 13.5601 26.534C13.5028 26.4834 13.3294 26.2987 13.4114 26.0214L16.2128 20.6667H26.4428C26.3408 20.7967 26.2054 20.9047 26.0441 20.9807Z" fill="white"/>
</g>
<defs>
<clipPath id="clip0_9058_10634">
<rect width="16" height="16" fill="white" transform="translate(12 12)"/>
</clipPath>
</defs>
</svg>
