<svg width="600" height="600" viewBox="0 0 600 600" fill="none" xmlns="http://www.w3.org/2000/svg">
<path d="M566.064 227.047C540.287 198.536 497.094 195.347 463.51 176.656C405.707 144.488 383.303 71.239 330.715 31.1072C297.513 5.7698 252.648 -4.05058 212.53 1.50438C155.578 9.38336 101.984 47.5596 85.8997 103.478C81.4359 118.995 79.6503 135.83 81.0249 153.657C83.604 187.029 90.7744 220.826 84.0008 253.603C76.5327 289.725 53.0375 320.235 38.9942 354.344C21.5074 396.814 19.0984 444.47 26.5806 489.789C31.6821 520.709 41.8567 551.928 63.0846 574.969C64.6859 576.712 66.3581 578.37 68.0586 580H299.907C314.447 561.45 325.472 539.5 338.268 520.029C370.464 471.012 422.017 436.081 478.318 419.685C503.542 412.345 530.864 407.98 551.128 391.259C571.987 374.055 581.567 346.621 585.705 319.923C590.721 287.585 588.015 251.336 566.064 227.061V227.047Z" fill="#92E3A9"/>
<path opacity="0.7" d="M566.064 227.047C540.287 198.536 497.094 195.347 463.51 176.656C405.707 144.488 383.303 71.239 330.715 31.1072C297.513 5.7698 252.648 -4.05058 212.53 1.50438C155.578 9.38336 101.984 47.5596 85.8997 103.478C81.4359 118.995 79.6503 135.83 81.0249 153.657C83.604 187.029 90.7744 220.826 84.0008 253.603C76.5327 289.725 53.0375 320.235 38.9942 354.344C21.5074 396.814 19.0984 444.47 26.5806 489.789C31.6821 520.709 41.8567 551.928 63.0846 574.969C64.6859 576.712 66.3581 578.37 68.0586 580H299.907C314.447 561.45 325.472 539.5 338.268 520.029C370.464 471.012 422.017 436.081 478.318 419.685C503.542 412.345 530.864 407.98 551.128 391.259C571.987 374.055 581.567 346.621 585.705 319.923C590.721 287.585 588.015 251.336 566.064 227.061V227.047Z" fill="white"/>
<path d="M33.8076 500.062L34.091 505.22L34.1335 506.042L34.7854 518.13L34.8988 520.426L35.4798 531.068L35.6782 534.837L36.1741 543.992L36.4434 549.221L36.8685 556.916L37.2228 563.618L37.5629 569.854C37.5629 569.854 37.6337 571.228 37.7188 572.844" stroke="#263238" stroke-linecap="round" stroke-linejoin="round"/>
<path d="M37.8604 575.281C37.9454 576.783 38.0021 578.016 38.0021 578.016L38.0587 579.192H104.534L104.676 576.599L105.002 570.491L105.37 563.661L105.767 556.122L106.065 550.737L106.546 541.71L106.759 537.813C106.759 537.813 106.872 535.73 107 533.42" stroke="#263238" stroke-linecap="round" stroke-linejoin="round"/>
<path d="M107.156 530.614C107.255 528.786 107.326 527.341 107.326 527.341L107.453 524.904L108.091 512.943L108.148 511.98C108.148 511.98 108.318 508.806 108.488 505.73" stroke="#263238" stroke-linecap="round" stroke-linejoin="round"/>
<path d="M108.615 503.123C108.714 501.38 108.785 500.062 108.785 500.062" stroke="#263238" stroke-linecap="round" stroke-linejoin="round"/>
<path d="M39.1784 579.192L38.0022 578.016" stroke="#263238" stroke-linecap="round" stroke-linejoin="round"/>
<path d="M52.7966 579.192L47.3125 573.708L40.5105 566.906L37.2229 563.618" stroke="#263238" stroke-linecap="round" stroke-linejoin="round"/>
<path d="M66.4291 579.192L60.945 573.708L54.1288 566.892L47.3268 560.09L40.5106 553.274L36.4436 549.221" stroke="#263238" stroke-linecap="round" stroke-linejoin="round"/>
<path d="M80.0328 579.192L74.5487 573.708L67.7467 566.906L65.947 565.106" stroke="#263238" stroke-linecap="round" stroke-linejoin="round"/>
<path d="M63.9772 563.151L60.9305 560.104L54.1285 553.302L47.3124 546.486L40.4962 539.669L38.7532 537.927" stroke="#263238" stroke-linecap="round" stroke-linejoin="round"/>
<path d="M93.6651 579.192L88.181 573.708L81.3648 566.892L74.5628 560.09L67.7467 553.274L60.9447 546.472L54.1285 539.655L47.3123 532.839L40.5103 526.037L34.8987 520.426" stroke="#263238" stroke-linecap="round" stroke-linejoin="round"/>
<path d="M104.676 576.599L101.785 573.708L94.9829 566.906C94.9829 566.906 94.1185 566.042 93.0132 564.936" stroke="#263238" stroke-linecap="round" stroke-linejoin="round"/>
<path d="M90.2073 562.145C89.0594 560.997 88.1667 560.104 88.1667 560.104L81.3647 553.302L74.5485 546.486L67.7465 539.67L60.9303 532.868L54.1284 526.051C54.1284 526.051 52.5837 524.521 50.9683 522.906" stroke="#263238" stroke-linecap="round" stroke-linejoin="round"/>
<path d="M47.3123 519.235L40.4961 512.419C40.4961 512.419 38.5972 510.506 36.8684 508.777" stroke="#263238" stroke-linecap="round" stroke-linejoin="round"/>
<path d="M41.7717 500.062L47.3125 505.603L54.1287 512.419L60.9307 519.221L67.7469 526.037L74.563 532.854L81.365 539.656L88.1812 546.472L94.9832 553.274L101.799 560.09L105.37 563.661" stroke="#263238" stroke-linecap="round" stroke-linejoin="round"/>
<path d="M55.3899 500.062L60.9449 505.617L67.7469 512.419L74.563 519.235L81.365 526.037L88.1812 532.854L94.9973 539.67L101.799 546.472L106.065 550.737" stroke="#263238" stroke-linecap="round" stroke-linejoin="round"/>
<path d="M69.0081 500.062L74.5488 505.603L81.365 512.419L88.1812 519.235L94.9832 526.037L101.799 532.854L106.759 537.813" stroke="#263238" stroke-linecap="round" stroke-linejoin="round"/>
<path d="M82.6262 500.062L88.1812 505.617L94.9832 512.419L101.799 519.235L107.454 524.89" stroke="#263238" stroke-linecap="round" stroke-linejoin="round"/>
<path d="M96.2444 500.062L101.799 505.617L108.148 511.966" stroke="#263238" stroke-linecap="round" stroke-linejoin="round"/>
<path d="M105.002 570.491L101.785 573.708L96.3008 579.192" stroke="#263238" stroke-linecap="round" stroke-linejoin="round"/>
<path d="M105.767 556.122L101.799 560.09L94.9829 566.906L88.1809 573.708L82.6968 579.192" stroke="#263238" stroke-linecap="round" stroke-linejoin="round"/>
<path d="M106.546 541.71L101.799 546.472L94.9829 553.274L88.1667 560.09L81.3647 566.892L74.5486 573.708L69.0645 579.192" stroke="#263238" stroke-linecap="round" stroke-linejoin="round"/>
<path d="M107.326 527.327L101.799 532.853L94.9973 539.669L88.1812 546.471C88.1812 546.471 87.7985 546.854 87.2034 547.449" stroke="#263238" stroke-linecap="round" stroke-linejoin="round"/>
<path d="M83.7455 550.907C82.4418 552.211 81.3648 553.288 81.3648 553.288L74.5628 560.09L67.7467 566.906L60.9447 573.708C60.9447 573.708 59.5984 575.054 58.238 576.414" stroke="#263238" stroke-linecap="round" stroke-linejoin="round"/>
<path d="M108.091 512.929L101.799 519.235L94.9829 526.037L88.1809 532.853L81.3647 539.655L74.5486 546.472L67.7466 553.274L60.9304 560.09L54.1284 566.892L47.3122 573.708L41.8281 579.192" stroke="#263238" stroke-linecap="round" stroke-linejoin="round"/>
<path d="M37.5627 569.853L40.5103 566.906L47.3264 560.09L54.1284 553.288L60.9446 546.472C60.9446 546.472 61.8657 545.55 63.0277 544.388" stroke="#263238" stroke-linecap="round" stroke-linejoin="round"/>
<path d="M66.0176 541.398C67.0095 540.406 67.7464 539.655 67.7464 539.655L74.5626 532.853L81.3646 526.037L88.1807 519.235L94.9827 512.419L101.799 505.617C101.799 505.617 103.145 504.271 104.506 502.91" stroke="#263238" stroke-linecap="round" stroke-linejoin="round"/>
<path d="M36.8684 556.916L40.5103 553.274L47.3123 546.472L54.1285 539.656L60.9305 532.854L67.7466 526.037L74.5628 519.235L81.3648 512.419L88.181 505.617L93.7218 500.062" stroke="#263238" stroke-linecap="round" stroke-linejoin="round"/>
<path d="M36.1738 543.992L40.4959 539.655L47.3121 532.839C47.3121 532.839 48.4883 531.663 49.8628 530.288" stroke="#263238" stroke-linecap="round" stroke-linejoin="round"/>
<path d="M51.7336 528.432C53.0374 527.129 54.1285 526.037 54.1285 526.037L60.9305 519.221L67.7467 512.419L74.5487 505.603C74.5487 505.603 75.5406 504.625 76.6743 503.478" stroke="#263238" stroke-linecap="round" stroke-linejoin="round"/>
<path d="M35.4797 531.068L40.5104 526.037L47.3124 519.235L54.1285 512.419L60.9447 505.617C60.9447 505.617 62.7302 503.832 64.2749 502.287" stroke="#263238" stroke-linecap="round" stroke-linejoin="round"/>
<path d="M34.7852 518.13L40.496 512.419L47.3122 505.603L52.8671 500.062" stroke="#263238" stroke-linecap="round" stroke-linejoin="round"/>
<path d="M39.249 500.062L34.0908 505.22" stroke="#263238" stroke-linecap="round" stroke-linejoin="round"/>
<path d="M54.8513 491.39H103.443" stroke="#263238" stroke-linecap="round" stroke-linejoin="round"/>
<path d="M106.234 491.39H111.563V500.076H92.7722" stroke="#263238" stroke-linecap="round" stroke-linejoin="round"/>
<path d="M88.1103 500.076H49.6223" stroke="#263238" stroke-linecap="round" stroke-linejoin="round"/>
<path d="M47.9358 500.076H31.03V496.42" stroke="#263238" stroke-linecap="round" stroke-linejoin="round"/>
<path d="M31.0159 495.669V491.39H50.1607" stroke="#263238" stroke-linecap="round" stroke-linejoin="round"/>
<path d="M82.7537 424.078V483.666" stroke="#263238" stroke-linecap="round" stroke-linejoin="round"/>
<path d="M82.7537 404.693V417.39" stroke="#263238" stroke-linecap="round" stroke-linejoin="round"/>
<path d="M353.303 578.966V373.276H82.7537V397.508" stroke="#263238" stroke-linecap="round" stroke-linejoin="round"/>
<path d="M316.983 385.349H338.622V568.847" stroke="#263238" stroke-linecap="round" stroke-linejoin="round"/>
<path d="M97.4487 483.667V385.349H304.414" stroke="#263238" stroke-linecap="round" stroke-linejoin="round"/>
<path d="M107.822 361.84H114.695" stroke="#263238" stroke-linecap="round" stroke-linejoin="round"/>
<path d="M124.558 361.84H359.51V373.191H76.561V361.84H103.443" stroke="#263238" stroke-linecap="round" stroke-linejoin="round"/>
<path d="M415.513 356.228L412.126 378.136" stroke="#263238" stroke-linecap="round" stroke-linejoin="round"/>
<path d="M394.809 266.314H411.148C420.728 266.314 428.054 274.859 426.594 284.326L417.355 344.226" stroke="#263238" stroke-linecap="round" stroke-linejoin="round"/>
<path d="M378.187 266.314H390.133" stroke="#263238" stroke-linecap="round" stroke-linejoin="round"/>
<path d="M309.43 348.449L320.044 279.578C321.22 271.954 327.781 266.329 335.49 266.329H369.67" stroke="#263238" stroke-linecap="round" stroke-linejoin="round"/>
<path d="M297.583 425.297L302.897 390.791" stroke="#263238" stroke-linecap="round" stroke-linejoin="round"/>
<path d="M358.022 469.312H374.276C382.339 469.312 389.665 466.123 395.036 460.937" stroke="#263238" stroke-linecap="round" stroke-linejoin="round"/>
<path d="M268.434 469.312H325.075" stroke="#263238" stroke-linecap="round" stroke-linejoin="round"/>
<path d="M245.024 464.196C249.799 467.427 255.567 469.312 261.759 469.312" stroke="#263238" stroke-linecap="round" stroke-linejoin="round"/>
<path d="M333.861 425.297H242.983C236.819 425.297 231.817 430.299 231.817 436.463V439.383C231.817 446.397 234.226 452.859 238.278 457.961" stroke="#263238" stroke-linecap="round" stroke-linejoin="round"/>
<path d="M403.397 432.255C401.739 428.174 397.729 425.297 393.052 425.297H376.855" stroke="#263238" stroke-linecap="round" stroke-linejoin="round"/>
<path d="M334.059 477.545H295.174L286.998 469.312" stroke="#263238" stroke-linecap="round" stroke-linejoin="round"/>
<path d="M306.355 477.545H329.694V504.81C329.694 506.227 328.547 507.389 327.115 507.389H308.92C307.503 507.389 306.341 506.241 306.341 504.81V477.545H306.355Z" stroke="#263238" stroke-linecap="round" stroke-linejoin="round"/>
<path d="M325.316 507.375H310.72V540.988H325.316V507.375Z" stroke="#263238" stroke-linecap="round" stroke-linejoin="round"/>
<path d="M251.103 561.691C275.42 545.494 310.706 541.002 310.706 541.002" stroke="#263238" stroke-linecap="round" stroke-linejoin="round"/>
<path d="M334.002 556.859C309.388 553.245 284.886 558.701 261.788 564.653" stroke="#263238" stroke-linecap="round" stroke-linejoin="round"/>
<path d="M374.247 564.653C368.636 563.208 362.968 561.946 357.299 560.784" stroke="#263238" stroke-linecap="round" stroke-linejoin="round"/>
<path d="M358.022 548.895C367.417 552.112 376.642 556.164 384.932 561.677" stroke="#263238" stroke-linecap="round" stroke-linejoin="round"/>
<path d="M325.316 540.988C328.391 541.399 331.452 541.965 334.484 542.575" stroke="#263238" stroke-linecap="round" stroke-linejoin="round"/>
<path d="M253.966 580C259.021 580 263.12 575.901 263.12 570.845C263.12 565.789 259.021 561.691 253.966 561.691C248.91 561.691 244.811 565.789 244.811 570.845C244.811 575.901 248.91 580 253.966 580Z" stroke="#263238" stroke-linecap="round" stroke-linejoin="round"/>
<path d="M392.443 570.845C392.443 575.904 388.347 580 383.288 580C378.229 580 374.134 575.904 374.134 570.845C374.134 565.786 378.229 561.691 383.288 561.691C388.347 561.691 392.443 565.786 392.443 570.845Z" stroke="#263238" stroke-linecap="round" stroke-linejoin="round"/>
<path d="M372.193 450.634L379.377 401.986C380.072 397.324 383.756 393.682 388.418 393.03L421.805 388.438C424.37 388.084 426.283 385.888 426.283 383.309C426.283 380.446 423.959 378.122 421.096 378.122H416.887L383.813 383.209C375.707 384.456 369.415 390.904 368.338 399.024L361.423 451.796C361.168 453.752 362.684 455.481 364.654 455.481" stroke="#263238" stroke-linecap="round" stroke-linejoin="round"/>
<path d="M421.805 388.453L413.118 434.664C415.513 434.664 417.454 436.605 417.454 439V447.829C417.454 453.908 412.523 458.839 406.444 458.839H365.844" stroke="#263238" stroke-linecap="round" stroke-linejoin="round"/>
<path d="M416.052 389.247L407.011 433.672H383.289" stroke="#263238" stroke-linecap="round" stroke-linejoin="round"/>
<path d="M243.096 399.053L240.673 417.602" stroke="#263238" stroke-linecap="round" stroke-linejoin="round"/>
<path d="M251.557 419.444L254.136 401.986C254.83 397.324 258.514 393.682 263.177 393.03L296.563 388.439" stroke="#263238" stroke-linecap="round" stroke-linejoin="round"/>
<path d="M176.522 292.403L189.531 353.082C190.083 355.69 192.393 357.546 195.057 357.546H291.773C294.225 357.546 296.053 355.265 295.514 352.87L281.896 292.176C281.315 289.597 279.019 287.755 276.384 287.755H180.263C177.826 287.755 175.998 290.008 176.522 292.389V292.403Z" stroke="#263238" stroke-linecap="round" stroke-linejoin="round"/>
<path d="M232.312 315.742H224.83L222.705 322.445L228.075 329.148H235.558L237.683 322.445L232.312 315.742Z" stroke="#263238" stroke-linecap="round" stroke-linejoin="round"/>
<path d="M300.247 353.422H338.622V355.505C338.622 357.589 336.936 359.261 334.867 359.261H333.875" stroke="#263238" stroke-linecap="round" stroke-linejoin="round"/>
<path d="M509.706 503.463C509.706 503.463 531.033 505.15 531.926 520.879C531.926 520.879 510.33 530.827 509.706 503.463Z" stroke="#263238" stroke-linecap="round" stroke-linejoin="round"/>
<path d="M551.907 507.374C551.907 507.374 563.825 491.262 583.083 499.524C583.083 499.524 571.321 519.009 551.907 507.374Z" stroke="#263238" stroke-linecap="round" stroke-linejoin="round"/>
<path d="M581.453 456.501C581.453 456.501 584.882 487.493 556.668 478.962C556.668 478.962 565.624 456.175 581.453 456.501Z" stroke="#263238" stroke-linecap="round" stroke-linejoin="round"/>
<path d="M546.805 439.255C546.805 439.255 569.124 451.286 552.715 469.552C552.715 469.552 537.07 456.515 546.805 439.255Z" stroke="#263238" stroke-linecap="round" stroke-linejoin="round"/>
<path d="M519.356 466.945C519.356 466.945 543.617 464.493 543.617 486.954C543.617 486.954 519.356 487.904 519.356 466.945Z" stroke="#263238" stroke-linecap="round" stroke-linejoin="round"/>
<path d="M537.538 533.562C537.183 526.023 537.183 516.33 541.789 506.085C552.403 482.448 556.002 462.538 550.447 448.509" stroke="#263238" stroke-linecap="round" stroke-linejoin="round"/>
<path d="M527.321 472.982C527.321 472.982 541.86 478.764 546.805 493.742" stroke="#263238" stroke-linecap="round" stroke-linejoin="round"/>
<path d="M573.773 468.901C573.773 468.901 565.369 480.351 551.128 479.118" stroke="#263238" stroke-linecap="round" stroke-linejoin="round"/>
<path d="M573.773 502.812C573.773 502.812 550.504 509.514 541.25 507.318" stroke="#263238" stroke-linecap="round" stroke-linejoin="round"/>
<path d="M516.664 510.549C516.664 510.549 527.065 521.971 537.538 521.786" stroke="#263238" stroke-linecap="round" stroke-linejoin="round"/>
<path d="M565.199 533.562H514.623C513.943 533.562 513.391 534.115 513.391 534.795V538.635C513.391 539.316 513.943 539.868 514.623 539.868H516.097L520.604 579.206H559.219L563.725 539.868H565.199C565.879 539.868 566.432 539.316 566.432 538.635V534.795C566.432 534.115 565.879 533.562 565.199 533.562Z" stroke="#263238" stroke-linecap="round" stroke-linejoin="round"/>
<path d="M519.356 539.868H548.761" stroke="#263238" stroke-linecap="round" stroke-linejoin="round"/>
<path d="M554.316 539.868H558.737" stroke="#263238" stroke-linecap="round" stroke-linejoin="round"/>
<path d="M269.482 49.4725V443.308C269.482 445.193 267.952 446.723 266.067 446.723H32.7726C30.8879 446.723 29.3574 445.193 29.3574 443.308V49.4725C29.3574 47.5878 30.8879 46.0574 32.7726 46.0574H106.532C108.53 46.0574 110.145 47.6729 110.145 49.6709V57.9467C110.145 59.9448 111.761 61.5603 113.759 61.5603H185.095C187.093 61.5603 188.708 59.9448 188.708 57.9467V49.6709C188.708 47.6729 190.324 46.0574 192.322 46.0574H266.067C267.952 46.0574 269.482 47.5878 269.482 49.4725Z" fill="white" stroke="#263238" stroke-linecap="round" stroke-linejoin="round"/>
<path d="M269.482 84.9141H29.3574V121.092H269.482V84.9141Z" fill="#BFBFBF" stroke="#263238" stroke-linecap="round" stroke-linejoin="round"/>
<path d="M60.76 193.576H158.496" stroke="#263238" stroke-width="3" stroke-linecap="round" stroke-linejoin="round"/>
<path d="M84.8931 210.538H238.08" stroke="#263238" stroke-width="3" stroke-linecap="round" stroke-linejoin="round"/>
<path d="M60.76 223.207H238.08" stroke="#263238" stroke-width="3" stroke-linecap="round" stroke-linejoin="round"/>
<path d="M60.76 235.876H238.08" stroke="#263238" stroke-width="3" stroke-linecap="round" stroke-linejoin="round"/>
<path d="M60.76 248.53H238.08" stroke="#263238" stroke-width="3" stroke-linecap="round" stroke-linejoin="round"/>
<path d="M60.76 261.199H238.08" stroke="#263238" stroke-width="3" stroke-linecap="round" stroke-linejoin="round"/>
<path d="M60.76 273.867H238.08" stroke="#263238" stroke-width="3" stroke-linecap="round" stroke-linejoin="round"/>
<path d="M60.76 286.522H143.092" stroke="#263238" stroke-width="3" stroke-linecap="round" stroke-linejoin="round"/>
<path d="M242.458 98.5461H251.514" stroke="#263238" stroke-linecap="round" stroke-linejoin="round"/>
<path d="M242.458 102.727H251.514" stroke="#263238" stroke-linecap="round" stroke-linejoin="round"/>
<path d="M242.458 106.893H251.514" stroke="#263238" stroke-linecap="round" stroke-linejoin="round"/>
<path d="M54.5251 102.727H46.8728" stroke="#263238" stroke-linecap="round" stroke-linejoin="round"/>
<path d="M50.387 107.36L45.7532 102.727L50.387 98.0928" stroke="#263238" stroke-linecap="round" stroke-linejoin="round"/>
<path d="M229.11 98.5461H217.702V106.879H229.11V98.5461Z" stroke="#263238" stroke-linecap="round" stroke-linejoin="round"/>
<path d="M217.702 98.5461L223.399 102.727L229.11 98.5461" stroke="#263238" stroke-linecap="round" stroke-linejoin="round"/>
<path d="M202.964 108.494H195.284L194.263 98.5461H203.985L202.964 108.494Z" stroke="#263238" stroke-linecap="round" stroke-linejoin="round"/>
<path d="M197.211 98.5464V96.9451H201.051V98.5464" stroke="#263238" stroke-linecap="round" stroke-linejoin="round"/>
<path d="M269.482 417.985V443.322C269.482 445.207 267.966 446.737 266.067 446.737H32.7726C30.8879 446.737 29.3574 445.207 29.3574 443.322V417.985H269.482Z" fill="#92E3A9" stroke="#263238" stroke-linecap="round" stroke-linejoin="round"/>
<path d="M90.2922 151.573H188.043" stroke="#263238" stroke-width="3" stroke-linecap="round" stroke-linejoin="round"/>
<path d="M72.3242 163.464C78.8983 162.397 83.3626 156.203 82.2955 149.628C81.2284 143.054 75.0339 138.59 68.4597 139.657C61.8856 140.724 57.4212 146.919 58.4884 153.493C59.5555 160.067 65.75 164.531 72.3242 163.464Z" fill="#92E3A9" stroke="#263238" stroke-linecap="round" stroke-linejoin="round"/>
<path d="M75.3135 159.112C74.5766 159.112 72.451 157.497 73.1737 156.193C73.9106 154.875 75.3135 152.679 75.3135 152.679C76.1921 151.502 76.3338 148.725 76.3338 148.725C76.6314 146.684 75.4552 143.17 70.3679 143.17C65.2806 143.17 64.1186 146.684 64.402 148.725C64.402 148.725 64.5437 151.502 65.4223 152.679C65.4223 152.679 66.8252 154.875 67.5621 156.193C68.299 157.511 66.1592 159.112 65.4223 159.112C64.6854 159.112 61.9646 160.232 61.9646 160.232C61.9646 160.232 66.8252 163.647 70.3679 163.647C73.9106 163.647 78.7712 160.232 78.7712 160.232C78.7712 160.232 76.0362 159.112 75.3135 159.112Z" fill="#263238"/>
<path d="M29.3574 311.534H269.482" stroke="#263238" stroke-linecap="round" stroke-linejoin="round"/>
<path d="M269.482 377.457H29.3574V417.985H269.482V377.457Z" fill="#BFBFBF" stroke="#263238" stroke-linecap="round" stroke-linejoin="round"/>
<path d="M236.62 326.739H216.838C212.971 326.739 209.837 329.873 209.837 333.739V353.522C209.837 357.388 212.971 360.522 216.838 360.522H236.62C240.486 360.522 243.62 357.388 243.62 353.522V333.739C243.62 329.873 240.486 326.739 236.62 326.739Z" fill="#92E3A9" stroke="#263238" stroke-linecap="round" stroke-linejoin="round"/>
<path d="M221.514 341.037L226.261 336.29C228.316 334.235 231.646 334.235 233.701 336.29C235.756 338.345 235.756 341.675 233.701 343.73L225.949 351.481C224.575 352.856 222.35 352.856 220.99 351.481C219.615 350.107 219.615 347.882 220.99 346.521L228.358 339.153C228.996 338.515 230.045 338.515 230.683 339.153C231.32 339.79 231.32 340.839 230.683 341.477L226.729 345.43" stroke="#263238" stroke-width="1.5" stroke-linecap="round" stroke-linejoin="round"/>
<path d="M60.76 337.296H193.725" stroke="#263238" stroke-width="3" stroke-linecap="round" stroke-linejoin="round"/>
<path d="M60.76 349.965H171.548" stroke="#263238" stroke-width="3" stroke-linecap="round" stroke-linejoin="round"/>
<path d="M90.0089 387.475H64.4164C61.818 387.475 59.7117 389.581 59.7117 392.18V403.035C59.7117 405.633 61.818 407.739 64.4164 407.739H90.0089C92.6072 407.739 94.7136 405.633 94.7136 403.035V392.18C94.7136 389.581 92.6072 387.475 90.0089 387.475Z" stroke="#263238" stroke-linecap="round" stroke-linejoin="round"/>
<path d="M82.484 401.731V400.286C82.484 398.302 80.8827 396.7 78.8987 396.7H72.9753" stroke="#263238" stroke-linecap="round" stroke-linejoin="round"/>
<path d="M75.1577 399.903L71.9551 396.7L75.1577 393.498" stroke="#263238" stroke-linecap="round" stroke-linejoin="round"/>
<path d="M163.088 387.475H137.495C134.897 387.475 132.79 389.581 132.79 392.18V403.035C132.79 405.633 134.897 407.739 137.495 407.739H163.088C165.686 407.739 167.792 405.633 167.792 403.035V392.18C167.792 389.581 165.686 387.475 163.088 387.475Z" stroke="#263238" stroke-linecap="round" stroke-linejoin="round"/>
<path d="M157.221 401.731V400.286C157.221 398.302 155.619 396.7 153.636 396.7H147.712" stroke="#263238" stroke-linecap="round" stroke-linejoin="round"/>
<path d="M149.894 399.903L146.692 396.7L149.894 393.498" stroke="#263238" stroke-linecap="round" stroke-linejoin="round"/>
<path d="M146.578 399.903L143.362 396.7L146.578 393.498" stroke="#263238" stroke-linecap="round" stroke-linejoin="round"/>
<path d="M212.246 407.753H237.839C240.437 407.753 242.543 405.647 242.543 403.049V392.194C242.543 389.595 240.437 387.489 237.839 387.489H212.246C209.648 387.489 207.541 389.595 207.541 392.194V403.049C207.541 405.647 209.648 407.753 212.246 407.753Z" stroke="#263238" stroke-linecap="round" stroke-linejoin="round"/>
<path d="M219.771 401.731V400.285C219.771 398.301 221.372 396.7 223.356 396.7H229.279" stroke="#263238" stroke-linecap="round" stroke-linejoin="round"/>
<path d="M227.083 399.903L230.3 396.7L227.083 393.498" stroke="#263238" stroke-linecap="round" stroke-linejoin="round"/>
<path d="M269.482 49.4584V84.9138H29.3574V49.4725C29.3574 47.5878 30.8879 46.0574 32.7726 46.0574H106.532C108.53 46.0574 110.145 47.6729 110.145 49.6709V57.9467C110.145 59.9448 111.761 61.5603 113.759 61.5603H185.095C187.093 61.5603 188.708 59.9448 188.708 57.9467V49.6709C188.708 47.6729 190.324 46.0574 192.322 46.0574H266.081C267.966 46.0574 269.482 47.5737 269.482 49.4584Z" fill="#92E3A9" stroke="#263238" stroke-linecap="round" stroke-linejoin="round"/>
<path d="M341.102 204.884V208.427" stroke="#263238" stroke-linecap="round" stroke-linejoin="round"/>
<path d="M341.102 215.314V335.837" stroke="#263238" stroke-linecap="round" stroke-linejoin="round" stroke-dasharray="4.86 4.86"/>
<path d="M341.102 339.28V342.823H337.559" stroke="#263238" stroke-linecap="round" stroke-linejoin="round"/>
<path d="M330.885 342.823H254.135" stroke="#263238" stroke-linecap="round" stroke-linejoin="round" stroke-dasharray="4.71 4.71"/>
<path d="M250.805 342.823H247.262" stroke="#263238" stroke-linecap="round" stroke-linejoin="round"/>
<path d="M509.239 551.927C509.239 551.927 509.607 562.796 505.88 566.538C502.139 570.279 503.641 579.986 503.641 579.986H537.467L538.402 569.783L532.79 549.419L509.239 551.913V551.927Z" fill="#757575" stroke="#263238" stroke-linecap="round" stroke-linejoin="round"/>
<path d="M426.282 549.433C426.282 549.433 430.024 559.268 416.193 564.029C402.362 568.791 394.143 568.791 393.024 576.627V579.986H422.57L431.894 576.996L434.884 579.986H451.322L453.193 574.006L450.571 554.421L426.282 549.433Z" fill="#757575" stroke="#263238" stroke-linecap="round" stroke-linejoin="round"/>
<path d="M428.706 281.166L421.705 319.866C421.705 319.866 417.652 377.626 418.134 401.717C418.616 425.821 427.019 534.823 426.467 539.188C425.9 543.553 421.436 548.3 421.705 549.008C421.975 549.717 423.392 555.286 423.392 555.286L451.181 559.226L455.035 551.928C455.035 551.928 450.118 545.678 451.181 543.765C452.229 541.866 454.482 534.724 455.035 532.131C455.602 529.538 461.029 381.693 461.029 381.693C461.029 381.693 499.319 528.007 499.319 533.534C499.319 539.06 505.483 545.296 505.483 545.296L503.315 556.448L508.289 561.861C508.289 561.861 522.672 555.329 536.886 561.861L536.135 550.808L531.841 545.296L532.96 537.573C532.96 537.573 527.193 477.63 520.83 449.203C514.468 420.791 510.386 325.931 508.629 319.087C506.872 312.242 501.076 277.467 501.076 277.467L428.692 281.18L428.706 281.166Z" fill="#263238"/>
<path d="M387.199 76.8364H295.004C290.347 76.8364 286.572 80.6114 286.572 85.2681V192.442C286.572 197.099 290.347 200.874 295.004 200.874H387.199C391.856 200.874 395.631 197.099 395.631 192.442V85.2681C395.631 80.6114 391.856 76.8364 387.199 76.8364Z" fill="#92E3A9" stroke="#263238" stroke-linecap="round" stroke-linejoin="round"/>
<path d="M364.795 104.059H310.422V181.899H364.795V104.059Z" fill="white"/>
<mask id="mask0_7524_36154" style="mask-type:luminance" maskUnits="userSpaceOnUse" x="310" y="104" width="55" height="78">
<path d="M364.795 104.059H310.422V181.899H364.795V104.059Z" fill="white"/>
</mask>
<g mask="url(#mask0_7524_36154)">
<path opacity="0.4" d="M364.795 104.059H310.422V181.899H364.795V104.059Z" fill="#92E3A9"/>
</g>
<path d="M364.795 104.059H310.422V181.899H364.795V104.059Z" stroke="#263238" stroke-linecap="round" stroke-linejoin="round"/>
<path d="M363.014 93.0643L309.693 103.709L324.932 180.043L378.253 169.398L363.014 93.0643Z" fill="white" stroke="#263238" stroke-linecap="round" stroke-linejoin="round"/>
<path d="M313.681 102.528C314.475 100.615 316.359 99.269 318.556 99.269C321.461 99.269 323.827 101.621 323.827 104.541V115.509C323.827 117.45 322.254 119.023 320.313 119.023C318.372 119.023 316.799 117.45 316.799 115.509V105.093C316.799 104.186 317.536 103.449 318.443 103.449C319.349 103.449 320.086 104.186 320.086 105.093V110.691" stroke="#263238" stroke-width="1.5" stroke-linecap="round" stroke-linejoin="round"/>
<path d="M397.828 221.209C397.856 228.833 386.477 231.086 386.477 231.086C365.731 212.054 361.054 188.672 350.965 184.96C350.043 184.62 349.207 184.081 348.485 183.443C345.452 180.751 343.978 176.23 343.978 176.23L357.398 173.552C358.036 170.009 359.637 165.574 361.012 163.647C361.989 162.272 360.572 159.055 358.914 155.456C357.823 153.118 359.609 150.992 359.609 150.992C359.609 150.992 364.795 155.059 366.85 160.557C368.905 166.042 366.836 178.937 372.901 185.328C383.742 196.75 385.371 196.098 395.631 204.884C395.631 204.884 397.799 213.826 397.828 221.209Z" fill="white"/>
<mask id="mask1_7524_36154" style="mask-type:luminance" maskUnits="userSpaceOnUse" x="343" y="150" width="55" height="82">
<path d="M397.828 221.209C397.856 228.833 386.477 231.086 386.477 231.086C365.731 212.054 361.054 188.672 350.965 184.96C350.043 184.62 349.207 184.081 348.485 183.443C345.452 180.751 343.978 176.23 343.978 176.23L357.398 173.552C358.036 170.009 359.637 165.574 361.012 163.647C361.989 162.272 360.572 159.055 358.914 155.456C357.823 153.118 359.609 150.992 359.609 150.992C359.609 150.992 364.795 155.059 366.85 160.557C368.905 166.042 366.836 178.937 372.901 185.328C383.742 196.75 385.371 196.098 395.631 204.884C395.631 204.884 397.799 213.826 397.828 221.209Z" fill="white"/>
</mask>
<g mask="url(#mask1_7524_36154)">
<path opacity="0.4" d="M348.485 183.443C345.452 180.751 343.978 176.231 343.978 176.231L357.398 173.552C357.398 173.552 356.718 177.35 357.398 179.943C357.823 181.601 352.566 181.615 348.485 183.443Z" fill="#92E3A9"/>
</g>
<path d="M397.828 221.209C397.856 228.833 386.477 231.086 386.477 231.086C365.731 212.054 361.054 188.672 350.965 184.96C350.043 184.62 349.207 184.081 348.485 183.443C345.452 180.751 343.978 176.23 343.978 176.23L357.398 173.552C358.036 170.009 359.637 165.574 361.012 163.647C361.989 162.272 360.572 159.055 358.914 155.456C357.823 153.118 359.609 150.992 359.609 150.992C359.609 150.992 364.795 155.059 366.85 160.557C368.905 166.042 366.836 178.937 372.901 185.328C383.742 196.75 385.371 196.098 395.631 204.884C395.631 204.884 397.799 213.826 397.828 221.209Z" stroke="#263238" stroke-linecap="round" stroke-linejoin="round"/>
<path d="M435.239 163.647V213.358C435.239 213.358 428.777 219.735 421.762 226.452C414.266 233.637 406.146 241.204 404.601 241.813C401.611 242.975 395.631 238.398 395.631 238.398C392.273 240.637 388.9 235.876 388.9 235.876C385.541 239.319 382.169 233.537 386.292 227.557C390.402 221.577 395.631 204.884 395.631 204.884C397.87 203.127 399.372 204.884 399.372 204.884C399.372 204.884 425.149 168.508 435.239 163.647Z" fill="#92E3A9"/>
<mask id="mask2_7524_36154" style="mask-type:luminance" maskUnits="userSpaceOnUse" x="384" y="163" width="52" height="80">
<path d="M435.239 163.647V213.358C435.239 213.358 428.777 219.735 421.762 226.452C414.266 233.637 406.146 241.204 404.601 241.813C401.611 242.975 395.631 238.398 395.631 238.398C392.273 240.637 388.9 235.876 388.9 235.876C385.541 239.319 382.169 233.537 386.292 227.557C390.402 221.577 395.631 204.884 395.631 204.884C397.87 203.127 399.372 204.884 399.372 204.884C399.372 204.884 425.149 168.508 435.239 163.647Z" fill="white"/>
</mask>
<g mask="url(#mask2_7524_36154)">
<path opacity="0.2" d="M435.239 184.917V213.358C435.239 213.358 428.777 219.735 421.762 226.452C418.559 223.037 416.235 218.29 415.81 215.285C414.974 209.362 421.975 213.642 421.975 213.642C416.93 208.568 422.825 185.328 423.122 189.254C423.377 192.442 424.199 199.371 424.497 201.88C423.859 192.952 432.815 185.923 435.239 184.917Z" fill="black"/>
</g>
<path d="M435.239 163.647V213.358C435.239 213.358 428.777 219.735 421.762 226.452C414.266 233.637 406.146 241.204 404.601 241.813C401.611 242.975 395.631 238.398 395.631 238.398C392.273 240.637 388.9 235.876 388.9 235.876C385.541 239.319 382.169 233.537 386.292 227.557C390.402 221.577 395.631 204.884 395.631 204.884C397.87 203.127 399.372 204.884 399.372 204.884C399.372 204.884 425.149 168.508 435.239 163.647Z" stroke="#263238" stroke-linecap="round" stroke-linejoin="round"/>
<path d="M504.009 281.038C506.773 285.53 430.69 287.457 425.446 283.872C424.752 283.405 424.242 282.852 423.888 282.271C421.507 278.402 425.446 272.649 425.446 272.649C425.446 272.649 424.78 193.533 435.238 163.647C435.238 163.647 448.063 162.046 465.635 162.301C472.423 162.4 479.933 162.783 487.699 163.647C493.31 164.27 500.254 165.432 507.099 166.708C518.535 168.862 529.715 171.384 534.151 172.39C535.426 172.688 536.149 172.858 536.149 172.858C536.149 172.858 501.246 276.56 504.009 281.038Z" fill="#92E3A9"/>
<mask id="mask3_7524_36154" style="mask-type:luminance" maskUnits="userSpaceOnUse" x="423" y="162" width="114" height="124">
<path d="M504.009 281.038C506.773 285.53 430.69 287.457 425.446 283.872C424.752 283.405 424.242 282.852 423.888 282.271C421.507 278.402 425.446 272.649 425.446 272.649C425.446 272.649 424.78 193.533 435.238 163.647C435.238 163.647 448.063 162.046 465.635 162.301C472.423 162.4 479.933 162.783 487.699 163.647C493.31 164.27 500.254 165.432 507.099 166.708C518.535 168.862 529.715 171.384 534.151 172.39C535.426 172.688 536.149 172.858 536.149 172.858C536.149 172.858 501.246 276.56 504.009 281.038Z" fill="white"/>
</mask>
<g mask="url(#mask3_7524_36154)">
<path opacity="0.2" d="M460.349 179.943C460.349 179.943 455.262 171.342 463.736 163.647C464.204 163.222 464.841 162.768 465.635 162.301C472.423 162.4 479.933 162.782 487.699 163.647C493.311 164.27 500.254 165.432 507.099 166.708L476.646 182.806L470.325 176.358L460.349 179.943Z" fill="black"/>
<path opacity="0.2" d="M504.01 281.038C506.773 285.53 430.69 287.457 425.446 283.872C424.752 283.404 424.242 282.852 423.888 282.271C438.994 285.02 476.277 281.562 486.452 277.467C498.497 272.62 505.512 250.641 501.671 252.88C497.845 255.119 485.049 253.731 494.713 248.955C504.378 244.194 515.119 228.535 515.119 228.535C515.119 228.535 508.317 208.88 510.556 204.884C512.186 201.95 514.283 207.378 515.29 210.51C513.575 202.432 519.697 194.369 519.697 194.369L534.151 172.39C535.426 172.688 536.149 172.858 536.149 172.858C536.149 172.858 501.246 276.56 504.01 281.038Z" fill="black"/>
</g>
<path d="M504.009 281.038C506.773 285.53 430.69 287.457 425.446 283.872C424.752 283.405 424.242 282.852 423.888 282.271C421.507 278.402 425.446 272.649 425.446 272.649C425.446 272.649 424.78 193.533 435.238 163.647C435.238 163.647 448.063 162.046 465.635 162.301C472.423 162.4 479.933 162.783 487.699 163.647C493.31 164.27 500.254 165.432 507.099 166.708C518.535 168.862 529.715 171.384 534.151 172.39C535.426 172.688 536.149 172.858 536.149 172.858C536.149 172.858 501.246 276.56 504.009 281.038Z" stroke="#263238" stroke-linecap="round" stroke-linejoin="round"/>
<path d="M499.758 164.965C499.758 164.965 471.459 176.301 462.163 164.455C462.163 164.455 467.25 164.965 470.311 160.558C471.502 158.871 472.394 156.462 472.593 153.019C472.734 150.922 472.593 148.442 472.111 145.508C471.02 138.876 498.936 143.156 498.936 143.156C498.936 143.156 492.928 161.621 499.758 164.965Z" fill="white" stroke="#263238" stroke-linecap="round" stroke-linejoin="round"/>
<path d="M482.98 150.369C482.98 150.369 478.105 158.772 470.311 160.544C471.502 158.857 472.394 156.448 472.593 153.005C477.864 151.474 482.98 150.369 482.98 150.369Z" fill="#263238"/>
<path d="M498.936 141.626C506.829 129.935 518.86 83.7944 480.047 92.807C460.746 97.285 463.254 122.58 463.254 122.58L456.608 130.813L462.106 135.475L461.88 140.96L463.75 141.626C463.75 141.626 462.106 154.96 463.75 155.796C466.754 157.327 486.494 154.918 486.494 150.128" fill="white"/>
<path d="M498.936 141.626C506.829 129.935 518.86 83.7944 480.047 92.807C460.746 97.285 463.254 122.58 463.254 122.58L456.608 130.813L462.106 135.475L461.88 140.96L463.75 141.626C463.75 141.626 462.106 154.96 463.75 155.796C466.754 157.327 486.494 154.918 486.494 150.128" stroke="#263238" stroke-linecap="round" stroke-linejoin="round"/>
<path d="M463.736 141.625C463.736 141.625 469.291 142.348 473.5 141.796C473.5 141.796 471.374 146.132 465.933 144.686" stroke="#263238" stroke-linecap="round" stroke-linejoin="round"/>
<path d="M466.528 112.448C466.528 112.448 473.103 111.796 476.235 116.231" stroke="#263238" stroke-linecap="round" stroke-linejoin="round"/>
<path d="M470.481 122.566C470.481 123.884 469.943 124.946 469.291 124.946C468.639 124.946 468.101 123.884 468.101 122.566C468.101 121.248 468.639 120.185 469.291 120.185C469.943 120.185 470.481 121.248 470.481 122.566Z" fill="#263238"/>
<path d="M510.939 99.8358C504.69 93.3881 477.935 83.9361 470.325 87.8331C459.159 92.0844 462.177 104.271 462.177 104.271L463.75 100.034C463.75 100.034 464.572 103.619 470.325 105.802V103.109C470.325 103.109 474.803 105.292 481.86 104.909L480.642 103.095C483.306 103.704 485.077 104.413 485.077 104.413C480.798 112.349 485.63 117.96 485.63 117.96L485.587 128.702C485.587 128.702 491.213 134.243 492.857 139.826C494.501 145.409 498.95 146.104 498.95 146.104C511.293 138.565 517.528 106.595 510.953 99.8216L510.939 99.8358Z" fill="#263238"/>
<path d="M484.298 130.303C484.298 130.303 490.377 122.112 493.509 123.416C496.641 124.72 497.463 132.287 495.805 135.73C494.161 139.188 488.237 146.245 486.919 143.624" fill="white"/>
<path d="M484.298 130.303C484.298 130.303 490.377 122.112 493.509 123.416C496.641 124.72 497.463 132.287 495.805 135.73C494.161 139.188 488.237 146.245 486.919 143.624" stroke="#263238" stroke-linecap="round" stroke-linejoin="round"/>
<path d="M399.372 204.884C399.372 204.884 403.85 217.85 399.372 233.551" stroke="#263238" stroke-linecap="round" stroke-linejoin="round"/>
<path d="M388.9 235.876C388.9 235.876 394.511 227.189 395.631 221.209" stroke="#263238" stroke-linecap="round" stroke-linejoin="round"/>
<path d="M463.736 169.854L466.528 179.943C466.528 179.943 449.82 235.791 447.95 251.86L451.691 257.585L458.79 252.243C458.79 252.243 465.791 197.246 470.325 181.913L478.941 170.265L473.514 169.74L463.75 169.882L463.736 169.854Z" fill="#263238"/>
<path d="M468.101 160.558L471.388 167.402L499.758 160.558L507.099 166.722L476.235 179.957L471.388 170.265L462.163 176.755C462.163 176.755 455.347 161.578 468.086 160.572L468.101 160.558Z" fill="#92E3A9" stroke="#263238" stroke-linecap="round" stroke-linejoin="round"/>
<path d="M533.825 255.12C533.825 255.12 522.049 265.493 514.482 278.388C506.915 291.284 495.422 304.179 489.541 307.537C489.541 307.537 490.108 319.03 497.392 325.478C497.392 325.478 545.317 282.937 551.213 269.701C557.108 256.452 533.839 255.12 533.839 255.12H533.825Z" fill="white" stroke="#263238" stroke-linecap="round" stroke-linejoin="round"/>
<path d="M536.149 172.858C545.119 177.109 557.448 252.937 557.759 263.438C557.859 266.796 551.099 274.066 551.099 274.066C551.099 274.066 551.212 280.585 547.046 281.166C547.046 281.166 534.661 268.412 524.189 263.494C524.189 263.494 522.701 258.776 527.93 258.676L519.81 223.207C511.109 194.015 529.418 179.221 529.418 179.221" fill="#92E3A9"/>
<path d="M536.149 172.858C545.119 177.109 557.448 252.937 557.759 263.438C557.859 266.796 551.099 274.066 551.099 274.066C551.099 274.066 551.212 280.585 547.046 281.166C547.046 281.166 534.661 268.412 524.189 263.494C524.189 263.494 522.701 258.776 527.93 258.676L519.81 223.207C511.109 194.015 529.418 179.221 529.418 179.221" stroke="#263238" stroke-linecap="round" stroke-linejoin="round"/>
<path d="M527.93 258.676C527.93 258.676 540.258 259.612 546.99 269.701" stroke="#263238" stroke-linecap="round" stroke-linejoin="round"/>
<path d="M472.054 294.302C479.409 294.004 487.118 293.253 494.713 291.808L494.118 285.006C489.073 285.771 481.265 286.721 471.332 287.16C471.544 289.087 471.87 292.162 472.068 294.302H472.054Z" fill="#757575" stroke="#263238" stroke-linecap="round" stroke-linejoin="round"/>
<path d="M497.491 291.255C498.894 290.958 500.283 290.646 501.671 290.292L500.637 283.858C500.637 283.858 499.305 284.156 496.811 284.581L497.491 291.255Z" fill="#757575" stroke="#263238" stroke-linecap="round" stroke-linejoin="round"/>
<path d="M468.129 287.288C458.606 287.599 447.34 287.429 434.799 286.267L433.977 292.417C440.765 293.353 453.675 294.727 468.455 294.416L468.115 287.288H468.129Z" fill="#757575" stroke="#263238" stroke-linecap="round" stroke-linejoin="round"/>
<path d="M432.532 286.055C431.568 285.955 430.619 285.856 429.655 285.757L428.904 291.638C428.904 291.638 429.924 291.822 431.738 292.091L432.532 286.055Z" fill="#757575" stroke="#263238" stroke-linecap="round" stroke-linejoin="round"/>
<path d="M454.78 294.911L442.437 294.486L443.373 286.65L455.701 287.075L454.78 294.911Z" fill="#BFBFBF" stroke="#263238" stroke-linecap="round" stroke-linejoin="round"/>
<path d="M394.512 577.01H420.855L433.184 574.388L438.427 577.01H449.253" stroke="#263238" stroke-linecap="round" stroke-linejoin="round"/>
<path d="M505.129 577.01H534.845" stroke="#263238" stroke-linecap="round" stroke-linejoin="round"/>
<path d="M508.87 564.724C508.87 564.724 521.737 559.509 529.616 562.995" stroke="#263238" stroke-linecap="round" stroke-linejoin="round"/>
<path d="M480.968 198.762L501.671 200.874L496.825 222.612L485.885 224L476.646 218.12L478.927 200.874" stroke="#263238" stroke-linecap="round" stroke-linejoin="round"/>
<path d="M532.422 200.874C532.422 200.874 523.537 204.346 522.616 217.85" stroke="#263238" stroke-linecap="round" stroke-linejoin="round"/>
<path d="M421.975 193.179C421.975 193.179 422.981 207.591 427.246 215.385" stroke="#263238" stroke-linecap="round" stroke-linejoin="round"/>
<path d="M430.704 273.854C430.704 273.854 466.868 271.105 477.496 261.298" stroke="#263238" stroke-linecap="round" stroke-linejoin="round"/>
<path d="M512.512 209.362C512.512 209.362 514.779 218.403 519.257 221.209" stroke="#263238" stroke-linecap="round" stroke-linejoin="round"/>
<g opacity="0.2">
<path d="M446.363 304.335C446.363 304.335 445.895 330.65 447.95 333.952C450.005 337.254 451.223 337.877 451.223 337.877" stroke="white" stroke-linecap="round" stroke-linejoin="round"/>
<path d="M451.223 302.748C451.223 302.748 451.308 342.299 455.701 355.477" stroke="white" stroke-linecap="round" stroke-linejoin="round"/>
<path d="M486.452 299.97C486.452 299.97 486.919 320.872 501.685 330.041" stroke="white" stroke-linecap="round" stroke-linejoin="round"/>
<path d="M506.064 323.366C506.064 323.366 506.631 345.104 506.064 349.582C505.498 354.06 509.154 375.189 509.154 383.975C509.154 392.761 512.243 406.492 512.243 409.567" stroke="white" stroke-linecap="round" stroke-linejoin="round"/>
<path d="M457.019 362.237C457.019 362.237 478.474 369.181 483.023 368.359" stroke="white" stroke-linecap="round" stroke-linejoin="round"/>
<path d="M457.019 366.927C454.78 365 437.676 373.573 435.437 372.652" stroke="white" stroke-linecap="round" stroke-linejoin="round"/>
<path d="M457.019 372.723C456.452 373.687 439.645 397.069 437.392 394.49" stroke="white" stroke-linecap="round" stroke-linejoin="round"/>
<path d="M459.825 369.691C459.825 369.691 477.638 387.433 483.022 389.402" stroke="white" stroke-linecap="round" stroke-linejoin="round"/>
<path d="M508.87 542.943C508.87 542.943 521.766 531.124 523.168 528.645C524.571 526.179 510.84 523.373 510.84 523.373" stroke="white" stroke-linecap="round" stroke-linejoin="round"/>
<path d="M512.229 549.434C512.229 549.434 521.766 546.061 527.93 549.008" stroke="white" stroke-linecap="round" stroke-linejoin="round"/>
<path d="M432.348 536.935C432.348 536.935 444.676 529.353 444.407 524.819" stroke="white" stroke-linecap="round" stroke-linejoin="round"/>
<path d="M449.253 539.911C449.253 539.911 434.87 547.846 430.661 547.804C426.453 547.761 442.154 553.642 446.079 552.806" stroke="white" stroke-linecap="round" stroke-linejoin="round"/>
</g>
<path d="M329.212 155.598L350.412 151.375" stroke="#263238" stroke-linecap="round" stroke-linejoin="round"/>
<path d="M328.206 150.199L365.121 142.83" stroke="#263238" stroke-linecap="round" stroke-linejoin="round"/>
<path d="M327.214 144.8L364.115 137.431" stroke="#263238" stroke-linecap="round" stroke-linejoin="round"/>
<path d="M326.208 139.401L363.109 132.032" stroke="#263238" stroke-linecap="round" stroke-linejoin="round"/>
<path d="M325.202 133.987L362.103 126.619" stroke="#263238" stroke-linecap="round" stroke-linejoin="round"/>
<path d="M324.196 128.588L361.097 121.219" stroke="#263238" stroke-linecap="round" stroke-linejoin="round"/>
<path d="M323.19 123.189L360.091 115.82" stroke="#263238" stroke-linecap="round" stroke-linejoin="round"/>
<path d="M332.032 115.82L359.085 110.421" stroke="#263238" stroke-linecap="round" stroke-linejoin="round"/>
<path d="M3 580H597.466" stroke="#263238" stroke-linecap="round" stroke-linejoin="round"/>
</svg>
