<svg width="600" height="600" viewBox="0 0 600 600" fill="none" xmlns="http://www.w3.org/2000/svg">
<path d="M530.04 125.448C516.432 107.472 499.488 91.8841 478.836 79.6441C445.752 60.0481 408.444 48.1681 370.692 41.64C251.232 20.964 185.76 42.7921 136.356 78.3961C103.644 101.988 93.3599 152.172 83.7 188.676C78.2759 209.16 73.452 229.848 66.696 249.96C56.22 281.172 32.424 306.42 24.492 338.532C16.092 372.48 16.764 408.24 28.392 441.384C51.3599 506.856 90.4199 544.764 180.012 557.4C227.988 564.168 266.592 544.344 306.42 520.464C330.972 505.74 356.436 492.492 384.6 486.492C414.36 480.156 444.972 479.28 474.816 473.412C541.572 460.272 562.992 397.092 571.668 337.248C582.168 264.792 575.592 185.604 530.052 125.448H530.04Z" fill="#92E3A9"/>
<path opacity="0.7" d="M530.04 125.448C516.432 107.472 499.488 91.8841 478.836 79.6441C445.752 60.0481 408.444 48.1681 370.692 41.64C251.232 20.964 185.76 42.7921 136.356 78.3961C103.644 101.988 93.3599 152.172 83.7 188.676C78.2759 209.16 73.452 229.848 66.696 249.96C56.22 281.172 32.424 306.42 24.492 338.532C16.092 372.48 16.764 408.24 28.392 441.384C51.3599 506.856 90.4199 544.764 180.012 557.4C227.988 564.168 266.592 544.344 306.42 520.464C330.972 505.74 356.436 492.492 384.6 486.492C414.36 480.156 444.972 479.28 474.816 473.412C541.572 460.272 562.992 397.092 571.668 337.248C582.168 264.792 575.592 185.604 530.052 125.448H530.04Z" fill="white"/>
<g opacity="0.2">
<path d="M573.048 70.9319H344.136L336.012 90.4079H573.048V70.9319Z" stroke="black" stroke-linejoin="round"/>
<path d="M573.048 90.4079H344.136L336.012 109.896H573.048V90.4079Z" stroke="black" stroke-linejoin="round"/>
<path d="M573.048 109.896H344.136L336.012 129.372H573.048V109.896Z" stroke="black" stroke-linejoin="round"/>
<path d="M573.048 129.372H344.136L336.012 148.86H573.048V129.372Z" stroke="black" stroke-linejoin="round"/>
<path d="M573.048 148.86H344.136L336.012 168.336H573.048V148.86Z" stroke="black" stroke-linejoin="round"/>
<path d="M573.048 168.336H344.136L336.012 187.824H573.048V168.336Z" stroke="black" stroke-linejoin="round"/>
<path d="M573.048 187.824H344.136L336.012 207.3H573.048V187.824Z" stroke="black" stroke-linejoin="round"/>
<path d="M573.048 207.3H344.136L336.012 226.788H573.048V207.3Z" stroke="black" stroke-linejoin="round"/>
<path d="M573.048 226.788H344.136L336.012 246.264H573.048V226.788Z" stroke="black" stroke-linejoin="round"/>
<path d="M573.048 246.264H344.136L336.012 265.752H573.048V246.264Z" stroke="black" stroke-linejoin="round"/>
<path d="M573.048 265.752H344.136L336.012 285.228H573.048V265.752Z" stroke="black" stroke-linejoin="round"/>
<path d="M573.048 285.228H344.136L336.012 304.716H573.048V285.228Z" stroke="black" stroke-linejoin="round"/>
<path d="M573.048 304.716H344.136L336.012 324.192H573.048V304.716Z" stroke="black" stroke-linejoin="round"/>
<path d="M573.048 324.192H344.136L336.012 343.68H573.048V324.192Z" stroke="black" stroke-linejoin="round"/>
<path d="M573.048 343.68H344.136L336.012 363.156H573.048V343.68Z" stroke="black" stroke-linejoin="round"/>
<path d="M573.048 363.156H344.136L336.012 382.644H573.048V363.156Z" stroke="black" stroke-linejoin="round"/>
<path d="M577.908 64.4399H333.576V389.136H577.908V64.4399Z" stroke="black" stroke-linejoin="round"/>
</g>
<g opacity="0.2">
<path d="M126.852 506.244H44.748V549.576H126.852V506.244Z" stroke="black" stroke-linejoin="round"/>
<path d="M92.4599 522.84H79.1279V529.296H92.4599V522.84Z" stroke="black" stroke-linejoin="round"/>
<path d="M131.052 449.928H40.5361V560.796H131.052V449.928Z" stroke="black" stroke-linejoin="round"/>
<path d="M126.852 455.544H44.748V498.876H126.852V455.544Z" stroke="black" stroke-linejoin="round"/>
<path d="M92.4599 472.14H79.1279V478.596H92.4599V472.14Z" stroke="black" stroke-linejoin="round"/>
<path d="M94.8 442.908H62.52V449.928H94.8V442.908Z" stroke="black" stroke-linejoin="round"/>
<path d="M80.0642 421.164H74.4482V442.92H80.0642V421.164Z" stroke="black" stroke-linejoin="round"/>
<path d="M106.728 370.632H46.3801V421.152H106.728V370.632Z" stroke="black" stroke-linejoin="round"/>
</g>
<g opacity="0.2">
<path d="M466.68 508.308V415.668C466.68 408.312 460.728 402.348 453.36 402.348H331.656V509.232" stroke="black" stroke-linejoin="round"/>
<path d="M332.676 402.348H208.692C201.348 402.348 195.384 408.3 195.384 415.668V508.308" stroke="black" stroke-linejoin="round"/>
<path d="M478.704 517.164V548.316H331.704V508.308H469.848C474.732 508.308 478.704 512.268 478.704 517.164Z" stroke="black" stroke-linejoin="round"/>
<path d="M332.832 508.308H192.216C187.332 508.308 183.36 512.268 183.36 517.164V548.316H332.832" stroke="black" stroke-linejoin="round"/>
<path d="M183.372 561.408V548.316H478.956V561.408" stroke="black" stroke-linejoin="round"/>
<path d="M195.396 455.148C193.776 453.456 191.472 452.4 188.952 452.4H162.18C157.248 452.4 153.252 456.384 153.252 461.316V560.76" stroke="black" stroke-linejoin="round"/>
<path d="M505.716 560.124V461.316C505.716 456.384 501.72 452.4 496.8 452.4H470.028C468.84 452.4 467.712 452.628 466.68 453.06" stroke="black" stroke-linejoin="round"/>
</g>
<path d="M526.152 62.472V351.684C526.152 358.968 520.248 364.872 512.964 364.872H95.3399C88.0559 364.872 82.1519 358.968 82.1519 351.684V62.472C82.1519 55.848 87.5279 50.472 94.1519 50.472H514.152C520.776 50.472 526.152 55.848 526.152 62.472Z" fill="#92E3A9" stroke="#263238" stroke-miterlimit="10"/>
<path d="M526.152 62.472V87.432H82.1519V62.472C82.1519 55.848 87.5279 50.472 94.1519 50.472H514.152C520.776 50.472 526.152 55.848 526.152 62.472Z" fill="#C9C9C9" stroke="#263238" stroke-miterlimit="10"/>
<path d="M368.304 82.596H131.448C129.228 82.596 127.416 80.796 127.416 78.564C127.416 76.344 129.216 74.532 131.448 74.532H368.304C370.524 74.532 372.336 76.332 372.336 78.564C372.336 80.784 370.536 82.596 368.304 82.596Z" fill="white" stroke="#263238" stroke-miterlimit="10"/>
<path d="M503.652 75.336H518.964" stroke="#263238" stroke-miterlimit="10"/>
<path d="M503.652 78.564H518.964" stroke="#263238" stroke-miterlimit="10"/>
<path d="M503.652 81.7921H518.964" stroke="#263238" stroke-miterlimit="10"/>
<path d="M526.152 62.472V69.672H82.1519V62.472C82.1519 55.848 87.5279 50.472 94.1519 50.472H514.152C520.776 50.472 526.152 55.848 526.152 62.472Z" fill="#263238" stroke="#263238" stroke-miterlimit="10"/>
<path d="M481.92 60.468C481.92 58.44 480.276 56.808 478.26 56.808C476.244 56.808 474.6 58.452 474.6 60.468C474.6 62.484 476.244 64.128 478.26 64.128C480.276 64.128 481.92 62.484 481.92 60.468Z" fill="white" stroke="#263238" stroke-miterlimit="10"/>
<path d="M497.088 60.468C497.088 58.44 495.444 56.808 493.428 56.808C491.412 56.808 489.768 58.452 489.768 60.468C489.768 62.484 491.412 64.128 493.428 64.128C495.444 64.128 497.088 62.484 497.088 60.468Z" fill="white" stroke="#263238" stroke-miterlimit="10"/>
<path d="M512.256 60.468C512.256 58.44 510.612 56.808 508.596 56.808C506.58 56.808 504.936 58.452 504.936 60.468C504.936 62.484 506.58 64.128 508.596 64.128C510.612 64.128 512.256 62.484 512.256 60.468Z" fill="white" stroke="#263238" stroke-miterlimit="10"/>
<path d="M502.224 99.756H107.292V346.908H502.224V99.756Z" fill="white" stroke="#263238" stroke-miterlimit="10"/>
<path d="M492.144 109.992H117.36V336.648H492.144V109.992Z" stroke="#92E3A9" stroke-width="5" stroke-miterlimit="10"/>
<path d="M482.568 121.332H126.936V325.332H482.568V121.332Z" stroke="#92E3A9" stroke-miterlimit="10"/>
<path d="M245.28 145.188V147.288H242.82V145.056C242.82 142.956 241.992 141.696 240.096 141.696C238.2 141.696 237.372 142.956 237.372 145.056V157.368C237.372 159.468 238.236 160.728 240.096 160.728C241.956 160.728 242.82 159.468 242.82 157.368V154.344H245.28V157.236C245.28 160.764 243.612 163.092 240.024 163.092C236.436 163.092 234.804 160.764 234.804 157.236V145.188C234.804 141.66 236.472 139.332 240.024 139.332C243.576 139.332 245.28 141.66 245.28 145.188Z" fill="#263238"/>
<path d="M255.924 149.88V152.208H250.236V160.488H257.22V162.852H247.644V139.56H257.22V141.924H250.236V149.88H255.924Z" fill="#263238"/>
<path d="M264.804 139.56C268.464 139.56 270 141.42 270 144.888V146.784C270 149.34 269.1 150.948 267.108 151.572C269.232 152.208 270.036 153.936 270.036 156.432V160.056C270.036 161.088 270.072 162.048 270.504 162.852H267.876C267.576 162.192 267.444 161.592 267.444 160.02V156.36C267.444 153.732 266.208 152.904 264.048 152.904H262.224V162.852H259.632V139.56H264.828H264.804ZM264.132 150.54C266.196 150.54 267.432 149.88 267.432 147.348V145.116C267.432 143.016 266.664 141.924 264.732 141.924H262.2V150.54H264.132Z" fill="#263238"/>
<path d="M276.108 162.852V141.924H271.812V139.56H282.996V141.924H278.7V162.852H276.108Z" fill="#263238"/>
<path d="M287.388 139.56V162.852H284.796V139.56H287.388Z" fill="#263238"/>
<path d="M298.008 150.408V152.772H292.656V162.852H290.064V139.56H299.316V141.924H292.668V150.408H298.02H298.008Z" fill="#263238"/>
<path d="M303.96 139.56V162.852H301.368V139.56H303.96Z" fill="#263238"/>
<path d="M316.896 145.188V147.288H314.436V145.056C314.436 142.956 313.608 141.696 311.712 141.696C309.816 141.696 308.988 142.956 308.988 145.056V157.368C308.988 159.468 309.852 160.728 311.712 160.728C313.572 160.728 314.436 159.468 314.436 157.368V154.344H316.896V157.236C316.896 160.764 315.228 163.092 311.64 163.092C308.052 163.092 306.42 160.764 306.42 157.236V145.188C306.42 141.66 308.088 139.332 311.64 139.332C315.192 139.332 316.896 141.66 316.896 145.188Z" fill="#263238"/>
<path d="M321.888 158.16L320.988 162.852H318.588L323.04 139.56H326.796L331.26 162.852H328.668L327.768 158.16H321.876H321.888ZM322.224 155.928H327.42L324.792 142.488L322.236 155.928H322.224Z" fill="#263238"/>
<path d="M336.696 162.852V141.924H332.4V139.56H343.584V141.924H339.288V162.852H336.696Z" fill="#263238"/>
<path d="M347.964 139.56V162.852H345.372V139.56H347.964Z" fill="#263238"/>
<path d="M350.436 145.188C350.436 141.624 352.2 139.332 355.764 139.332C359.328 139.332 361.116 141.624 361.116 145.188V157.236C361.116 160.764 359.352 163.092 355.764 163.092C352.176 163.092 350.436 160.764 350.436 157.236V145.188ZM352.992 157.368C352.992 159.492 353.892 160.728 355.752 160.728C357.612 160.728 358.512 159.492 358.512 157.368V145.056C358.512 142.956 357.648 141.696 355.752 141.696C353.856 141.696 352.992 142.956 352.992 145.056V157.368Z" fill="#263238"/>
<path d="M365.868 162.852H363.54V139.56H366.84L372.228 156.396V139.56H374.52V162.852H371.82L365.868 144.024V162.852Z" fill="#263238"/>
<path d="M217.5 175.836H396.144" stroke="#263238" stroke-miterlimit="10"/>
<path d="M458.52 198.624H470.88" stroke="#263238" stroke-miterlimit="10"/>
<path d="M352.764 198.624H451.992" stroke="#263238" stroke-miterlimit="10"/>
<path d="M295.32 198.624H347.1" stroke="#263238" stroke-miterlimit="10"/>
<path d="M218.28 198.624H290.088" stroke="#263238" stroke-miterlimit="10"/>
<path d="M171.708 198.624H210.876" stroke="#263238" stroke-miterlimit="10"/>
<path d="M142.764 198.624H166.056" stroke="#263238" stroke-miterlimit="10"/>
<path d="M291.396 209.556H470.88" stroke="#263238" stroke-miterlimit="10"/>
<path d="M152.124 209.556H285.744" stroke="#263238" stroke-miterlimit="10"/>
<path d="M142.764 209.556H146.904" stroke="#263238" stroke-miterlimit="10"/>
<path d="M457.212 220.488H470.88" stroke="#263238" stroke-miterlimit="10"/>
<path d="M383.664 220.488H450.684" stroke="#263238" stroke-miterlimit="10"/>
<path d="M282.252 220.488H378.444" stroke="#263238" stroke-miterlimit="10"/>
<path d="M267.456 220.488H276.6" stroke="#263238" stroke-miterlimit="10"/>
<path d="M142.764 220.488H259.62" stroke="#263238" stroke-miterlimit="10"/>
<path d="M416.304 231.432H470.88" stroke="#263238" stroke-miterlimit="10"/>
<path d="M221.328 231.432H411.084" stroke="#263238" stroke-miterlimit="10"/>
<path d="M203.916 231.432H214.368" stroke="#263238" stroke-miterlimit="10"/>
<path d="M142.764 231.432H198.264" stroke="#263238" stroke-miterlimit="10"/>
<path d="M436.764 242.364H470.88" stroke="#263238" stroke-miterlimit="10"/>
<path d="M290.964 242.364H429.804" stroke="#263238" stroke-miterlimit="10"/>
<path d="M235.248 242.364H284.436" stroke="#263238" stroke-miterlimit="10"/>
<path d="M157.344 242.364H228.72" stroke="#263238" stroke-miterlimit="10"/>
<path d="M142.764 242.364H153" stroke="#263238" stroke-miterlimit="10"/>
<path d="M156.024 290.532L167.28 319.776L172.728 306.552L185.964 311.94L173.028 284.484L156.024 290.532Z" fill="#263238" stroke="#263238" stroke-linecap="round" stroke-linejoin="round"/>
<path d="M152.004 284.172L138.384 312.396L151.752 307.332L156.876 320.664L168.06 292.452L152.004 284.172Z" fill="#263238" stroke="#263238" stroke-linecap="round" stroke-linejoin="round"/>
<path d="M185.928 277.068C185.928 276 188.244 274.776 188.088 273.756C187.932 272.7 185.376 272.184 185.076 271.176C184.776 270.156 186.648 268.332 186.216 267.384C185.772 266.424 183.168 266.652 182.604 265.764C182.028 264.876 183.312 262.596 182.628 261.804C181.944 261.012 179.496 261.96 178.704 261.264C177.912 260.58 178.5 258.024 177.612 257.46C176.736 256.896 174.66 258.492 173.7 258.048C172.752 257.616 172.596 255 171.588 254.7C170.592 254.412 169.056 256.524 168 256.368C166.968 256.224 166.092 253.752 165.024 253.752C163.956 253.752 163.08 256.212 162.048 256.368C160.992 256.512 159.456 254.4 158.46 254.7C157.44 255 157.296 257.616 156.348 258.048C155.388 258.492 153.312 256.896 152.436 257.46C151.548 258.036 152.148 260.58 151.344 261.264C150.552 261.948 148.116 261 147.42 261.804C146.736 262.596 148.02 264.876 147.444 265.764C146.88 266.64 144.276 266.424 143.832 267.384C143.4 268.332 145.272 270.156 144.972 271.176C144.684 272.172 142.116 272.7 141.96 273.756C141.816 274.788 144.12 276 144.12 277.068C144.12 278.136 141.804 279.36 141.96 280.38C142.116 281.436 144.672 281.952 144.972 282.96C145.272 283.98 143.4 285.804 143.832 286.752C144.276 287.712 146.88 287.484 147.444 288.372C148.02 289.26 146.736 291.54 147.42 292.332C148.104 293.124 150.552 292.176 151.344 292.872C152.136 293.556 151.548 296.112 152.436 296.676C153.312 297.24 155.388 295.644 156.348 296.088C157.296 296.52 157.452 299.136 158.46 299.436C159.456 299.724 160.992 297.612 162.048 297.768C163.08 297.912 163.956 300.384 165.024 300.384C166.092 300.384 166.968 297.924 168 297.768C169.056 297.612 170.592 299.736 171.588 299.436C172.608 299.136 172.752 296.52 173.7 296.088C174.66 295.644 176.736 297.24 177.612 296.676C178.5 296.1 177.9 293.556 178.704 292.872C179.496 292.188 181.932 293.136 182.628 292.332C183.312 291.54 182.028 289.26 182.604 288.372C183.168 287.496 185.772 287.712 186.216 286.752C186.648 285.804 184.776 283.98 185.076 282.96C185.364 281.964 187.932 281.436 188.088 280.38C188.232 279.348 185.928 278.136 185.928 277.068Z" fill="#92E3A9" stroke="#263238" stroke-miterlimit="10"/>
<path d="M165.036 291.54C173.029 291.54 179.508 285.061 179.508 277.068C179.508 269.075 173.029 262.596 165.036 262.596C157.043 262.596 150.564 269.075 150.564 277.068C150.564 285.061 157.043 291.54 165.036 291.54Z" fill="#263238" stroke="#263238" stroke-linecap="round" stroke-linejoin="round"/>
<path d="M165.036 267.12L167.268 273.996H174.492L168.648 278.232L170.88 285.108L165.036 280.86L159.192 285.108L161.424 278.232L155.58 273.996H162.804L165.036 267.12Z" fill="#92E3A9"/>
<path d="M202.956 270.132H258.156" stroke="#263238" stroke-miterlimit="10"/>
<path d="M202.956 283.32H258.156" stroke="#263238" stroke-miterlimit="10"/>
<path d="M440.028 301.44C451.361 301.44 460.548 292.253 460.548 280.92C460.548 269.587 451.361 260.4 440.028 260.4C428.695 260.4 419.508 269.587 419.508 280.92C419.508 292.253 428.695 301.44 440.028 301.44Z" stroke="#92E3A9" stroke-miterlimit="10"/>
<path d="M442.998 294.547C450.508 292.902 455.263 285.482 453.619 277.972C451.975 270.462 444.554 265.707 437.044 267.351C429.534 268.995 424.779 276.416 426.423 283.926C428.068 291.436 435.489 296.191 442.998 294.547Z" fill="#92E3A9"/>
<path d="M507.6 511.8C507.6 511.8 503.4 504.6 501.3 500.7C499.2 496.8 497.4 492 497.4 492C497.4 492 502.5 495 504 496.2C505.5 497.4 511.8 504.9 511.8 504.9L513.6 502.8L511.5 495.9L518.4 503.7L521.7 489.6L526.8 503.1L536.4 491.1L537 503.1L548.7 493.8L544.5 508.5L540 514.8H507.9L507.6 511.8Z" fill="#92E3A9" stroke="#263238" stroke-miterlimit="10"/>
<path d="M505.8 511.8C505.8 511.8 503.1 510.6 498.6 505.2C494.1 499.8 490.8 494.1 490.8 494.1C490.8 494.1 501 499.8 504.6 502.5C508.2 505.2 513 511.2 513 511.2C513 511.2 510 503.7 509.7 500.1C509.4 496.5 509.1 488.7 509.1 488.7C509.1 488.7 517.8 497.4 518.4 499.8C519 502.2 522.3 510.3 522.3 510.3C522.3 510.3 524.1 503.7 524.7 499.2C525.3 494.7 530.1 487.5 530.1 487.5C530.1 487.5 530.7 492.6 531 497.7C531.3 502.8 528.3 512.4 528.3 512.4C528.3 512.4 532.2 503.1 536.1 498.6C540 494.1 546 489.3 546 489.3C546 489.3 543 498.6 541.8 502.8C540.6 507 537.3 512.1 537.3 512.1C537.3 512.1 543.3 504.6 546.3 501.9C549.3 499.2 555.6 495.6 555.6 495.6C555.6 495.6 552.3 501.9 549.9 505.5C547.5 509.1 542.7 514.5 542.7 514.5H505.8V511.8Z" fill="#92E3A9" stroke="#263238" stroke-miterlimit="10"/>
<path d="M548.04 511.2L545.964 529.5L542.4 560.796H504.804L501.24 529.5L499.164 511.2H548.04Z" fill="white" stroke="#263238" stroke-miterlimit="10"/>
<path d="M545.964 529.5L542.4 560.796H504.804L501.24 529.5H545.964Z" fill="#92E3A9" stroke="#263238" stroke-miterlimit="10"/>
<path d="M508.2 538.2C509.194 538.2 510 537.394 510 536.4C510 535.406 509.194 534.6 508.2 534.6C507.206 534.6 506.4 535.406 506.4 536.4C506.4 537.394 507.206 538.2 508.2 538.2Z" fill="#263238"/>
<path d="M521.4 538.2C522.394 538.2 523.2 537.394 523.2 536.4C523.2 535.406 522.394 534.6 521.4 534.6C520.406 534.6 519.6 535.406 519.6 536.4C519.6 537.394 520.406 538.2 521.4 538.2Z" fill="#263238"/>
<path d="M513.3 547.5C514.294 547.5 515.1 546.694 515.1 545.7C515.1 544.706 514.294 543.9 513.3 543.9C512.306 543.9 511.5 544.706 511.5 545.7C511.5 546.694 512.306 547.5 513.3 547.5Z" fill="#263238"/>
<path d="M529.2 547.5C530.194 547.5 531 546.694 531 545.7C531 544.706 530.194 543.9 529.2 543.9C528.206 543.9 527.4 544.706 527.4 545.7C527.4 546.694 528.206 547.5 529.2 547.5Z" fill="#263238"/>
<path d="M539.7 547.5C540.694 547.5 541.5 546.694 541.5 545.7C541.5 544.706 540.694 543.9 539.7 543.9C538.706 543.9 537.9 544.706 537.9 545.7C537.9 546.694 538.706 547.5 539.7 547.5Z" fill="#263238"/>
<path d="M534.6 538.2C535.594 538.2 536.4 537.394 536.4 536.4C536.4 535.406 535.594 534.6 534.6 534.6C533.606 534.6 532.8 535.406 532.8 536.4C532.8 537.394 533.606 538.2 534.6 538.2Z" fill="#263238"/>
<path d="M508.2 555C509.194 555 510 554.194 510 553.2C510 552.206 509.194 551.4 508.2 551.4C507.206 551.4 506.4 552.206 506.4 553.2C506.4 554.194 507.206 555 508.2 555Z" fill="#263238"/>
<path d="M521.4 555C522.394 555 523.2 554.194 523.2 553.2C523.2 552.206 522.394 551.4 521.4 551.4C520.406 551.4 519.6 552.206 519.6 553.2C519.6 554.194 520.406 555 521.4 555Z" fill="#263238"/>
<path d="M534.6 555C535.594 555 536.4 554.194 536.4 553.2C536.4 552.206 535.594 551.4 534.6 551.4C533.606 551.4 532.8 552.206 532.8 553.2C532.8 554.194 533.606 555 534.6 555Z" fill="#263238"/>
<path d="M325.404 358.008C325.38 367.152 320.508 374.556 314.52 374.544C308.532 374.532 303.696 367.104 303.72 357.96C303.744 348.816 308.616 341.412 314.604 341.424C320.592 341.436 325.428 348.864 325.404 358.008Z" fill="white" stroke="#263238" stroke-linecap="round" stroke-linejoin="round"/>
<path d="M328.188 316.548C328.188 316.548 322.344 319.884 316.776 316.272C311.208 312.648 315.108 310.98 316.224 308.76C317.34 306.528 314.556 305.976 313.992 302.916C313.428 299.856 315.384 297.348 316.5 297.072C317.616 296.796 317.34 293.736 317.34 290.676C317.34 287.616 320.964 284.832 322.632 284.832C324.3 284.832 325.416 282.6 326.532 279.828C327.648 277.044 329.868 274.536 333.768 276.204C337.668 277.872 339.612 277.872 341.556 275.088C343.5 272.304 348.24 271.752 349.908 273.144C351.576 274.536 352.416 277.32 355.752 274.536C359.088 271.752 363.264 272.304 365.22 274.26C367.164 276.204 366.888 278.436 369.948 277.32C373.008 276.204 378.024 277.872 379.128 281.22C380.232 284.568 386.364 288.18 388.596 287.34C390.828 286.5 394.716 287.34 392.772 291.516C390.828 295.692 393.048 298.476 394.716 298.476C396.384 298.476 400.008 299.592 398.052 303.204C396.108 306.828 394.716 309.6 396.936 310.716C399.168 311.832 402.78 312.108 399.996 316.836C397.212 321.564 394.98 321.288 395.82 324.072C396.66 326.856 398.328 327.696 395.82 329.64C393.312 331.584 390.252 332.424 390.252 334.092C390.252 335.76 393.588 336.6 389.7 337.992C385.8 339.384 382.74 339.66 382.74 339.66C382.74 339.66 377.172 324.636 361.308 319.62C345.444 314.604 336.264 315.168 332.64 317.112C329.016 319.056 328.188 316.56 328.188 316.56V316.548Z" fill="#263238" stroke="#263238" stroke-linecap="round" stroke-linejoin="round"/>
<path d="M333.792 418.596L313.452 428.016C313.452 428.016 302.904 486.408 303.66 502.608C304.416 518.808 313.452 559.116 313.452 559.116H362.424C362.424 559.116 354.888 509.772 358.656 492.06C362.424 474.36 371.46 425.76 371.46 425.76C371.46 425.76 356.388 421.62 351.876 420.864C347.352 420.108 333.792 418.608 333.792 418.608V418.596Z" fill="white" stroke="#263238" stroke-miterlimit="10"/>
<path d="M310.392 445.872L366.756 450.744C366.312 453.096 365.844 455.532 365.376 457.98L309.216 453.12C309.612 450.6 310.008 448.164 310.392 445.86V445.872ZM358.656 492.048C359.088 490.008 359.592 487.56 360.144 484.824L305.352 480.084C305.04 482.604 304.764 485.052 304.524 487.368L358.668 492.048H358.656ZM363.504 467.784L307.716 462.96C307.356 465.372 307.008 467.808 306.66 470.22L362.1 475.008C362.556 472.668 363.036 470.232 363.504 467.772V467.784ZM303.684 498.072C303.612 499.812 303.6 501.336 303.66 502.596C303.696 503.472 303.768 504.42 303.852 505.416L357.636 508.836C357.588 506.268 357.6 503.796 357.684 501.492L303.684 498.06V498.072ZM313.788 427.848L313.452 428.004C313.452 428.004 312.972 430.692 312.216 435.072L368.808 439.968C369.324 437.256 369.78 434.796 370.164 432.732L313.788 427.86V427.848ZM359.424 535.152L308.388 534.564C308.868 537.096 309.36 539.568 309.828 541.908L360.228 542.484C359.952 540.168 359.688 537.708 359.424 535.152ZM306.3 523.056L358.584 526.128C358.38 523.68 358.2 521.208 358.044 518.76L305.1 515.652C305.46 518.04 305.856 520.524 306.288 523.068L306.3 523.056Z" fill="#263238"/>
<path d="M330.78 408.048C330.78 408.048 326.64 423.864 326.256 432.156C325.884 440.448 334.548 447.228 346.98 446.088C359.412 444.96 361.668 431.4 361.668 428.004C361.668 424.608 362.424 395.988 362.424 395.988C362.424 395.988 356.4 401.256 349.236 405.78C342.084 410.304 330.78 408.036 330.78 408.036V408.048Z" fill="#B5B5B5" stroke="#263238" stroke-miterlimit="10"/>
<path d="M342.084 421.608C353.856 415.968 359.724 404.904 362.376 397.86C362.412 396.684 362.424 395.988 362.424 395.988C362.424 395.988 356.4 401.256 349.236 405.78C342.084 410.304 330.78 408.036 330.78 408.036C330.78 408.036 328.188 417.924 326.916 426.156C331.212 425.652 336.312 424.356 342.072 421.596L342.084 421.608Z" fill="#263238" stroke="#263238" stroke-miterlimit="10"/>
<path d="M382.428 347.568C382.428 347.568 381.948 330.864 375.744 321.312C369.54 311.76 356.46 305.904 341.856 308.424C323.748 311.544 315.6 325.128 312.732 336.588C309.864 348.048 313.212 364.752 313.212 376.212C313.212 387.672 326.58 408.192 330.396 411.54C334.212 414.888 340.116 415.992 346.836 412.584C353.016 409.452 363.18 398.748 369.384 392.544C375.588 386.34 379.284 367.896 380.244 363.6C381.204 359.304 382.428 347.58 382.428 347.58V347.568Z" fill="#B5B5B5" stroke="#263238" stroke-linecap="round" stroke-linejoin="round"/>
<path d="M331.812 380.016C331.812 380.016 331.26 383.64 339.6 383.076" stroke="#263238" stroke-linecap="round" stroke-linejoin="round"/>
<path d="M329.304 389.472C329.304 389.472 339.048 396.156 348.792 389.748" stroke="#263238" stroke-linecap="round" stroke-linejoin="round"/>
<path d="M348.792 367.212C348.792 367.212 351.3 363.036 358.536 366.66" stroke="#263238" stroke-width="2" stroke-linecap="round" stroke-linejoin="round"/>
<path d="M329.304 364.704C329.304 366.708 328.368 368.328 327.216 368.328C326.064 368.328 325.128 366.708 325.128 364.704C325.128 362.7 326.064 361.08 327.216 361.08C328.368 361.08 329.304 362.7 329.304 364.704Z" fill="#263238"/>
<path d="M320.4 353.292C320.4 353.292 322.908 347.724 331.26 350.508" stroke="#263238" stroke-linecap="round" stroke-linejoin="round"/>
<path d="M345.168 352.74C345.168 352.74 352.956 348.564 361.584 354.972" stroke="#263238" stroke-linecap="round" stroke-linejoin="round"/>
<path d="M341.856 308.424C323.748 311.544 315.6 325.128 312.732 336.588C312.132 338.976 311.82 341.592 311.676 344.34C312.612 341.424 317.472 328.632 331.26 325.188C346.848 321.288 360.48 326.304 365.22 332.976C369.948 339.66 368.844 348.288 370.512 352.464C371.568 355.116 376.884 359.1 380.628 361.668C381.504 356.544 382.44 347.58 382.44 347.58C382.44 347.58 381.96 330.876 375.756 321.324C369.552 311.772 356.472 305.916 341.868 308.436L341.856 308.424Z" fill="#263238" stroke="#263238" stroke-linecap="round" stroke-linejoin="round"/>
<path d="M377.736 350.508C377.736 350.508 379.128 335.76 374.952 326.016C370.776 316.272 365.772 312.096 365.772 312.096C365.772 312.096 377.46 318.216 381.636 324.06C385.812 329.904 386.364 344.1 385.26 353.844L376.632 352.452L377.748 350.508H377.736Z" fill="#92E3A9" stroke="#263238" stroke-miterlimit="10"/>
<path d="M388.956 364.98C387.276 373.968 381.144 380.364 375.264 379.272C369.384 378.168 365.976 369.996 367.656 361.008C369.336 352.02 375.468 345.624 381.348 346.716C387.228 347.82 390.636 355.992 388.968 364.98H388.956Z" fill="white" stroke="#263238" stroke-linecap="round" stroke-linejoin="round"/>
<path d="M387.9 366.156C386.628 372.972 381.972 377.832 377.508 376.992C373.044 376.164 370.464 369.948 371.736 363.132C373.008 356.316 377.664 351.456 382.128 352.296C386.592 353.124 389.172 359.34 387.9 366.156Z" fill="#92E3A9" stroke="#263238" stroke-miterlimit="10"/>
<path d="M319.86 522.384C322.668 542.304 326.124 560.16 326.124 560.16H305.544C305.544 560.16 300.276 533.04 293.868 517.98C290.22 509.412 289.392 505.956 289.332 504.576C286.524 511.248 269.112 552.384 265.992 553.764C262.596 555.276 250.164 552.636 245.64 551.124C241.128 549.612 240.756 543.216 241.5 540.588C242.256 537.948 273.888 461.472 276.9 456.588C279.912 451.692 282.924 443.016 283.308 440.76C283.68 438.504 282.936 433.224 286.32 431.352C288.372 430.212 302.796 426.876 313.896 424.404C321.168 422.796 327.012 421.56 327.012 421.56C327.012 421.56 317.964 455.088 316.464 478.824C315.792 489.348 317.616 506.532 319.86 522.396V522.384Z" fill="#92E3A9" stroke="#263238" stroke-miterlimit="10"/>
<path d="M319.86 522.372C317.268 518.1 306.756 499.812 305.352 480.768C304.092 463.68 310.908 435.636 313.908 424.38C321.18 422.772 327.024 421.536 327.024 421.536C327.024 421.536 317.976 455.064 316.476 478.8C315.804 489.324 317.628 506.508 319.872 522.372H319.86Z" fill="#92E3A9" stroke="#263238" stroke-miterlimit="10"/>
<path d="M292.236 465.096C293.172 461.028 293.868 458.832 293.868 458.832" stroke="#263238" stroke-miterlimit="10"/>
<path d="M289.728 503.664C289.728 503.664 287.472 495.756 289.356 481.44C289.848 477.66 290.4 474.312 290.94 471.42" stroke="#263238" stroke-miterlimit="10"/>
<path d="M455.472 506.964C446.808 506.58 403.488 479.592 403.488 479.592C403.488 479.592 389.916 506.196 389.544 511.596C389.172 516.996 400.092 560.172 400.092 560.172H353.76C353.76 560.172 352.344 545.028 352.068 528.408C351.936 520.74 352.032 512.76 352.632 505.812C354.516 483.84 362.04 421.764 362.04 421.764L369.576 422.532C369.576 422.532 371.724 423.252 375.06 424.404C383.976 427.512 401.448 433.848 409.128 438.336C419.664 444.504 434.364 454.536 441.528 459.168C448.68 463.788 465.636 474.204 469.032 488.088C472.428 501.96 464.136 507.36 455.46 506.976L455.472 506.964Z" fill="#92E3A9" stroke="#263238" stroke-miterlimit="10"/>
<path d="M375.072 424.404C374.052 439.848 371.052 476.604 364.584 494.376C358.392 511.38 353.952 523.368 352.08 528.408C351.948 520.74 352.044 512.76 352.644 505.812C354.528 483.84 362.052 421.764 362.052 421.764L369.588 422.532C369.588 422.532 371.736 423.252 375.072 424.404Z" stroke="#263238" stroke-miterlimit="10"/>
<path d="M403.488 479.58L386.16 474.192" stroke="#263238" stroke-miterlimit="10"/>
<path d="M378.84 462.516C379.356 468.216 380.916 474.564 385.032 478.044" stroke="#263238" stroke-miterlimit="10"/>
<path d="M378.996 450.672C378.996 450.672 378.636 453.384 378.624 457.176" stroke="#263238" stroke-miterlimit="10"/>
<path d="M376.74 470.712C376.74 470.712 380.88 478.428 385.776 481.128" stroke="#263238" stroke-miterlimit="10"/>
<path d="M402.756 415.488C402.756 415.488 401.676 411.468 401.676 406.836C401.676 402.204 402.756 399.576 401.064 399.732C399.372 399.888 396.432 402.048 395.508 405.756C394.584 409.464 396.588 412.86 396.9 414.096C397.212 415.332 397.212 416.412 397.212 416.412C397.212 416.412 383.772 416.88 381.3 416.88C378.828 416.88 376.356 418.272 376.356 420.588C376.356 422.904 378.984 424.14 378.984 424.14L380.22 424.752C380.22 424.752 378.672 427.692 379.752 429.228C380.832 430.776 381.912 431.544 381.912 431.544C381.912 431.544 380.832 432.936 381.6 434.784C382.368 436.632 383.604 437.412 383.604 437.412C383.604 437.412 381.6 439.26 384.216 441.732C386.844 444.204 392.556 444.36 396.576 444.36C400.596 444.36 403.992 444.516 403.992 444.516L405.696 444.672L419.904 465.828L433.344 450.84C433.344 450.84 413.568 431.688 410.952 428.292C408.324 424.896 402.768 415.476 402.768 415.476L402.756 415.488Z" fill="#B5B5B5" stroke="#263238" stroke-miterlimit="10"/>
<path d="M432.864 449.1L414.408 466.428C414.408 466.428 431.364 489.036 440.4 500.328C449.436 511.62 466.02 513.516 473.172 507.864C480.324 502.212 481.08 489.408 474.684 481.5C468.276 473.592 432.864 449.1 432.864 449.1Z" fill="#92E3A9" stroke="#263238" stroke-miterlimit="10"/>
<path d="M309.36 540.12C309.36 540.12 336.456 544.812 338.988 544.812C341.52 544.812 368.256 537.948 370.056 539.388C371.868 540.828 383.784 550.944 386.676 553.836C389.568 556.728 391.008 559.62 391.008 559.62H366.072L358.488 557.808C358.488 557.808 352.056 560.784 348.444 560.784C344.832 560.784 332.748 560.088 332.748 560.088L311.46 559.74C311.46 559.74 304.296 547.692 309.348 540.108L309.36 540.12Z" fill="#B5B5B5" stroke="#263238" stroke-miterlimit="10"/>
<path d="M373.668 559.632C373.668 559.632 367.524 552.768 364.992 550.956C362.46 549.144 359.928 548.424 359.928 548.424" stroke="#263238" stroke-miterlimit="10"/>
<path d="M381.984 559.992C381.984 559.992 370.056 546.984 368.616 545.904C367.176 544.824 363.552 543.732 363.552 543.732" stroke="#263238" stroke-miterlimit="10"/>
<path d="M250.104 527.832C250.104 527.832 239.268 536.508 237.456 542.28C235.644 548.064 238.176 554.928 243.96 557.088C249.744 559.26 314.256 560.436 314.256 560.436C313.2 560.928 308.472 556.5 311.16 550.584C312.984 546.588 318.024 540.828 318.024 540.828L264.192 527.1" fill="#92E3A9"/>
<path d="M250.104 527.832C250.104 527.832 239.268 536.508 237.456 542.28C235.644 548.064 238.176 554.928 243.96 557.088C249.744 559.26 314.256 560.436 314.256 560.436C313.2 560.928 308.472 556.5 311.16 550.584C312.984 546.588 318.024 540.828 318.024 540.828L264.192 527.1" stroke="#263238" stroke-miterlimit="10"/>
<path d="M341.112 557.952H119.712V560.796H341.112V557.952Z" fill="#263238" stroke="#263238" stroke-miterlimit="10"/>
<path d="M260.796 560.796H122.712L109.944 464.772H248.028L260.796 560.796Z" fill="white" stroke="#263238" stroke-miterlimit="10"/>
<path d="M257.988 560.796H119.916L107.148 464.772H245.22L257.988 560.796Z" fill="white" stroke="#263238" stroke-miterlimit="10"/>
<path d="M130.584 560.796H257.556L247.92 488.316C230.916 499.068 210.216 513.096 187.668 530.328C167.34 545.856 147.612 555.204 130.584 560.796Z" fill="#263238" stroke="#263238" stroke-miterlimit="10"/>
<path d="M178.176 520.26C183.186 520.26 187.248 516.51 187.248 511.884C187.248 507.258 183.186 503.508 178.176 503.508C173.166 503.508 169.104 507.258 169.104 511.884C169.104 516.51 173.166 520.26 178.176 520.26Z" fill="white" stroke="#263238" stroke-miterlimit="10"/>
<path d="M13.4041 560.796H567.6" stroke="#263238" stroke-miterlimit="10"/>
</svg>
