<svg width="600" height="600" viewBox="0 0 600 600" fill="none" xmlns="http://www.w3.org/2000/svg">
<path d="M551.088 165.024C548.196 142.512 542.544 120.924 530.724 101.256C508.74 64.704 469.248 42.636 429.144 31.44C395.544 22.056 359.352 19.344 325.836 29.04C289.044 39.684 258.168 64.188 225.036 83.4C200.88 97.404 175.38 109.008 149.316 118.992C128.22 127.068 101.412 131.592 84.0721 146.94C73.4401 156.348 64.0801 167.22 56.0521 178.92C23.6881 226.092 13.1401 286.356 18.1441 342.612C21.6241 381.816 32.4121 421.464 56.5921 452.52C90.5161 496.08 148.752 517.548 203.7 512.136C266.064 505.992 325.2 468.708 387.216 477.66C418.092 482.112 447.636 497.976 478.692 495.024C509.304 492.12 535.5 471.072 553.968 446.484C568.776 426.768 578.628 402.924 579.54 378.108C580.524 351.228 568.368 326.736 562.26 301.068C551.592 256.2 556.908 210.324 551.088 165.036V165.024Z" fill="#92E3A9"/>
<path opacity="0.7" d="M551.088 165.024C548.196 142.512 542.544 120.924 530.724 101.256C508.74 64.704 469.248 42.636 429.144 31.44C395.544 22.056 359.352 19.344 325.836 29.04C289.044 39.684 258.168 64.188 225.036 83.4C200.88 97.404 175.38 109.008 149.316 118.992C128.22 127.068 101.412 131.592 84.0721 146.94C73.4401 156.348 64.0801 167.22 56.0521 178.92C23.6881 226.092 13.1401 286.356 18.1441 342.612C21.6241 381.816 32.4121 421.464 56.5921 452.52C90.5161 496.08 148.752 517.548 203.7 512.136C266.064 505.992 325.2 468.708 387.216 477.66C418.092 482.112 447.636 497.976 478.692 495.024C509.304 492.12 535.5 471.072 553.968 446.484C568.776 426.768 578.628 402.924 579.54 378.108C580.524 351.228 568.368 326.736 562.26 301.068C551.592 256.2 556.908 210.324 551.088 165.036V165.024Z" fill="white"/>
<path d="M401.916 378.288H577.044V371.688H401.916V378.288Z" stroke="#263238" stroke-linecap="round" stroke-linejoin="round"/>
<path d="M410.04 556.8H568.92V378.48H410.04V556.8Z" stroke="#263238" stroke-linecap="round" stroke-linejoin="round"/>
<path d="M415.764 425.472H563.4V386.784H415.764V425.472Z" stroke="#263238" stroke-linecap="round" stroke-linejoin="round"/>
<path d="M482.448 409.68H497.208V402.552H482.448V409.68Z" fill="#263238" stroke="#263238" stroke-linecap="round" stroke-linejoin="round"/>
<path d="M415.764 474.348H563.4V435.66H415.764V474.348Z" stroke="#263238" stroke-linecap="round" stroke-linejoin="round"/>
<path d="M482.448 458.568H497.208V451.44H482.448V458.568Z" fill="#263238" stroke="#263238" stroke-linecap="round" stroke-linejoin="round"/>
<path d="M415.764 523.44H563.4V484.752H415.764V523.44Z" stroke="#263238" stroke-linecap="round" stroke-linejoin="round"/>
<path d="M482.448 507.66H497.208V500.532H482.448V507.66Z" fill="#263238" stroke="#263238" stroke-linecap="round" stroke-linejoin="round"/>
<path d="M496.752 293.676C498.54 294.456 502.92 294.36 502.92 294.36C502.968 294.36 501.984 291.492 501.9 291.324C500.94 289.32 497.904 285.996 495.432 286.332C493.656 286.572 492.66 288.36 493.068 290.028C493.476 291.744 495.24 293.016 496.764 293.676H496.752Z" fill="#263238"/>
<path d="M541.044 294.636C541.044 294.636 541.836 291.732 541.872 291.54C542.184 289.332 541.476 284.892 539.232 283.8C537.612 283.02 535.8 283.956 535.212 285.576C534.612 287.232 535.368 289.26 536.28 290.652C537.336 292.296 541.044 294.624 541.056 294.624L541.044 294.636Z" fill="#263238"/>
<path d="M554.112 278.772C551.628 278.508 548.688 281.904 547.776 283.944C547.692 284.124 546.792 287.016 546.84 287.016H546.888C546.42 287.544 545.916 288.12 545.388 288.768C544.416 289.956 543.336 291.312 542.256 292.872C541.176 294.42 540.036 296.136 539.004 298.056C537.972 299.976 536.976 302.04 536.22 304.308C536.22 304.332 536.208 304.356 536.196 304.392C536.208 303.66 536.172 301.62 536.16 301.464C535.872 299.256 534.024 295.152 531.564 294.696C529.8 294.372 528.3 295.752 528.156 297.468C528.012 299.22 529.284 300.984 530.52 302.088C531.924 303.336 535.8 304.548 536.112 304.644C535.416 306.804 534.888 309.084 534.468 311.424C534.228 312.756 534.036 314.112 533.844 315.468C533.844 314.832 533.82 314.268 533.808 314.196C533.52 311.988 531.672 307.884 529.212 307.428C527.448 307.104 525.948 308.484 525.804 310.2C525.66 311.952 526.932 313.716 528.168 314.82C529.428 315.948 532.716 317.04 533.592 317.328C533.532 317.844 533.46 318.372 533.4 318.888C533.1 321.396 532.812 323.892 532.452 326.328C532.332 327.192 532.176 328.032 532.02 328.872C532.02 328.308 531.996 327.84 531.984 327.768C531.696 325.56 529.848 321.456 527.388 321C525.624 320.676 524.124 322.056 523.98 323.772C523.836 325.524 525.108 327.288 526.344 328.392C527.544 329.46 530.568 330.504 531.612 330.84C531.432 331.704 531.252 332.556 531.036 333.384C530.88 333.948 530.76 334.5 530.568 335.052C530.388 335.604 530.208 336.156 530.04 336.696C529.668 337.728 529.284 338.796 528.9 339.792C528.636 340.488 528.372 341.148 528.096 341.808C528.228 340.956 528.456 339.276 528.468 339.132C528.504 337.656 527.976 335.244 526.932 333.552C526.932 333.336 526.932 333.12 526.896 332.904C526.62 331.2 525.024 329.94 523.284 330.396C520.872 331.032 519.348 335.268 519.228 337.488C519.228 337.62 519.312 339.048 519.372 339.948C519.252 339.42 519.144 338.916 519.012 338.376C518.76 337.308 518.472 336.252 518.172 335.112C518.004 334.572 517.836 334.02 517.668 333.468C517.512 332.916 517.284 332.352 517.08 331.776C516.6 330.468 516.06 329.172 515.472 327.876C516.408 327.648 519.708 326.808 521.028 325.788C522.348 324.78 523.752 323.124 523.74 321.36C523.728 319.632 522.336 318.144 520.548 318.336C518.064 318.6 515.916 322.56 515.472 324.732C515.448 324.864 515.292 326.472 515.232 327.348C514.872 326.568 514.524 325.8 514.14 325.02C513.036 322.788 511.836 320.568 510.66 318.336C510.3 317.652 509.952 316.968 509.592 316.284C509.928 316.212 513.876 315.288 515.352 314.148C516.672 313.14 518.076 311.484 518.064 309.72C518.052 307.992 516.66 306.504 514.872 306.696C512.388 306.96 510.24 310.92 509.784 313.092C509.748 313.26 509.544 315.564 509.52 316.152C508.74 314.652 507.972 313.14 507.276 311.628C506.316 309.54 505.488 307.44 504.84 305.34C504.996 305.304 509.112 304.368 510.636 303.204C511.956 302.196 513.36 300.54 513.348 298.776C513.336 297.048 511.944 295.56 510.156 295.752C507.672 296.016 505.524 299.976 505.08 302.148C505.056 302.292 504.888 304.044 504.828 304.884C504.756 304.884 504.768 304.884 504.684 304.896C504.012 302.64 503.652 300.372 503.412 298.236C503.268 297 503.208 295.8 503.172 294.648C503.952 294.552 507.54 294.072 509.028 293.172C510.456 292.308 512.028 290.82 512.208 289.068C512.388 287.352 511.164 285.72 509.376 285.708C506.88 285.708 504.312 289.392 503.616 291.516C503.58 291.636 503.328 292.848 503.16 293.736C503.16 293.208 503.136 292.668 503.136 292.164C503.136 290.28 503.256 288.552 503.376 287.016C503.448 286.152 503.532 285.36 503.616 284.628C504.336 284.136 507.228 282.096 508.116 280.644C508.98 279.228 509.688 277.176 509.04 275.532C508.404 273.924 506.568 273.036 504.972 273.864C502.752 275.004 502.176 279.468 502.536 281.664C502.572 281.856 503.4 284.772 503.448 284.736C503.448 284.736 503.484 284.712 503.496 284.712C503.4 285.42 503.304 286.176 503.208 287.004C503.052 288.528 502.896 290.268 502.86 292.152C502.812 294.048 502.812 296.1 503.004 298.272C503.196 300.444 503.508 302.724 504.132 305.016C504.132 305.04 504.144 305.064 504.156 305.1C503.76 304.488 502.608 302.796 502.5 302.676C501.048 300.996 497.232 298.596 494.94 299.568C493.284 300.276 492.804 302.256 493.632 303.768C494.484 305.316 496.512 306.072 498.156 306.312C500.016 306.588 503.916 305.448 504.228 305.352C504.84 307.536 505.656 309.732 506.592 311.904C507.132 313.152 507.708 314.388 508.308 315.612C507.948 315.084 507.624 314.628 507.576 314.568C506.124 312.888 502.308 310.488 500.016 311.46C498.36 312.168 497.88 314.148 498.708 315.648C499.56 317.196 501.588 317.952 503.232 318.192C504.9 318.432 508.248 317.532 509.136 317.292C509.376 317.76 509.604 318.24 509.832 318.708C510.96 320.964 512.1 323.208 513.156 325.44C513.528 326.232 513.864 327.012 514.2 327.804C513.888 327.336 513.612 326.952 513.564 326.904C512.112 325.224 508.296 322.824 506.004 323.796C504.348 324.504 503.868 326.484 504.696 327.996C505.548 329.544 507.576 330.3 509.22 330.54C510.816 330.768 513.912 329.976 514.968 329.676C515.292 330.492 515.616 331.308 515.892 332.124C516.072 332.676 516.276 333.204 516.42 333.768C516.576 334.332 516.732 334.884 516.888 335.424C517.14 336.492 517.416 337.584 517.632 338.628C517.788 339.348 517.932 340.044 518.076 340.752C517.716 339.96 516.984 338.436 516.9 338.316C515.712 336.432 512.316 333.48 509.904 334.104C508.164 334.548 507.384 336.432 507.972 338.052C508.572 339.708 510.468 340.764 512.064 341.256C513.816 341.796 517.692 341.304 518.184 341.232C518.412 342.396 518.628 343.524 518.82 344.592C519.228 346.932 519.54 349.032 519.78 350.82H509.952V371.496H535.788V350.82H525.792C526.44 349.38 527.148 347.748 527.892 345.936C528.348 344.832 528.816 343.632 529.284 342.396C529.752 342.492 533.592 343.272 535.38 342.876C537 342.504 538.968 341.592 539.7 339.984C540.408 338.412 539.772 336.48 538.068 335.904C535.704 335.112 532.092 337.8 530.772 339.588C530.688 339.696 529.98 340.932 529.536 341.724C529.728 341.22 529.908 340.728 530.1 340.212C530.472 339.18 530.82 338.148 531.204 337.032C531.372 336.492 531.528 335.94 531.696 335.376C531.876 334.824 531.984 334.224 532.14 333.648C532.464 332.292 532.716 330.912 532.956 329.52C533.856 329.844 537.072 330.972 538.74 330.852C540.396 330.732 542.484 330.12 543.444 328.656C544.38 327.216 544.044 325.2 542.448 324.372C540.228 323.232 536.256 325.332 534.672 326.904C534.576 327 533.568 328.26 533.028 328.956C533.16 328.116 533.292 327.276 533.4 326.412C533.712 323.94 533.94 321.42 534.18 318.924C534.252 318.156 534.336 317.388 534.42 316.632C534.744 316.752 538.536 318.168 540.408 318.036C542.064 317.916 544.152 317.304 545.112 315.84C546.048 314.4 545.712 312.384 544.116 311.556C541.896 310.416 537.924 312.516 536.352 314.088C536.232 314.208 534.792 316.02 534.444 316.488C534.624 314.808 534.816 313.128 535.068 311.484C535.416 309.216 535.896 307.008 536.508 304.896C536.652 304.956 540.612 306.444 542.52 306.312C544.176 306.192 546.264 305.58 547.224 304.104C548.16 302.664 547.824 300.648 546.228 299.82C544.008 298.68 540.036 300.78 538.464 302.352C538.356 302.46 537.264 303.828 536.748 304.5C536.676 304.464 536.688 304.476 536.616 304.44C537.3 302.196 538.248 300.096 539.232 298.188C539.796 297.072 540.408 296.052 541.02 295.056C541.728 295.404 544.98 296.988 546.72 297.06C548.388 297.132 550.524 296.748 551.64 295.392C552.732 294.06 552.624 292.02 551.124 291.024C549.048 289.644 544.86 291.3 543.12 292.692C543.024 292.764 542.148 293.64 541.512 294.288C541.8 293.844 542.076 293.388 542.352 292.968C543.396 291.396 544.452 290.016 545.388 288.816C545.928 288.132 546.432 287.52 546.912 286.956C547.788 286.944 551.316 286.836 552.864 286.104C554.364 285.396 556.092 284.076 556.452 282.36C556.812 280.668 555.768 278.916 553.98 278.724L554.112 278.772ZM526.644 345.408C525.744 347.472 524.892 349.308 524.136 350.868H521.52C521.232 349.02 520.86 346.836 520.38 344.376C520.152 343.2 519.876 341.94 519.588 340.656C519.876 340.536 521.532 339.876 522.996 339.048C524.268 340.428 527.544 342.048 527.964 342.252C527.52 343.344 527.076 344.412 526.644 345.396V345.408Z" fill="#263238"/>
<path d="M34.1641 380.352L48.0841 513.708" stroke="#263238" stroke-width="2" stroke-miterlimit="10"/>
<path d="M45.8401 488.184L39.5281 481.524" stroke="#263238" stroke-width="2" stroke-miterlimit="10"/>
<path d="M41.4481 483.516C41.4481 483.516 41.6281 480.564 38.9401 478.164C37.3201 476.712 28.8001 473.136 27.9841 476.136C27.1081 479.4 35.8321 485.808 41.4481 483.516Z" fill="#92E3A9" stroke="#263238" stroke-miterlimit="10"/>
<path d="M41.4482 483.516L33.3362 478.464" stroke="#263238" stroke-width="0.5" stroke-miterlimit="10"/>
<path d="M47.4241 503.352L41.1121 496.692" stroke="#263238" stroke-width="2" stroke-miterlimit="10"/>
<path d="M43.0321 498.684C43.0321 498.684 43.2121 495.732 40.5241 493.332C38.9041 491.88 30.3841 488.304 29.5681 491.304C28.6921 494.568 37.4161 500.976 43.0321 498.684Z" fill="#92E3A9" stroke="#263238" stroke-miterlimit="10"/>
<path d="M43.0322 498.684L34.9202 493.632" stroke="#263238" stroke-width="0.5" stroke-miterlimit="10"/>
<path d="M41.9761 451.176L35.6641 444.516" stroke="#263238" stroke-width="2" stroke-miterlimit="10"/>
<path d="M37.5841 446.508C37.5841 446.508 37.7641 443.556 35.0761 441.156C33.4561 439.704 24.9361 436.128 24.1201 439.128C23.2441 442.392 31.9681 448.8 37.5841 446.508Z" fill="#92E3A9" stroke="#263238" stroke-miterlimit="10"/>
<path d="M37.5842 446.508L29.4722 441.456" stroke="#263238" stroke-width="0.5" stroke-miterlimit="10"/>
<path d="M43.56 466.344L37.248 459.684" stroke="#263238" stroke-width="2" stroke-miterlimit="10"/>
<path d="M39.168 461.676C39.168 461.676 39.348 458.724 36.66 456.324C35.04 454.872 26.52 451.296 25.704 454.296C24.828 457.56 33.552 463.968 39.168 461.676Z" fill="#92E3A9" stroke="#263238" stroke-miterlimit="10"/>
<path d="M39.1682 461.676L31.0562 456.624" stroke="#263238" stroke-width="0.5" stroke-miterlimit="10"/>
<path d="M39.4082 426.54L33.0962 419.868" stroke="#263238" stroke-width="2" stroke-miterlimit="10"/>
<path d="M35.0162 421.872C35.0162 421.872 35.1962 418.92 32.5082 416.52C30.8882 415.068 22.3682 411.492 21.5522 414.492C20.6762 417.756 29.4002 424.164 35.0162 421.872Z" fill="#92E3A9" stroke="#263238" stroke-miterlimit="10"/>
<path d="M35.0163 421.872L26.9043 416.82" stroke="#263238" stroke-width="0.5" stroke-miterlimit="10"/>
<path d="M36.8281 401.796L30.5161 395.124" stroke="#263238" stroke-width="2" stroke-miterlimit="10"/>
<path d="M32.4361 397.128C32.4361 397.128 32.6161 394.176 29.9281 391.776C28.3081 390.324 19.7881 386.748 18.9721 389.748C18.0961 393.012 26.8201 399.42 32.4361 397.128Z" fill="#92E3A9" stroke="#263238" stroke-miterlimit="10"/>
<path d="M32.436 397.128L24.312 392.064" stroke="#263238" stroke-width="0.5" stroke-miterlimit="10"/>
<path d="M44.7842 479.208L49.5722 471.384" stroke="#263238" stroke-width="2" stroke-miterlimit="10"/>
<path d="M48.1082 473.736C48.1082 473.736 47.3282 470.892 49.4642 467.976C50.7482 466.224 58.3442 460.956 59.7602 463.728C61.2962 466.74 54.0842 474.816 48.1082 473.736Z" fill="#92E3A9" stroke="#263238" stroke-miterlimit="10"/>
<path d="M48.1082 473.736L55.4162 466.752" stroke="#263238" stroke-width="0.5" stroke-miterlimit="10"/>
<path d="M40.6082 439.296L45.4082 431.472" stroke="#263238" stroke-width="2" stroke-miterlimit="10"/>
<path d="M43.9441 433.824C43.9441 433.824 43.1641 430.98 45.3001 428.064C46.5841 426.312 54.1801 421.044 55.5961 423.816C57.1321 426.828 49.9201 434.904 43.9441 433.824Z" fill="#92E3A9" stroke="#263238" stroke-miterlimit="10"/>
<path d="M43.9441 433.824L51.2521 426.84" stroke="#263238" stroke-width="0.5" stroke-miterlimit="10"/>
<path d="M38.7842 421.764L43.5842 413.94" stroke="#263238" stroke-width="2" stroke-miterlimit="10"/>
<path d="M42.1202 416.292C42.1202 416.292 41.3402 413.448 43.4762 410.532C44.7602 408.78 52.3562 403.512 53.7722 406.284C55.3082 409.296 48.0962 417.372 42.1202 416.292Z" fill="#92E3A9" stroke="#263238" stroke-miterlimit="10"/>
<path d="M42.1201 416.292L49.4281 409.308" stroke="#263238" stroke-width="0.5" stroke-miterlimit="10"/>
<path d="M36.0959 396.048L40.8959 388.224" stroke="#263238" stroke-width="2" stroke-miterlimit="10"/>
<path d="M39.4319 390.576C39.4319 390.576 38.6519 387.732 40.7879 384.816C42.0719 383.064 49.6679 377.796 51.0839 380.568C52.6199 383.58 45.4079 391.656 39.4319 390.576Z" fill="#92E3A9" stroke="#263238" stroke-miterlimit="10"/>
<path d="M39.4319 390.576L46.7399 383.592" stroke="#263238" stroke-width="0.5" stroke-miterlimit="10"/>
<path d="M34.044 379.608C34.044 379.608 33.264 376.764 35.4 373.848C36.684 372.096 44.28 366.828 45.696 369.6C47.232 372.612 40.02 380.688 34.044 379.608Z" fill="#92E3A9" stroke="#263238" stroke-miterlimit="10"/>
<path d="M34.0439 379.608L41.3519 372.624" stroke="#263238" stroke-width="0.5" stroke-miterlimit="10"/>
<path d="M34.476 379.908C34.476 379.908 31.56 380.388 28.896 377.964C27.288 376.5 22.848 368.388 25.752 367.284C28.908 366.072 36.18 374.088 34.476 379.92V379.908Z" fill="#92E3A9" stroke="#263238" stroke-miterlimit="10"/>
<path d="M34.4759 379.908L28.2959 371.904" stroke="#263238" stroke-width="0.5" stroke-miterlimit="10"/>
<path d="M70.8719 398.712L57.0359 532.08" stroke="#263238" stroke-width="2" stroke-miterlimit="10"/>
<path d="M60.0959 506.64L55.2959 498.828" stroke="#263238" stroke-width="2" stroke-miterlimit="10"/>
<path d="M56.76 501.168C56.76 501.168 57.54 498.324 55.404 495.408C54.12 493.656 46.512 488.4 45.108 491.172C43.572 494.184 50.796 502.26 56.76 501.168Z" fill="#92E3A9" stroke="#263238" stroke-miterlimit="10"/>
<path d="M56.7601 501.168L49.8601 494.556" stroke="#263238" stroke-width="0.5" stroke-miterlimit="10"/>
<path d="M63.936 469.632L59.136 461.808" stroke="#263238" stroke-width="2" stroke-miterlimit="10"/>
<path d="M60.6001 464.16C60.6001 464.16 61.3801 461.316 59.2441 458.4C57.9601 456.648 50.3521 451.392 48.9481 454.164C47.4121 457.176 54.6361 465.252 60.6001 464.16Z" fill="#92E3A9" stroke="#263238" stroke-miterlimit="10"/>
<path d="M60.6002 464.16L53.7002 457.536" stroke="#263238" stroke-width="0.5" stroke-miterlimit="10"/>
<path d="M62.364 484.8L57.564 476.976" stroke="#263238" stroke-width="2" stroke-miterlimit="10"/>
<path d="M59.0281 479.328C59.0281 479.328 59.8081 476.484 57.6721 473.568C56.3881 471.816 48.7801 466.56 47.3761 469.332C45.8401 472.344 53.0641 480.42 59.0281 479.328Z" fill="#92E3A9" stroke="#263238" stroke-miterlimit="10"/>
<path d="M59.0282 479.328L52.1282 472.704" stroke="#263238" stroke-width="0.5" stroke-miterlimit="10"/>
<path d="M66.4919 444.996L61.6919 437.172" stroke="#263238" stroke-width="2" stroke-miterlimit="10"/>
<path d="M63.156 439.524C63.156 439.524 63.936 436.68 61.8 433.764C60.516 432.012 52.908 426.756 51.504 429.528C49.968 432.54 57.192 440.616 63.156 439.524Z" fill="#92E3A9" stroke="#263238" stroke-miterlimit="10"/>
<path d="M63.1561 439.524L56.2561 432.9" stroke="#263238" stroke-width="0.5" stroke-miterlimit="10"/>
<path d="M69.06 420.252L64.26 412.428" stroke="#263238" stroke-width="2" stroke-miterlimit="10"/>
<path d="M65.7241 414.78C65.7241 414.78 66.5041 411.936 64.3681 409.02C63.0841 407.268 55.4761 402.012 54.0721 404.784C52.5361 407.796 59.7601 415.872 65.7241 414.78Z" fill="#92E3A9" stroke="#263238" stroke-miterlimit="10"/>
<path d="M65.7242 414.78L58.8242 408.156" stroke="#263238" stroke-width="0.5" stroke-miterlimit="10"/>
<path d="M60.8999 497.64L67.2119 490.98" stroke="#263238" stroke-width="2" stroke-miterlimit="10"/>
<path d="M65.2918 492.972C65.2918 492.972 65.1118 490.02 67.7998 487.62C69.4198 486.168 77.9398 482.58 78.7558 485.58C79.6318 488.844 70.9198 495.264 65.2918 492.972Z" fill="#92E3A9" stroke="#263238" stroke-miterlimit="10"/>
<path d="M65.292 492.972L73.884 487.644" stroke="#263238" stroke-width="0.5" stroke-miterlimit="10"/>
<path d="M65.04 457.728L71.352 451.068" stroke="#263238" stroke-width="2" stroke-miterlimit="10"/>
<path d="M69.432 453.06C69.432 453.06 69.252 450.108 71.94 447.708C73.56 446.256 82.08 442.668 82.896 445.668C83.772 448.932 75.06 455.352 69.432 453.06Z" fill="#92E3A9" stroke="#263238" stroke-miterlimit="10"/>
<path d="M69.4321 453.06L78.0241 447.732" stroke="#263238" stroke-width="0.5" stroke-miterlimit="10"/>
<path d="M66.864 440.184L73.176 433.524" stroke="#263238" stroke-width="2" stroke-miterlimit="10"/>
<path d="M71.2559 435.516C71.2559 435.516 71.0759 432.564 73.7639 430.164C75.3839 428.712 83.9039 425.124 84.7199 428.124C85.5959 431.388 76.8839 437.808 71.2559 435.516Z" fill="#92E3A9" stroke="#263238" stroke-miterlimit="10"/>
<path d="M71.2561 435.516L79.8481 430.188" stroke="#263238" stroke-width="0.5" stroke-miterlimit="10"/>
<path d="M69.5278 414.48L75.8398 407.808" stroke="#263238" stroke-width="2" stroke-miterlimit="10"/>
<path d="M73.92 409.8C73.92 409.8 73.74 406.848 76.428 404.448C78.048 402.996 86.568 399.408 87.384 402.408C88.26 405.672 79.548 412.092 73.92 409.8Z" fill="#92E3A9" stroke="#263238" stroke-miterlimit="10"/>
<path d="M73.9199 409.8L82.5119 404.472" stroke="#263238" stroke-width="0.5" stroke-miterlimit="10"/>
<path d="M70.9078 397.968C70.9078 397.968 70.7278 395.016 73.4158 392.616C75.0358 391.164 83.5558 387.576 84.3718 390.576C85.2478 393.84 76.5358 400.26 70.9078 397.968Z" fill="#92E3A9" stroke="#263238" stroke-miterlimit="10"/>
<path d="M70.908 397.968L79.5 392.64" stroke="#263238" stroke-width="0.5" stroke-miterlimit="10"/>
<path d="M71.2679 398.34C71.2679 398.34 68.3159 398.208 66.2039 395.28C64.9319 393.516 62.2559 384.672 65.3279 384.18C68.6639 383.64 74.1359 392.988 71.2679 398.34Z" fill="#92E3A9" stroke="#263238" stroke-miterlimit="10"/>
<path d="M71.268 398.34L66.864 389.244" stroke="#263238" stroke-width="0.5" stroke-miterlimit="10"/>
<path d="M55.0081 344.4V513.06" stroke="#263238" stroke-width="2" stroke-miterlimit="10"/>
<path d="M55.1521 487.704L49.5601 480.42" stroke="#263238" stroke-width="2" stroke-miterlimit="10"/>
<path d="M51.2641 482.604C51.2641 482.604 51.7441 479.688 49.3201 477.024C47.8561 475.416 39.7561 470.964 38.6401 473.868C37.4281 477.024 45.4321 484.308 51.2641 482.604Z" fill="#92E3A9" stroke="#263238" stroke-miterlimit="10"/>
<path d="M51.2641 482.604L43.7161 476.736" stroke="#263238" stroke-width="0.5" stroke-miterlimit="10"/>
<path d="M55.1521 456L49.5601 448.728" stroke="#263238" stroke-width="2" stroke-miterlimit="10"/>
<path d="M51.2641 450.912C51.2641 450.912 51.7441 447.996 49.3201 445.332C47.8561 443.724 39.7561 439.272 38.6401 442.176C37.4281 445.332 45.4321 452.616 51.2641 450.912Z" fill="#92E3A9" stroke="#263238" stroke-miterlimit="10"/>
<path d="M51.2641 450.912L43.7161 445.032" stroke="#263238" stroke-width="0.5" stroke-miterlimit="10"/>
<path d="M55.1521 418.8L49.5601 411.516" stroke="#263238" stroke-width="2" stroke-miterlimit="10"/>
<path d="M51.2641 413.7C51.2641 413.7 51.7441 410.784 49.3201 408.12C47.8561 406.512 39.7561 402.06 38.6401 404.964C37.4281 408.12 45.4321 415.404 51.2641 413.7Z" fill="#92E3A9" stroke="#263238" stroke-miterlimit="10"/>
<path d="M51.2641 413.7L43.7161 407.82" stroke="#263238" stroke-width="0.5" stroke-miterlimit="10"/>
<path d="M55.1521 394.02L49.5601 386.736" stroke="#263238" stroke-width="2" stroke-miterlimit="10"/>
<path d="M51.2641 388.92C51.2641 388.92 51.7441 386.004 49.3201 383.34C47.8561 381.732 39.7561 377.28 38.6401 380.184C37.4281 383.34 45.4321 390.624 51.2641 388.92Z" fill="#92E3A9" stroke="#263238" stroke-miterlimit="10"/>
<path d="M51.2641 388.92L43.7161 383.052" stroke="#263238" stroke-width="0.5" stroke-miterlimit="10"/>
<path d="M55.1521 369.144L49.5601 361.86" stroke="#263238" stroke-width="2" stroke-miterlimit="10"/>
<path d="M51.2641 364.044C51.2641 364.044 51.7441 361.128 49.3201 358.464C47.8561 356.856 39.7561 352.404 38.6401 355.308C37.4281 358.464 45.4321 365.748 51.2641 364.044Z" fill="#92E3A9" stroke="#263238" stroke-miterlimit="10"/>
<path d="M51.2641 364.044L43.7161 358.176" stroke="#263238" stroke-width="0.5" stroke-miterlimit="10"/>
<path d="M55.02 497.376L60.612 490.092" stroke="#263238" stroke-width="2" stroke-miterlimit="10"/>
<path d="M58.908 492.276C58.908 492.276 58.428 489.36 60.852 486.696C62.316 485.088 70.416 480.636 71.532 483.54C72.744 486.696 64.74 493.98 58.908 492.276Z" fill="#92E3A9" stroke="#263238" stroke-miterlimit="10"/>
<path d="M58.908 492.276L66.9 486.096" stroke="#263238" stroke-width="0.5" stroke-miterlimit="10"/>
<path d="M55.02 446.964L60.612 439.692" stroke="#263238" stroke-width="2" stroke-miterlimit="10"/>
<path d="M58.908 441.876C58.908 441.876 58.428 438.96 60.852 436.296C62.316 434.688 70.416 430.236 71.532 433.14C72.744 436.296 64.74 443.58 58.908 441.876Z" fill="#92E3A9" stroke="#263238" stroke-miterlimit="10"/>
<path d="M58.908 441.876L66.9 435.684" stroke="#263238" stroke-width="0.5" stroke-miterlimit="10"/>
<path d="M55.02 422.088L60.612 414.804" stroke="#263238" stroke-width="2" stroke-miterlimit="10"/>
<path d="M58.908 416.988C58.908 416.988 58.428 414.072 60.852 411.408C62.316 409.8 70.416 405.348 71.532 408.252C72.744 411.408 64.74 418.692 58.908 416.988Z" fill="#92E3A9" stroke="#263238" stroke-miterlimit="10"/>
<path d="M58.908 416.988L66.9 410.808" stroke="#263238" stroke-width="0.5" stroke-miterlimit="10"/>
<path d="M55.02 389.208L60.612 381.924" stroke="#263238" stroke-width="2" stroke-miterlimit="10"/>
<path d="M58.908 384.108C58.908 384.108 58.428 381.192 60.852 378.528C62.316 376.92 70.416 372.468 71.532 375.372C72.744 378.528 64.74 385.812 58.908 384.108Z" fill="#92E3A9" stroke="#263238" stroke-miterlimit="10"/>
<path d="M58.908 384.108L66.9 377.916" stroke="#263238" stroke-width="0.5" stroke-miterlimit="10"/>
<path d="M55.0203 363.348L60.6123 356.064" stroke="#263238" stroke-width="2" stroke-miterlimit="10"/>
<path d="M58.9083 358.26C58.9083 358.26 58.4283 355.344 60.8523 352.68C62.3163 351.072 70.4163 346.62 71.5323 349.524C72.7443 352.68 64.7403 359.964 58.9083 358.26Z" fill="#92E3A9" stroke="#263238" stroke-miterlimit="10"/>
<path d="M58.9082 358.26L66.9002 352.068" stroke="#263238" stroke-width="0.5" stroke-miterlimit="10"/>
<path d="M54.6961 346.788C54.6961 346.788 54.2161 343.872 56.6401 341.208C58.1041 339.6 66.2041 335.148 67.3201 338.052C68.5321 341.208 60.5281 348.492 54.6961 346.788Z" fill="#92E3A9" stroke="#263238" stroke-miterlimit="10"/>
<path d="M54.6963 346.788L62.6883 340.596" stroke="#263238" stroke-width="0.5" stroke-miterlimit="10"/>
<path d="M55.0802 347.136C55.0802 347.136 52.1282 347.316 49.7282 344.616C48.2882 342.996 44.7122 334.464 47.7122 333.66C50.9762 332.784 57.3842 341.52 55.0802 347.136Z" fill="#92E3A9" stroke="#263238" stroke-miterlimit="10"/>
<path d="M55.0802 347.136L49.7642 338.532" stroke="#263238" stroke-width="0.5" stroke-miterlimit="10"/>
<path d="M61.9562 556.8H44.0882L41.8562 511.692H64.1882L61.9562 556.8Z" fill="#263238" stroke="#263238" stroke-miterlimit="10"/>
<path d="M138.096 211.416H30.792V40.5959H163.644V211.416H145.068" stroke="#263238" stroke-miterlimit="10"/>
<path d="M158.832 46.788H35.616V205.224H158.832V46.788Z" stroke="#263238" stroke-miterlimit="10"/>
<path d="M60.3 90.1799C62.364 92.0879 64.68 93.9479 67.284 95.7119C95.16 114.624 142.44 105.66 158.364 132.54" stroke="#263238" stroke-miterlimit="10"/>
<path d="M43.8839 47.4359C43.8839 47.4359 40.6439 68.6759 56.8199 86.6639" stroke="#263238" stroke-miterlimit="10"/>
<path d="M54.4441 134.712C68.0401 127.536 85.6441 122.436 94.6561 137.016C105.108 153.936 56.8321 183.804 56.8321 205.2" stroke="#263238" stroke-miterlimit="10"/>
<path d="M35.928 146.976C35.928 146.976 42.132 141.792 50.688 136.8" stroke="#263238" stroke-miterlimit="10"/>
<path d="M100.128 47.4359C100.128 47.4359 118.044 75.3119 158.856 67.8359" stroke="#263238" stroke-miterlimit="10"/>
<path d="M105.48 74.8079C105.564 75.4559 105.6 76.1279 105.6 76.7999C105.6 85.8719 98.2439 93.228 89.1719 93.228C80.0999 93.228 72.7439 85.8719 72.7439 76.7999C72.7439 67.7279 80.0999 60.3719 89.1719 60.3719C95.4719 60.3719 100.944 63.9119 103.692 69.1199" stroke="#263238" stroke-miterlimit="10"/>
<path d="M146.412 98.952C146.412 103.212 142.956 106.668 138.696 106.668C134.436 106.668 130.98 103.212 130.98 98.952C130.98 94.692 134.436 91.236 138.696 91.236C142.956 91.236 146.412 94.692 146.412 98.952Z" stroke="#263238" stroke-miterlimit="10"/>
<path d="M146.508 150.996C150.912 152.148 154.956 154.212 158.4 156.996" stroke="#263238" stroke-miterlimit="10"/>
<path d="M116.952 205.32C110.592 199.5 106.596 191.124 106.596 181.824C106.596 164.232 120.852 149.976 138.444 149.976C139.056 149.976 139.668 149.988 140.28 150.024" stroke="#263238" stroke-miterlimit="10"/>
<path d="M386.4 556.8H577.2" stroke="#263238" stroke-miterlimit="10"/>
<path d="M19.2 556.8H376.8" stroke="#263238" stroke-miterlimit="10"/>
<path d="M474.636 51H232.44V499.668H474.636V51Z" fill="white"/>
<path d="M474.636 423.156H232.44V499.668H474.636V423.156Z" fill="#DEDEDE"/>
<path d="M481.908 139.272C483.564 139.272 484.896 137.928 484.896 136.284V106.368C484.896 104.712 483.552 103.38 481.908 103.38C481.716 103.38 481.524 103.404 481.344 103.44V47.4839C481.344 36.828 472.704 28.2 462.06 28.2H249.48C238.824 28.2 230.196 36.84 230.196 47.4839V499.032C230.196 509.688 238.836 518.316 249.48 518.316H462.06C472.716 518.316 481.344 509.676 481.344 499.032V224.316C481.524 224.352 481.716 224.376 481.908 224.376C483.564 224.376 484.896 223.032 484.896 221.388V191.472C484.896 189.816 483.552 188.484 481.908 188.484C481.716 188.484 481.524 188.508 481.344 188.544V181.788C481.524 181.824 481.716 181.848 481.908 181.848C483.564 181.848 484.896 180.504 484.896 178.86V148.944C484.896 147.288 483.552 145.956 481.908 145.956C481.716 145.956 481.524 145.98 481.344 146.016V139.26C481.524 139.296 481.716 139.32 481.908 139.32V139.272ZM470.172 489.228H241.356V61.464H470.172V489.216V489.228Z" fill="#263238"/>
<path d="M462.384 65.9039H443.412V76.3079H462.384V65.9039Z" stroke="#263238" stroke-width="0.82" stroke-linecap="round" stroke-linejoin="round"/>
<path d="M458.208 65.9039H443.412V76.3079H458.208V65.9039Z" fill="#263238" stroke="#263238" stroke-width="0.73" stroke-linecap="round" stroke-linejoin="round"/>
<path d="M465.024 68.8199H462.348V73.4039H465.024V68.8199Z" fill="#263238" stroke="#263238" stroke-width="0.73" stroke-linecap="round" stroke-linejoin="round"/>
<path d="M249.984 69.132H246.504V75.096H249.984V69.132Z" fill="#263238" stroke="#263238" stroke-width="0.88" stroke-linecap="round" stroke-linejoin="round"/>
<path d="M255.456 67.0439H251.976V75.0959H255.456V67.0439Z" fill="#263238" stroke="#263238" stroke-width="0.88" stroke-linecap="round" stroke-linejoin="round"/>
<path d="M260.916 64.5599H257.436V75.0959H260.916V64.5599Z" fill="#263238" stroke="#263238" stroke-width="0.88" stroke-linecap="round" stroke-linejoin="round"/>
<path d="M464.772 82.0919H245.04V139.836H464.772V82.0919Z" fill="#92E3A9"/>
<path d="M300.576 90.408V132.804" stroke="white" stroke-miterlimit="10"/>
<path d="M356.568 90.408V132.804" stroke="white" stroke-miterlimit="10"/>
<path d="M412.572 90.408V132.804" stroke="white" stroke-miterlimit="10"/>
<path opacity="0.15" d="M479.364 224.316C479.544 224.352 479.736 224.376 479.928 224.376C481.584 224.376 482.916 223.032 482.916 221.388V210.672L468.192 236.64V489.24H324.948L308.448 518.328H460.068C470.724 518.328 479.352 509.688 479.352 499.044V224.328L479.364 224.316Z" fill="white"/>
<path d="M346.476 338.916C346.476 334.32 346.476 329.736 346.476 325.14H346.464C348.744 325.152 351.024 325.152 353.316 325.152V318.252H346.464H346.476C346.476 315.972 346.464 313.668 346.452 311.376H360.24V304.536H367.104V311.352H373.992V297.624H373.98C374.268 297.636 374.556 297.624 374.856 297.624C381.444 297.624 388.044 297.624 394.632 297.624V304.476H401.46V297.648H394.608V290.736H380.832V277.044H360.192V283.908H346.5V297.672H353.304V304.536H346.464V311.412H339.588V304.524H318.96V297.66H339.552V242.604H346.464H346.452C346.452 249.216 346.452 255.84 346.452 262.464C346.452 262.692 346.452 262.932 346.452 263.196H353.328V249.504H360.192V263.244H367.104H367.092V270.096H401.484V276.96H408.372V283.872H408.384C406.104 283.86 403.824 283.86 401.532 283.86V290.76H408.384H408.372V304.524H415.272H415.26V318.252H408.432V332.052H415.284H415.272V338.904H429.012V345.768H408.42V359.52H401.556V352.656H387.756H387.768V345.792H380.904V338.928H394.596V332.052H360.264V338.892H346.464H346.476V338.916ZM387.732 318.276V311.424H380.904V318.264H387.756V325.116H401.46V318.288H387.732V318.276ZM373.956 318.312H367.152V325.116H373.956V318.312ZM387.768 283.836H394.572V277.032H387.768V283.836Z" fill="#263238"/>
<path d="M284.568 263.196V215.112H332.652V263.196H284.568ZM291.468 221.976V256.308H325.8V221.976H291.468Z" fill="#263238"/>
<path d="M428.976 263.208H380.892V215.124H428.976V263.208ZM422.112 222H387.78V256.332H422.112V222Z" fill="#263238"/>
<path d="M284.58 311.412H332.664V359.496H284.58V311.412ZM325.8 318.312H291.468V352.644H325.8V318.312Z" fill="#263238"/>
<path d="M346.464 242.604V228.852H339.612V215.124H373.944V228.816H367.152V235.704H373.956V249.432H367.116V242.604H360.252V235.74H353.388V242.58C351.036 242.58 348.756 242.58 346.464 242.58H346.476L346.464 242.604ZM353.364 228.792H360.168V221.988H353.364V228.792Z" fill="#263238"/>
<path d="M318.936 276.984V283.86H332.676V290.724H312.084V304.476H284.592V290.784H291.408V297.576H305.196V276.972H305.184C309.78 276.984 314.364 276.984 318.96 276.984H318.948H318.936Z" fill="#263238"/>
<path d="M346.452 338.904V345.78H353.316V352.644H360.18V359.52H339.624V338.916H346.464H346.452V338.904Z" fill="#263238"/>
<path d="M305.196 276.984H291.444V283.836H284.592V270.156H305.172V277.008H305.184L305.196 276.984Z" fill="#263238"/>
<path d="M428.976 290.724H422.148V277.008H415.284V270.132H428.964V290.712L428.976 290.724Z" fill="#263238"/>
<path d="M318.948 277.008V270.156H332.664V276.984H318.936L318.948 276.996V277.008Z" fill="#263238"/>
<path d="M415.272 304.524V297.672H422.112V304.5H415.26H415.272V304.524Z" fill="#263238"/>
<path d="M422.172 311.424H428.976V318.24H422.172V311.424Z" fill="#263238"/>
<path d="M367.104 263.244V256.392H373.944V263.22H367.092H367.104V263.244Z" fill="#263238"/>
<path d="M346.476 325.14H339.624V318.276H346.476H346.464V325.152H346.476V325.14Z" fill="#263238"/>
<path d="M415.272 332.04V325.188H422.112V332.016H415.26H415.272V332.04Z" fill="#263238"/>
<path d="M408.372 283.884H415.224V290.748H408.372H408.384V283.872H408.372V283.884Z" fill="#263238"/>
<path d="M373.944 352.644H367.14V345.84H373.944V352.644Z" fill="#263238"/>
<path d="M387.732 352.656V359.508H380.892V352.68C383.172 352.68 385.464 352.68 387.744 352.68H387.732V352.656Z" fill="#263238"/>
<path d="M428.976 359.532H422.172V352.728H428.976V359.532Z" fill="#263238"/>
<path d="M373.992 297.624H367.14V290.784H373.968V297.636L373.98 297.624H373.992Z" fill="#263238"/>
<path d="M318.9 249.444H298.332V228.876H318.9V249.444Z" fill="#263238"/>
<path d="M394.644 249.432V228.864H415.212V249.432H394.644Z" fill="#263238"/>
<path d="M298.332 345.756V325.188H318.9V345.756H298.332Z" fill="#263238"/>
<path d="M304.548 198.804H274.428V232.032" stroke="#92E3A9" stroke-width="2" stroke-miterlimit="10"/>
<path d="M414.084 198.804H444.192V232.032" stroke="#92E3A9" stroke-width="2" stroke-miterlimit="10"/>
<path d="M304.548 373.788H274.428V340.56" stroke="#92E3A9" stroke-width="2" stroke-miterlimit="10"/>
<path d="M414.084 373.788H444.192V340.56" stroke="#92E3A9" stroke-width="2" stroke-miterlimit="10"/>
<path d="M212.904 206.004H202.908C201.139 206.004 199.704 207.438 199.704 209.208V237.204C199.704 238.973 201.139 240.408 202.908 240.408H212.904C214.674 240.408 216.108 238.973 216.108 237.204V209.208C216.108 207.438 214.674 206.004 212.904 206.004Z" fill="#263238" stroke="#263238" stroke-miterlimit="10"/>
<path d="M214.644 209.04H201.144V237.36H214.644V209.04Z" fill="white" stroke="#263238" stroke-miterlimit="10"/>
<path d="M69.1922 374.604C74.7362 374.724 79.6082 372.552 82.7762 370.644C82.5122 378.3 82.3082 384.096 82.3082 384.096C82.3082 384.096 83.6282 386.4 84.2882 387.396C84.9482 388.38 90.5522 391.68 91.2122 394.656C91.8722 397.62 94.8362 399.276 94.5122 403.56C94.1882 407.844 90.5522 403.236 91.2122 404.22C91.8722 405.216 93.8522 408.504 93.8522 411.48C93.8522 414.456 87.5882 414.444 85.2722 412.464C82.9682 410.484 75.3722 405.864 74.7122 401.58L72.1442 392.004L69.1802 374.592L69.1922 374.604Z" fill="white" stroke="#263238" stroke-miterlimit="10"/>
<path d="M82.8962 398.4L84.4922 405.6C84.4922 405.6 89.6882 409.596 90.0962 412.404" fill="white"/>
<path d="M82.8962 398.4L84.4922 405.6C84.4922 405.6 89.6882 409.596 90.0962 412.404" stroke="#263238" stroke-miterlimit="10"/>
<path d="M91.2242 404.232L88.8962 399.6" stroke="#263238" stroke-miterlimit="10"/>
<path d="M108.828 550.524C108.828 550.524 106.956 565.968 108.408 567.84C109.872 569.712 112.164 572.016 115.5 572.436C118.836 572.856 124.476 570.972 124.476 570.972C124.476 570.972 130.104 572.64 136.164 572.016C142.212 571.392 146.184 569.1 146.592 566.172C147.012 563.256 141.792 561.996 138.876 558.864C135.96 555.732 131.304 550.188 131.304 550.188L130.116 546.132C130.116 546.132 123.024 549.684 118.428 549.888C113.832 550.092 110.712 549.264 110.712 549.264L108.84 550.512L108.828 550.524Z" fill="white" stroke="#263238" stroke-miterlimit="10"/>
<path d="M146.592 566.172C146.64 565.812 146.604 565.464 146.496 565.152C145.104 565.728 143.34 566.412 141.168 567.216C134.904 569.508 131.784 567.636 128.652 567.636C125.52 567.636 125.316 570.972 116.556 568.68C110.832 567.18 108.672 565.236 107.868 564.072C107.88 565.92 108.036 567.348 108.42 567.84C109.884 569.712 112.176 572.016 115.512 572.436C118.848 572.856 124.488 570.972 124.488 570.972C124.488 570.972 130.116 572.64 136.176 572.016C142.224 571.392 146.196 569.1 146.604 566.172H146.592Z" fill="white" stroke="#263238" stroke-miterlimit="10"/>
<path d="M97.7041 358.8C97.7041 358.8 89.3041 387 92.3041 406.8C95.3041 426.6 109.704 463.8 109.704 463.8C109.704 463.8 107.904 477.6 107.904 482.4C107.904 487.2 103.704 496.2 106.704 505.8C109.704 515.4 109.704 540.6 109.704 542.4C109.704 544.2 108.504 553.8 108.504 553.8C108.504 553.8 110.904 557.4 119.904 557.4C128.904 557.4 131.304 550.2 131.304 550.2C131.304 550.2 140.304 496.8 140.304 488.4C140.304 480 149.904 448.8 153.504 436.2C157.104 423.6 161.496 415.584 163.896 411.384C166.296 407.184 164.904 356.4 164.904 356.4L96.5041 350.4L97.7041 358.8Z" fill="#737373" stroke="#263238" stroke-miterlimit="10"/>
<path d="M144.924 554.496C144.924 554.496 153.9 558.048 158.28 560.124C162.66 562.2 165.588 562.416 165.588 565.752C165.588 569.088 157.656 572.424 152.856 573.264C148.056 574.104 140.34 573.888 139.5 574.104C138.66 574.308 123.012 576.612 121.14 572.64C119.268 568.68 121.344 555.108 121.344 555.108C121.344 555.108 132.192 557.4 144.924 554.484V554.496Z" fill="white" stroke="#263238" stroke-miterlimit="10"/>
<path d="M139.5 574.104C140.34 573.9 148.056 574.104 152.856 573.264C157.656 572.424 165.588 569.088 165.588 565.752C165.588 565.26 165.516 564.84 165.396 564.468C163.752 565.428 161.604 566.568 159.12 567.636C153.276 570.144 145.56 571.812 133.872 571.596C127.536 571.488 123.18 570.636 120.504 569.88C120.624 570.996 120.828 571.968 121.152 572.64C123.024 576.6 138.684 574.308 139.512 574.104H139.5Z" fill="white" stroke="#263238" stroke-miterlimit="10"/>
<path d="M165.504 361.2C165.504 361.2 169.104 409.8 161.904 446.4C154.704 483 142.704 532.8 142.104 535.2C141.504 537.6 146.304 544.2 146.304 544.2V553.8C146.304 553.8 142.104 558 132.504 559.2C122.904 560.4 119.904 557.4 119.904 557.4C119.904 557.4 117.504 541.2 117.504 529.8C117.504 518.4 119.904 479.4 119.904 479.4C119.904 479.4 125.304 439.8 124.704 433.8C124.104 427.8 122.304 409.2 122.304 409.2L112.704 397.8" fill="#737373"/>
<path d="M165.504 361.2C165.504 361.2 169.104 409.8 161.904 446.4C154.704 483 142.704 532.8 142.104 535.2C141.504 537.6 146.304 544.2 146.304 544.2V553.8C146.304 553.8 142.104 558 132.504 559.2C122.904 560.4 119.904 557.4 119.904 557.4C119.904 557.4 117.504 541.2 117.504 529.8C117.504 518.4 119.904 479.4 119.904 479.4C119.904 479.4 125.304 439.8 124.704 433.8C124.104 427.8 122.304 409.2 122.304 409.2L112.704 397.8" stroke="#263238" stroke-miterlimit="10"/>
<path d="M64.6441 352.056L83.5201 348.744C83.4361 351.3 83.9641 335.148 83.9641 333.948C83.9641 331.308 90.2281 314.808 90.2281 314.808C90.2281 314.808 95.1721 336.252 95.1721 338.892C95.1721 341.532 93.1921 361.656 95.8321 364.296C98.4721 366.936 107.712 372.216 128.172 371.556C148.632 370.896 163.812 369.252 167.772 365.292C171.732 361.332 167.112 349.128 166.788 347.472C166.464 345.828 172.068 302.592 172.068 302.592C172.068 302.592 194.172 325.692 207.372 322.392C220.572 319.092 214.296 267.624 214.296 267.624L214.956 252.78C214.956 252.78 219.24 241.896 219.24 240.24C219.24 238.584 214.956 226.716 214.956 226.716C214.956 226.716 212.316 224.412 210.672 230.016C209.028 235.62 208.692 239.256 208.692 239.256C208.692 239.256 204.732 242.22 205.068 246.516C205.392 250.8 206.712 254.1 206.712 254.1L197.808 283.14C197.808 283.14 187.908 271.92 187.248 269.94C186.588 267.96 186.924 260.7 178.668 256.416C170.424 252.132 153.588 251.796 153.588 251.796L107.064 252.132C107.064 252.132 85.2841 254.112 80.3401 258.396C75.3961 262.68 60.2161 317.124 60.2161 325.38C60.2161 327.96 61.5721 335.94 63.4441 345.84L64.6441 352.068V352.056Z" fill="white" stroke="#263238" stroke-miterlimit="10"/>
<path d="M214.968 226.716C214.968 226.716 213.984 234.96 214.644 236.616C215.304 238.26 215.964 242.22 215.304 245.52" stroke="#263238" stroke-miterlimit="10"/>
<path d="M207.372 322.404C220.572 319.104 214.296 267.636 214.296 267.636L214.44 264.3C210.684 261.6 207.012 261.564 204.192 262.272L197.796 283.14C197.796 283.14 187.896 271.92 187.236 269.94C186.576 267.96 186.912 260.7 178.656 256.416C170.412 252.132 153.576 251.796 153.576 251.796L107.052 252.132C107.052 252.132 85.2721 254.112 80.3281 258.396C75.3841 262.68 60.2041 317.124 60.2041 325.38C60.2041 330.276 65.0881 354.684 69.1921 374.616C74.7361 374.736 79.6081 372.564 82.7761 370.656C83.2681 356.388 83.9641 335.676 83.9641 333.948C83.9641 331.308 90.2281 314.808 90.2281 314.808C90.2281 314.808 95.1721 336.252 95.1721 338.892C95.1721 341.532 93.1921 361.656 95.8321 364.296C98.4721 366.936 107.712 372.216 128.172 371.556C148.632 370.896 163.812 369.252 167.772 365.292C171.732 361.332 167.112 349.128 166.788 347.472C166.464 345.828 172.068 302.592 172.068 302.592C172.068 302.592 194.172 325.692 207.372 322.392V322.404Z" fill="#92E3A9" stroke="#263238" stroke-miterlimit="10"/>
<path d="M83.76 296.64L90.24 314.808L76.896 291.996" stroke="#263238" stroke-miterlimit="10"/>
<path d="M80.1001 286.404L82.3921 292.824" stroke="#263238" stroke-miterlimit="10"/>
<path d="M125.796 297.936C128.712 304.488 133.008 312.696 138.096 318" stroke="#263238" stroke-miterlimit="10"/>
<path d="M121.704 287.604C121.704 287.604 122.604 290.304 124.212 294.228" stroke="#263238" stroke-miterlimit="10"/>
<path d="M128.904 309.6C128.904 309.6 136.104 324 139.704 326.796" stroke="#263238" stroke-miterlimit="10"/>
<path d="M183.36 292.14L186.096 289.596" stroke="#263238" stroke-miterlimit="10"/>
<path d="M178.896 288.396L172.068 302.604L180.876 294.444" stroke="#263238" stroke-miterlimit="10"/>
<path d="M210.096 296.4C209.7 293.604 197.808 283.14 197.808 283.14C197.808 283.14 210.096 288 213.3 292.404" stroke="#263238" stroke-miterlimit="10"/>
<path d="M158.208 208.56C158.208 208.56 158.868 216.804 159.852 218.124C160.836 219.444 161.496 229.668 159.852 232.644C158.208 235.62 157.212 239.244 156.228 240.228C155.244 241.212 151.608 241.212 150.288 241.212C148.968 241.212 134.124 240.552 134.124 240.552L134.448 219.768C134.448 219.768 138.072 204.264 158.208 208.548V208.56Z" fill="white" stroke="#263238" stroke-miterlimit="10"/>
<path d="M131.82 185.472C131.82 185.472 118.296 189.756 115.32 201.636C112.356 213.516 121.92 227.04 121.92 227.04C121.92 227.04 124.56 236.604 126.864 238.584C129.168 240.564 138.408 238.584 141.384 237.924C144.348 237.264 150.948 219.444 150.948 219.444C150.948 219.444 150.948 223.728 152.928 223.728C154.908 223.728 154.572 218.124 154.572 217.128C154.572 216.132 163.812 209.208 163.812 197.328C163.812 185.448 153.588 180.168 144.012 180.828C134.448 181.488 131.808 185.448 131.808 185.448L131.82 185.472Z" fill="#263238" stroke="#263238" stroke-miterlimit="10"/>
<path d="M159.864 251.124C159.864 251.124 157.884 244.2 156.9 243.204C155.916 242.208 149.64 238.26 139.416 237.6C129.192 236.94 114.012 237.276 112.692 237.936C111.372 238.596 111.048 244.2 111.048 244.2C111.048 244.2 106.764 248.16 105.768 250.464C104.784 252.768 103.788 253.764 113.028 261.348C122.268 268.932 127.212 271.908 136.788 269.592C146.352 267.288 160.212 253.428 160.212 253.428L159.888 251.124H159.864Z" fill="#92E3A9" stroke="#263238" stroke-miterlimit="10"/>
<path d="M136.26 255.804C145.452 252.924 154.908 247.176 154.908 247.176" stroke="#263238" stroke-miterlimit="10"/>
<path d="M111.024 245.52C111.024 245.52 116.964 257.4 127.524 257.4C128.856 257.4 130.296 257.232 131.784 256.956" stroke="#263238" stroke-miterlimit="10"/>
</svg>
